<svg width="841" height="595" viewBox="0 0 841 595" fill="none" xmlns="http://www.w3.org/2000/svg">
<g opacity="0.5">
<path d="M344 283.09C343.34 284.3 342.7 285.52 342.07 286.74" stroke="#58388C" stroke-width="2.48" stroke-miterlimit="10" stroke-linecap="round"/>
<path d="M338.52 294.12C314.2 348.94 327.18 410.36 366.78 442.75C411.72 479.51 471.69 463.17 483.36 459.65C500.36 454.51 525.23 446.98 533.2 425.01C542 400.75 528.28 364.09 498.56 355.74C471.82 348.23 439.78 365.81 436.9 387C433.9 408.7 446.76 430.07 466.9 437C505.06 450.08 549.58 437.21 582.22 409.48C596.12 397.67 603.65 378.06 606.37 365.86" stroke="#58388C" stroke-width="2.5" stroke-miterlimit="10" stroke-linecap="round" stroke-dasharray="8.17 8.17"/>
<path d="M607.12 361.81C607.343 360.453 607.483 359.084 607.54 357.71" stroke="#58388C" stroke-width="2.48" stroke-miterlimit="10" stroke-linecap="round"/>
</g>
<path d="M612.2 354.1C699.737 354.1 770.7 283.137 770.7 195.6C770.7 108.063 699.737 37.1 612.2 37.1C524.663 37.1 453.7 108.063 453.7 195.6C453.7 283.137 524.663 354.1 612.2 354.1Z" fill="#A29FDD"/>
<path d="M124.75 378C137.96 378 148.87 386.85 168.21 408.74C202.73 448.21 219.82 467.98 219.21 483.52C217.73 519.03 174.09 556.58 132.51 552.25C79 547 50.66 473.63 64.8 431.59C68.23 421 77.19 405 93.06 392.3C101.06 386.32 111.19 378.1 124.75 378Z" fill="#A390DD"/>
<path opacity="0.5" d="M193.889 495.097C205.975 492.728 213.852 481.01 211.483 468.924C209.114 456.838 197.396 448.961 185.31 451.33C173.224 453.699 165.347 465.417 167.716 477.503C170.085 489.589 181.803 497.466 193.889 495.097Z" fill="#58388C"/>
<path d="M80.19 414.63C84.38 409.78 101.43 401.3 135.53 384.34C150.53 376.63 153.29 375.72 157.26 371.64C172.44 355.45 163.67 338.82 167.67 308.64C175.61 246.17 202.67 236.46 213.3 213.83C214.11 206.7 211.13 191.51 219.05 187.02C224.29 183.79 231.62 187.49 232.82 188.02C244.59 193.79 246.09 208.9 242.15 222.52C238.93 234.16 239.26 239.6 229.61 252.13C224.61 258.61 223.37 278.31 227.68 277.83C295.82 224.83 326.73 212.18 341.68 211.83C346.06 211.71 355.73 212.38 370 210.32C381.38 208.45 387.89 206.08 400.74 206.13C415.14 206.6 418.74 209.94 419.79 211.57C422.79 215.74 422.92 221.96 420.93 226.75C416.37 237.19 402.03 238.9 384.07 242.75C347.88 250.94 325.07 262.01 325.17 262.36L326.23 262.16C336.98 258.95 354.23 253.37 374.28 254.57C376.54 254.86 375.77 254.65 379.51 255.02C400.76 256.72 405.51 254.69 412.19 258.88C413.88 260.02 417.97 262.15 419.36 267.39C419.57 268.45 420.68 272.26 419.26 276.21C416.55 282.98 407.64 286.21 400.78 286.81C394.28 287.35 384.69 285.19 381.09 285.53C380.017 285.717 378.929 285.808 377.84 285.8C377.115 285.548 376.345 285.45 375.58 285.51C345.28 286.31 328.88 307.51 328.46 307.22C328.39 306.87 353.56 300.47 379.77 297.53C397.36 295.53 403.08 296.63 407.44 300.18C412.58 303.94 416.23 311.3 414.93 317.79C412.35 328.94 396.3 333.19 388.59 335.06C380.59 337.36 375.73 336.85 368.46 337.18C347.34 338.01 322.6 344.7 322.79 349.43C322.63 354.23 349.57 364.36 371.79 355.97C379.64 352.97 385.66 348.12 397.03 348.09C399.64 348.31 410.3 348.42 413.81 355.09C415.98 358.71 414.63 363.01 414.48 364.09C410.9 377.63 386.72 383.47 361.83 391.29C343.83 396.66 326.62 404.43 309.22 411.14C278.89 423 259 435.73 222.82 459C141.97 510.81 135.12 530.14 115.82 525.12C80 514.84 58.83 440.47 80.19 414.63Z" fill="#FFADAF"/>
<path d="M231.79 237C229.72 241.44 220.5 252.42 219.71 255.88C215.99 268.72 224.85 278.35 227.96 277.38C223.72 278.21 224.96 258.51 229.89 251.68C239.55 239.15 239.21 233.68 242.44 222.07C245.81 209.3 244.87 195.17 234.87 189.07C230.26 193.67 238.05 224.07 231.79 237Z" fill="#FC9599"/>
<path d="M227.89 277.06L227.61 277.49C227.657 277.48 227.701 277.462 227.741 277.435C227.78 277.408 227.814 277.374 227.84 277.334C227.866 277.294 227.884 277.249 227.893 277.202C227.901 277.155 227.9 277.107 227.89 277.06ZM396.13 216.2C394.918 212.913 394.243 209.452 394.13 205.95C391.227 205.939 388.333 206.274 385.51 206.95C383.335 210.247 381.568 213.796 380.25 217.52C378.31 224.52 377.84 237.07 385.03 241.9C392.73 240.02 399.44 238.71 405.38 237.18C405.31 236.82 405.24 236.47 405.6 236.4C407.37 230.51 400.11 227.16 396.13 216.2ZM382.58 362.33C382.261 368.745 383.022 375.167 384.83 381.33C384.83 381.33 385.33 381.96 385.83 382.6C392.091 380.753 398.128 378.217 403.83 375.04C402.92 374.525 402.148 373.798 401.58 372.92C396.8 367.25 396.48 359.97 396.58 356.65C396.551 353.486 396.921 350.332 397.68 347.26C397.32 347.33 397.25 346.98 396.9 347.05C393.873 347.055 390.855 347.39 387.9 348.05C386.816 349.149 385.813 350.325 384.9 351.57C383.67 352.94 382.74 355.69 382.58 362.33Z" fill="#FC9599"/>
<path d="M197.2 380.69C233.75 387.47 268.43 367.83 279.28 337.08C287.43 313.08 280.89 285.39 261.97 265.61" stroke="#FC9599" stroke-width="3.12" stroke-miterlimit="10" stroke-linecap="round"/>
<path d="M368.22 405.14L262.22 405.37C255.189 405.397 248.431 402.651 243.412 397.728C238.393 392.804 235.518 386.1 235.41 379.07L234.41 134.15C234.385 127.121 237.133 120.366 242.056 115.349C246.979 110.332 253.682 107.458 260.71 107.35L366.71 107.12C373.74 107.093 380.497 109.839 385.514 114.763C390.532 119.687 393.405 126.391 393.51 133.42L394.51 378.34C394.572 381.834 393.939 385.305 392.646 388.551C391.353 391.797 389.427 394.754 386.98 397.248C384.533 399.743 381.614 401.725 378.393 403.08C375.173 404.435 371.714 405.135 368.22 405.14Z" fill="#43395B"/>
<path d="M369 398.23L260.81 398.52C258.547 398.532 256.303 398.097 254.208 397.241C252.113 396.384 250.207 395.123 248.6 393.529C246.993 391.935 245.716 390.04 244.843 387.951C243.97 385.863 243.517 383.623 243.51 381.36L242.71 132C242.698 129.736 243.133 127.492 243.989 125.396C244.846 123.301 246.107 121.394 247.701 119.787C249.294 118.179 251.19 116.901 253.278 116.027C255.366 115.152 257.606 114.698 259.87 114.69L368.06 114.4C370.325 114.386 372.57 114.818 374.667 115.674C376.764 116.529 378.671 117.79 380.279 119.385C381.888 120.979 383.165 122.875 384.039 124.965C384.912 127.054 385.365 129.295 385.37 131.56L386.18 380.92C386.193 383.186 385.759 385.432 384.902 387.53C384.045 389.627 382.782 391.535 381.185 393.143C379.589 394.752 377.691 396.029 375.6 396.902C373.509 397.775 371.266 398.226 369 398.23Z" fill="#EAE6FF"/>
<path d="M336.19 127.41H292.9C291.836 127.448 290.775 127.27 289.782 126.886C288.789 126.503 287.883 125.922 287.121 125.179C286.358 124.436 285.754 123.546 285.345 122.563C284.936 121.58 284.73 120.525 284.74 119.46V112.12L344.13 111.85V119.2C344.211 120.276 344.064 121.357 343.698 122.372C343.331 123.387 342.754 124.312 342.004 125.088C341.254 125.864 340.348 126.472 339.346 126.872C338.344 127.272 337.268 127.455 336.19 127.41ZM346.73 391L284.37 391.11C283.914 391.029 283.493 390.809 283.167 390.479C282.841 390.15 282.626 389.727 282.55 389.27C282.627 388.811 282.846 388.388 283.176 388.06C283.506 387.732 283.931 387.515 284.39 387.44L346.75 387.32C347.209 387.401 347.632 387.622 347.96 387.954C348.287 388.285 348.504 388.71 348.58 389.17C348.78 390.24 347.79 390.8 346.73 391Z" fill="#43395B"/>
<path d="M394.427 286.03C396.801 286.022 398.705 279.076 398.678 270.516C398.651 261.956 396.704 255.022 394.329 255.03C391.954 255.037 390.051 261.983 390.078 270.543C390.105 279.104 392.052 286.037 394.427 286.03Z" fill="#FFADAF"/>
<path d="M396.6 314.08C396.71 323.97 395.76 332.23 394.27 332.15C392.78 332.07 391.2 323.95 391.09 314.06C390.98 304.17 392.72 296.13 394.09 295.85C396 295.86 396.85 304.12 396.6 314.08Z" fill="#FFADAF"/>
<path d="M165.4 422.5L187.5 407.9M178.7 426.9L195.7 414" stroke="#FC9599" stroke-width="3.12" stroke-miterlimit="10" stroke-linecap="round"/>
<path d="M211.35 482.86C191.79 482.29 169.72 474.51 163.45 470.6C129 448.36 124 398.7 128 389.11C128.311 388.544 128.504 387.921 128.567 387.278C128.631 386.635 128.564 385.986 128.37 385.37C126.12 381.37 107.73 388.68 106.03 389.37C90.15 396.17 73 411.64 65.08 433C50.88 471 72 505.76 76.08 511.57C81.83 520.35 95.59 541.87 121.63 547.41C150.42 553.87 192.07 539.84 205.02 514.18C210 504.531 212.192 493.685 211.35 482.86Z" fill="#A390DD"/>
<path opacity="0.5" d="M181.3 520.3L196 498.3M174.9 514.2L185.5 498.9M89.1 415.1L104.7 405.1M121.7 497.1L145.6 473M85.5 428.6L113.8 409.9M120.4 515L154.7 478.6M126.9 480.7L139.7 467.5" stroke="#58388C" stroke-width="3.6" stroke-miterlimit="10" stroke-linecap="round"/>
<path d="M620.2 126.2H604.3C594.027 126.2 585.7 134.528 585.7 144.8V191.2C585.7 201.472 594.027 209.8 604.3 209.8H620.2C630.473 209.8 638.8 201.472 638.8 191.2V144.8C638.8 134.528 630.473 126.2 620.2 126.2Z" fill="#EAE6FF"/>
<path d="M612.2 308.3C631.53 308.3 647.2 292.63 647.2 273.3C647.2 253.97 631.53 238.3 612.2 238.3C592.87 238.3 577.2 253.97 577.2 273.3C577.2 292.63 592.87 308.3 612.2 308.3Z" fill="#EAE6FF"/>
<path d="M557.51 179.1H667C687.199 179.1 706.57 187.124 720.853 201.407C735.136 215.69 743.16 235.061 743.16 255.26H481.35C481.35 235.061 489.374 215.69 503.657 201.407C517.94 187.124 537.311 179.1 557.51 179.1Z" fill="#EAE6FF"/>
<path d="M612.2 141.2V61.3" stroke="#EAE6FF" stroke-width="5.3" stroke-miterlimit="10" stroke-linecap="round"/>
<path opacity="0.5" d="M503.3 244.2H715.9" stroke="#A29FDD" stroke-width="1.5" stroke-miterlimit="10" stroke-linecap="round"/>
<path d="M612.2 299.1V282M619 294.37C622.994 292.792 626.312 289.87 628.383 286.108C630.454 282.345 631.148 277.979 630.344 273.76C629.541 269.541 627.291 265.735 623.983 262.997C620.674 260.259 616.514 258.761 612.22 258.761C607.925 258.761 603.766 260.259 600.457 262.997C597.149 265.735 594.899 269.541 594.096 273.76C593.292 277.979 593.986 282.345 596.057 286.108C598.128 289.87 601.446 292.792 605.44 294.37" stroke="#A29FDD" stroke-width="2.62" stroke-miterlimit="10" stroke-linecap="round"/>
<path d="M340.55 149.42H157.19C148.587 149.423 140.337 152.841 134.254 158.924C128.171 165.007 124.753 173.257 124.75 181.86V246.76C124.75 254.716 127.911 262.347 133.537 267.973C139.163 273.599 146.794 276.76 154.75 276.76H271C272.099 276.759 273.187 276.974 274.202 277.393C275.218 277.813 276.141 278.429 276.918 279.205C277.695 279.981 278.312 280.904 278.733 281.918C279.153 282.933 279.37 284.021 279.37 285.12V298.21C279.361 298.74 279.508 299.261 279.794 299.707C280.079 300.154 280.49 300.506 280.975 300.719C281.46 300.933 281.997 300.999 282.52 300.908C283.042 300.817 283.525 300.575 283.91 300.21L306.41 279C307.964 277.547 310.013 276.74 312.14 276.74H339.32C343.242 276.74 347.126 275.967 350.749 274.466C354.373 272.965 357.665 270.764 360.438 267.991C363.211 265.217 365.41 261.924 366.91 258.3C368.41 254.676 369.181 250.792 369.18 246.87V178.05C369.18 170.457 366.164 163.175 360.794 157.806C355.425 152.436 348.143 149.42 340.55 149.42Z" fill="white" stroke="#9A8AC4" stroke-width="4" stroke-miterlimit="10"/>
<path d="M224.85 203.35L217 197.07L217.06 183.23C217.18 182.43 216.69 182.23 215.88 182.06L208.59 182.12C207.78 182 207.41 182.12 207.41 183.29L207.29 189.87C196.9 181.75 185.47 172.77 185.34 172.46C184.41 171.97 183.98 171.78 183.49 171.54C182.68 171.41 182.44 171.91 181.49 172.54C180.54 173.17 143.16 202.69 142.23 203.37C140.75 204.66 141.18 206.01 142.66 205.89L149.96 205.83L149.9 245.39C150.02 248.04 151.01 248.84 153.36 248.9L213.58 248.84C215.93 248.84 217.04 247.73 217.1 245.39L217.16 205.83L224.46 205.77C225.71 206.12 226 204.52 224.85 203.35Z" fill="#1DC9B7"/>
<path d="M335.5 172.2H248.5M335.1 186.1H248.9" stroke="#1DC9B7" stroke-width="2.64" stroke-miterlimit="10" stroke-linecap="round"/>
<path d="M313.77 248.94H270.28C264.506 248.94 258.969 246.646 254.886 242.564C250.804 238.481 248.51 232.944 248.51 227.17C248.51 221.396 250.804 215.859 254.886 211.776C258.969 207.694 264.506 205.4 270.28 205.4H313.77C319.544 205.4 325.081 207.694 329.164 211.776C333.246 215.859 335.54 221.396 335.54 227.17C335.54 232.944 333.246 238.481 329.164 242.564C325.081 246.646 319.544 248.94 313.77 248.94Z" fill="#EAA2AB"/>
<path d="M313.6 246.3C324.149 246.3 332.7 237.749 332.7 227.2C332.7 216.651 324.149 208.1 313.6 208.1C303.051 208.1 294.5 216.651 294.5 227.2C294.5 237.749 303.051 246.3 313.6 246.3Z" fill="#CC4A50"/>
<path d="M270.42 227C270.42 231.1 267.94 233.58 264.28 233.58C260.62 233.58 258.4 230.78 258.4 227.22C258.4 223.48 260.8 220.68 264.49 220.68C268.18 220.68 270.42 223.59 270.42 227ZM261.42 227.17C261.42 229.62 262.57 231.34 264.42 231.34C266.27 231.34 267.42 229.52 267.42 227.09C267.42 224.85 266.34 222.92 264.42 222.92C262.5 222.92 261.39 224.78 261.39 227.21L261.42 227.17ZM272.28 220.92H279.92V223.24H275.12V226.09H279.61V228.39H275.12V233.39H272.28V220.92ZM282.05 220.92H289.7V223.24H284.89V226.09H289.38V228.39H284.89V233.39H282.05V220.92Z" fill="white"/>
<path d="M183.4 223C189.53 223 194.5 218.03 194.5 211.9C194.5 205.77 189.53 200.8 183.4 200.8C177.27 200.8 172.3 205.77 172.3 211.9C172.3 218.03 177.27 223 183.4 223Z" fill="white"/>
<path d="M187.2 217.6H179.6C178.716 217.6 178 218.316 178 219.2V226.8C178 227.684 178.716 228.4 179.6 228.4H187.2C188.084 228.4 188.8 227.684 188.8 226.8V219.2C188.8 218.316 188.084 217.6 187.2 217.6Z" fill="white"/>
<path d="M186.1 223H180.8C180.027 223 179.4 223.627 179.4 224.4V232.4C179.4 233.173 180.027 233.8 180.8 233.8H186.1C186.873 233.8 187.5 233.173 187.5 232.4V224.4C187.5 223.627 186.873 223 186.1 223Z" fill="white"/>
</svg>
