<?xml version="1.0" encoding="utf-8"?>
<!-- Generator: Adobe Illustrator 27.5.0, SVG Export Plug-In . SVG Version: 6.00 Build 0)  -->
<svg version="1.1" xmlns="http://www.w3.org/2000/svg" xmlns:xlink="http://www.w3.org/1999/xlink" x="0px" y="0px"
	 viewBox="0 0 750 500" style="enable-background:new 0 0 750 500;" xml:space="preserve">
<g id="BACKGROUND">
	<polygon style="fill:#F75959;" points="334.998,500 0,500 0,0 415.004,0 	"/>
	<polygon style="fill:#72C7FF;" points="750,500 334.998,500 415.004,0 750,0 	"/>
</g>
<g id="OBJECTS">
	<g>
		<defs>
			<rect id="SVGID_1_" y="0" width="750" height="500"/>
		</defs>
		<clipPath id="SVGID_00000042009536704352583910000015606157217124856506_">
			<use xlink:href="#SVGID_1_"  style="overflow:visible;"/>
		</clipPath>
		
			<line style="opacity:0.7;clip-path:url(#SVGID_00000042009536704352583910000015606157217124856506_);fill:none;stroke:#A4EFFF;stroke-width:3;stroke-linecap:round;stroke-linejoin:round;stroke-miterlimit:10;" x1="387.852" y1="474.797" x2="738.163" y2="474.797"/>
		
			<line style="opacity:0.7;clip-path:url(#SVGID_00000042009536704352583910000015606157217124856506_);fill:none;stroke:#FFBCBB;stroke-width:3;stroke-linecap:round;stroke-linejoin:round;stroke-miterlimit:10;" x1="10.973" y1="474.797" x2="328.299" y2="474.797"/>
		<g style="clip-path:url(#SVGID_00000042009536704352583910000015606157217124856506_);">
			<g transform="matrix( 1, 0, 0, 1, 15.55,0) ">
				<g>
					<g id="Layer0_4_FILL">
						<path style="opacity:0.3;fill:#FFFFFF;" d="M265.936,166.083c0.868,0,1.302-0.416,1.302-1.248
							c0-0.795-0.524-1.337-1.573-1.627c-1.085-0.289-1.627,0.109-1.627,1.194l0.217,0.868
							C264.58,165.812,265.14,166.083,265.936,166.083 M403.603,192.933c0.216-0.397,0.325-0.778,0.325-1.139
							c0-1.014-0.453-1.446-1.356-1.303c-0.94,0.145-1.41,0.813-1.41,2.007c0,0.037,0.055,0.253,0.162,0.651
							c0.218,0.435,0.597,0.65,1.139,0.65C402.969,193.801,403.349,193.511,403.603,192.933 M396.605,195.157
							c0.254-0.361,0.38-0.759,0.38-1.193c0-1.699-0.922-2.351-2.767-1.952c-1.881,0.361-2.82,1.066-2.82,2.114
							c0,1.267,1.012,1.898,3.037,1.898C395.449,196.024,396.171,195.735,396.605,195.157 M530.205,163.154
							c0.868,0,1.302-0.433,1.302-1.302c0-0.579-0.65-1.193-1.953-1.844c-1.302-0.615-1.952-0.271-1.952,1.03
							c0,0.037,0.145,0.398,0.434,1.085C528.541,162.81,529.264,163.154,530.205,163.154 M510.894,156.156
							c0.181-0.252,0.272-0.523,0.272-0.813c0-0.939-0.397-1.392-1.193-1.356c-0.831,0.037-1.248,0.488-1.248,1.356
							c0,0.253,0.054,0.488,0.163,0.705c0.181,0.435,0.524,0.65,1.031,0.65C510.352,156.698,510.677,156.518,510.894,156.156
							 M496.737,159.139c0.397,0.506,1.284,0.76,2.658,0.76c2.965,0,4.447-0.778,4.447-2.332c0-1.483-1.211-2.08-3.634-1.79
							c-2.423,0.289-3.635,1.139-3.635,2.549L496.737,159.139 M454.699,155.94c0,0.036,0.054,0.271,0.163,0.705
							c0.289,0.434,0.832,0.651,1.628,0.651c1.12,0,1.681-0.435,1.681-1.302c0-0.903-0.578-1.374-1.736-1.41
							C455.277,154.511,454.699,154.963,454.699,155.94 M453.832,161.418c1.08,0.002,3.955,0.364,8.624,1.085
							c4.716,0.717,8.728,1.132,12.042,1.247c3.339,0.117,6.919-0.137,10.74-0.759c3.821-0.622,5.919-0.983,6.292-1.085
							c0.275-0.105,0.547-0.232,0.814-0.38c0.614-0.361,0.922-0.76,0.922-1.193c0-0.76-0.325-1.392-0.976-1.899
							c-0.688-0.506-1.537-0.759-2.55-0.759c-0.76,0-3.056,0.65-6.889,1.953c-3.833,1.302-7.722,1.952-11.662,1.952
							c-4.051,0-8.517-0.85-13.398-2.549c-4.845-1.699-7.485-2.549-7.92-2.549c-2.169,0-5.424,1.265-9.764,3.797
							c-4.339,2.495-8.136,3.742-11.391,3.742c-2.64,0-4.972-0.487-6.997-1.464c-2.025-0.977-3.725-1.464-5.099-1.464
							c-2.387,0-4.665,1.067-6.835,3.2c-0.072,0.073-2.007,2.405-5.804,6.998c-5.642,6.798-12.565,10.198-20.775,10.198
							c-2.567,0-5.948-0.724-10.142-2.169c-4.194-1.483-6.998-2.224-8.407-2.224c-1.302,0-4.14,0.524-8.515,1.572
							c-4.377,1.049-7.594,1.573-9.656,1.573c-4.375,0-7.486-0.235-9.329-0.705c-2.712-0.651-5.171-2.115-7.378-4.394
							c-3.109-3.11-5.062-4.882-5.857-5.315c-2.062-1.121-5.207-1.935-9.439-2.441c-3.978-0.614-7.106-2.169-9.385-4.665
							c-1.448-1.523-2.967-3.836-4.555-6.943c-1.585-3.101-3.249-5.072-4.991-5.913c-1.699-0.846-3.996-1.189-6.888-1.031
							c-2.901,0.172-5.794,1.13-8.679,2.875c-2.843,1.743-5.066,2.465-6.672,2.17c-1.608-0.296-3.218-0.17-4.828,0.379
							c-1.571,0.587-3.397,1.492-5.478,2.712c-2.045,1.221-4.105,2.162-6.184,2.821c0.141,0.226,0.448,0.388,0.922,0.488
							c0.579,0.144,1.284,0.216,2.116,0.216c1.662-0.405,3.416-0.785,5.261-1.139c4.485-0.871,8.554-1.486,12.205-1.844
							c3.646-0.353,7.534-0.389,11.662-0.108c4.163,0.321,10.148,5.582,17.954,15.785c7.814,10.193,15.426,14.46,22.836,12.801
							c7.44-1.659,13.262-2.762,17.467-3.309c4.197-0.542,7.416-0.814,9.654-0.814c5.86-0.001,10.722,1.373,14.591,4.122
							c3.906,2.753,8.372,4.217,13.398,4.395c5.024,0.176,9.4-1.163,13.126-4.015c3.761-2.819,9.638-6.707,17.629-11.662
							c6.727-4.195,12.476-7.25,17.25-9.167C439.873,162.792,446.852,161.418,453.832,161.418z"/>
					</g>
				</g>
			</g>
			<g transform="matrix( 0.86602783203125, -0.499969482421875, 0.499969482421875, 0.86602783203125, -271.05,246.6) ">
				<g>
					<g id="Layer0_34_FILL">
						<path style="fill:#FFD057;" d="M511.355,194.193l0.162-0.217c-0.072-0.181-0.181-0.252-0.325-0.217
							c-0.181,0.036-0.271,0.109-0.272,0.217l0.055,0.217H511.355 M507.612,193c0,0.181,0.615,0.362,1.845,0.543l0.596-0.054
							c-0.579-0.398-1.284-0.614-2.115-0.651C507.72,192.837,507.612,192.892,507.612,193 M500.94,195.55
							c-0.217-0.109-0.434-0.218-0.651-0.326c-0.325-0.036-0.488,0.054-0.488,0.271c0,0.217,0.271,0.344,0.814,0.38l0.326-0.054
							L500.94,195.55 M502.079,189.149c0.507,0.036,0.759-0.091,0.76-0.38c0-0.217-0.235-0.325-0.705-0.325
							c-0.506-0.036-0.759,0.072-0.759,0.325l0.054,0.217C501.501,189.095,501.717,189.149,502.079,189.149 M494.865,198.858
							c-0.181,0.036-0.271,0.09-0.271,0.163c-0.001,0.073,0.054,0.127,0.162,0.163l0.217-0.054L494.865,198.858 M491.014,197.664
							l0.325,0.434c0.29,0.253,0.524,0.38,0.706,0.379c0.253,0.036,0.38-0.018,0.38-0.163c0-0.181-0.235-0.452-0.706-0.813
							C491.248,197.141,491.014,197.195,491.014,197.664 M484.776,196.579c-0.109-0.18-0.217-0.253-0.325-0.216
							c-0.072,0.035-0.109,0.109-0.109,0.216c0.001-0.035,0.073,0.037,0.216,0.217L484.776,196.579 M482.877,194.085
							c0,0.108,0.054,0.289,0.163,0.542c0.144,0.326,0.307,0.488,0.488,0.488c0.145,0,0.217-0.145,0.217-0.434
							c0-0.181-0.055-0.452-0.163-0.813c-0.145-0.326-0.307-0.398-0.488-0.217C482.95,193.796,482.877,193.941,482.877,194.085
							 M493.943,184.701c-0.94-0.073-1.736-0.128-2.387-0.163l-6.184-0.108c-2.061-0.073-3.598-0.163-4.611-0.272
							c-0.398,1.266-1.031,3.4-1.898,6.401c1.266,0.687,3.164,1.808,5.695,3.363c2.531,1.483,4.358,2.441,5.478,2.875l-1.573-3.092
							c1.122,0.181,2.568,0.452,4.34,0.814c1.844,0.289,3.507,0.47,4.99,0.542l-5.424-2.603c2.459,0.108,7.215,0.271,14.267,0.488
							l-12.476-3.037l6.075-1.573c-1.41-0.361-3.182-0.65-5.316-0.868c-2.351-0.253-4.104-0.451-5.261-0.596
							C490.923,186.292,492.351,185.569,493.943,184.701 M494.811,186.491c0.072,0,0.199-0.09,0.379-0.27
							c-0.289-0.145-0.488-0.181-0.596-0.109l0,0.271L494.811,186.491 M496.112,184.701c0-0.325-0.235-0.452-0.705-0.38
							c-0.47,0.072-0.705,0.254-0.705,0.542l-0.001,0.217c0.037,0.108,0.127,0.163,0.271,0.163
							C495.733,185.171,496.113,184.99,496.112,184.701 M487.271,183.724c0.253,0.036,0.38-0.109,0.38-0.434
							c0-0.217-0.127-0.325-0.38-0.325c-0.29,0.037-0.434,0.163-0.435,0.38l0.055,0.217
							C486.963,183.67,487.09,183.725,487.271,183.724z"/>
					</g>
				</g>
			</g>
			<g transform="matrix( 0.86602783203125, -0.499969482421875, 0.499969482421875, 0.86602783203125, -271.05,246.6) ">
				<g>
					<g id="Layer0_35_FILL">
						<path style="fill:#6EA5E2;" d="M480.328,192.24c-1.772-0.326-3.544-0.65-5.316-0.976c0.362,2.242,0.542,3.398,0.542,3.472
							c0.362,0.506,2.206,1.193,5.533,2.061c2.314,0.542,2.893,0.054,1.736-1.466l-2.332-3.091
							C480.454,192.241,480.4,192.241,480.328,192.24 M478.809,179.494c-0.036,0.073-0.651,1.013-1.844,2.821
							c1.772,0.47,3.562,0.922,5.37,1.356l3.362-1.844c1.664-0.868,1.338-1.519-0.976-1.953
							C481.322,179.259,479.352,179.132,478.809,179.494 M448.704,176.565l-8.136,1.41c-2.134,0.398-2.315,1.23-0.542,2.495
							l6.834,4.611C446.607,182.187,447.221,179.35,448.704,176.565z"/>
						<path style="fill:#D7C4D7;" d="M448.704,176.565c-1.483,2.785-2.097,5.622-1.845,8.517c9.222,2.386,18.587,4.448,28.098,6.183
							l0.054,0.001c1.772,0.326,3.544,0.65,5.316,0.976c0.072,0,0.126,0.001,0.162,0.001c0.29,0.072,0.561,0.144,0.814,0.217
							l1.844-8.516c-0.253-0.073-0.524-0.163-0.813-0.271c-1.809-0.434-3.599-0.886-5.37-1.356
							C467.635,180.072,458.215,178.155,448.704,176.565z"/>
					</g>
				</g>
			</g>
			<g transform="matrix( 0.8659820556640625, -0.4999847412109375, 0.4999847412109375, 0.8659820556640625, -271.25,246.3) ">
				<g>
					<g id="Layer0_35_MEMBER_0_FILL">
						<path style="fill:#6EA5E2;" d="M476.205,185.643c-0.651,0.687-0.831,1.537-0.543,2.549c3.291,1.049,6.655,1.754,10.089,2.116
							c0.615-0.724,0.796-1.574,0.543-2.549C482.967,186.854,479.604,186.15,476.205,185.643z"/>
					</g>
				</g>
			</g>
		</g>
		<g style="clip-path:url(#SVGID_00000042009536704352583910000015606157217124856506_);">
			<g transform="matrix( 1, 0, 0, 1, 15.55,0) " style="opacity:0.8;">
				<g>
					<g id="Layer0_14_FILL">
						<path style="fill:#FFFFFF;" d="M398.235,165.106c0-1.554-0.724-2.314-2.17-2.278c-1.447,0.036-2.17,0.814-2.17,2.333
							c0,0.433,0.09,0.85,0.271,1.247c0.361,0.724,0.994,1.085,1.898,1.085c0.76,0,1.338-0.307,1.735-0.921
							C398.09,166.101,398.235,165.613,398.235,165.106 M169.331,277.172c0,0.036,0.054,0.469,0.163,1.301
							c0.326,0.869,0.995,1.302,2.007,1.302c1.446,0,2.169-0.867,2.169-2.603c0-1.772-0.723-2.658-2.169-2.658
							C170.054,274.513,169.331,275.399,169.331,277.172 M216.901,219.294c1.447,0,2.17-0.886,2.17-2.658
							c0-1.771-0.723-2.657-2.17-2.657c-1.446,0-2.17,0.886-2.17,2.657l0.217,1.357C215.274,218.86,215.925,219.294,216.901,219.294
							 M226.774,217.83c0.687,0.796,2.152,1.192,4.394,1.192c3.399,0,5.098-1.246,5.098-3.742c0-2.351-1.645-3.255-4.936-2.713
							c-3.291,0.543-4.937,1.772-4.937,3.689C226.394,216.98,226.52,217.505,226.774,217.83 M383.643,134.785
							c1.845,0,2.767-0.76,2.767-2.279c0-1.627-0.922-2.35-2.767-2.17c-1.845,0.182-2.766,0.941-2.766,2.279l0.271,1.085
							C381.582,134.423,382.414,134.785,383.643,134.785 M299.621,211.212c0,0.037,0.181,0.506,0.542,1.411
							c0.614,0.867,1.573,1.301,2.875,1.301c0.76,0,1.338-0.289,1.735-0.867c0.29-0.434,0.435-0.904,0.435-1.41
							c0-1.374-0.923-2.189-2.766-2.441C300.562,208.952,299.621,209.621,299.621,211.212 M315.677,207.741
							c0.579-0.615,0.869-1.284,0.869-2.007c0-2.784-1.356-3.887-4.068-3.309c-2.749,0.614-4.123,1.845-4.123,3.689
							c0,0.036,0.073,0.542,0.217,1.518c0.506,0.977,1.663,1.465,3.472,1.465C313.671,209.096,314.881,208.644,315.677,207.741
							 M411.633,154.692c0.639-0.556,1.452-1.28,2.44-2.17l-4.61-22.347c-1.882,0.201-3.383,1.033-4.502,2.495
							c-1.266,1.699-2.55,2.549-3.852,2.549c-0.868,0-1.338-0.108-1.41-0.325c0-0.614,0-1.32,0-2.115
							c-0.108-2.749-1.247-4.123-3.417-4.123c-1.121,0-2.225,0.253-3.31,0.76c-1.301,0.579-1.952,1.338-1.952,2.278
							c0,0.217,0.127,1.031,0.38,2.441c0.254,1.374,0.38,2.514,0.38,3.418c0,1.193,0,1.809,0,1.845
							c-0.108,0.397-0.524,0.596-1.248,0.596c-2.206-0.398-3.616-0.596-4.23-0.596c-1.121,0-2.134,0.198-3.037,0.596
							c-1.303,0.543-1.954,1.374-1.954,2.495c0,0.793,0.271,2.186,0.813,4.176c0.582,2.033-0.088,3.822-2.006,5.37
							c-1.573,0.889-3.833,2.299-6.78,4.231c-3.146,2.098-5.931,3.146-8.353,3.146c-2.929-0.108-5.225-0.162-6.888-0.162
							c-2.966,0-5.01,0.343-6.13,1.031c-1.591,0.939-3.923,2.766-6.998,5.478c-2.459,2.134-4.031,3.201-4.719,3.201
							c-1.482,0-2.766-0.795-3.851-2.387c-1.049-1.591-2.658-2.387-4.828-2.387c-4.268,0-7.486,0.977-9.656,2.93
							c-1.518,1.374-2.675,3.508-3.471,6.4c-1.085,3.87-1.718,6.004-1.898,6.401c-1.013,1.953-2.658,2.929-4.937,2.929
							c-1.085,0-1.935-0.632-2.549-1.898c-0.072-0.181-0.525-1.573-1.356-4.177c-1.338-4.049-3.725-6.075-7.16-6.075
							c-5.642,0-9.981,2.351-13.018,7.052c-1.52,2.64-2.694,4.592-3.526,5.858c-1.374,2.206-2.876,3.833-4.503,4.882
							c-2.748,1.736-4.918,3.688-6.509,5.858c-2.025,2.712-3.906,4.81-5.642,6.292c-0.832,0.724-2.693,1.465-5.587,2.225
							c-3.869,1.049-6.563,1.88-8.082,2.495c-7.16,2.855-11.428,7.793-12.802,14.807c-0.723,3.689-2.278,6.094-4.665,7.215
							c-1.447,0.723-4.123,1.103-8.028,1.139c-4.304,0.073-7.576,0.47-9.818,1.193c-3.869,1.23-7.214,3.689-10.035,7.377
							c-1.519,1.988-3.562,4.194-6.129,6.617c-3.11,2.966-6.129,5.389-9.059,7.269c-2.604,1.664-6.69,3.635-12.259,5.913
							c-4.268,2.134-6.4,4.719-6.4,7.756c0,3.906,2.079,8.661,6.238,14.267c3.07,4.173,6.216,7.519,9.438,10.034
							c0.419-0.37,0.854-0.731,1.302-1.084c0.542-0.435,0.814-0.868,0.814-1.303c0-0.217-1.447-2.513-4.339-6.888
							c-2.893-4.34-4.339-8.264-4.339-11.771c0-2.386,1.645-4.773,4.936-7.16c4.412-2.676,7.685-4.773,9.818-6.292
							c3.146-2.205,5.207-4.827,6.183-7.865c0.868-2.748,3.146-5.188,6.835-7.322c4.267-2.459,8.137-3.779,11.608-3.96
							c1.88-0.108,4.52-0.235,7.919-0.38c3.255-0.724,5.858-2.586,7.811-5.587c1.736-2.64,3.617-3.959,5.642-3.959
							c0.072,0,1.248,0.217,3.526,0.65c2.35,0.435,3.707,0.65,4.068,0.65c3.399,0,6.726-1.065,9.98-3.199
							c3.255-2.134,5.642-4.828,7.16-8.083c0.832-2.893,1.88-5.334,3.146-7.322c2.387-3.76,5.967-6.238,10.741-7.431
							c1.735-0.434,3.797-0.523,6.184-0.271c2.89,0.286,5.511,0.196,7.865-0.271c2.395-0.459,4.365-1.761,5.912-3.905
							c1.584-2.144,3.084-3.175,4.502-3.091c1.414,0.111,3.673,1.54,6.78,4.285c3.109,2.749,6.509,4.122,10.198,4.122
							c5.713,0,10.559-1.735,14.536-5.207c3.472-3.038,5.208-6.147,5.208-9.33c0-0.542-0.29-1.845-0.868-3.905
							c-0.579-2.025-0.868-3.399-0.868-4.123c0-3.291,1.753-5.243,5.261-5.858c1.338-0.217,4.213-0.145,8.625,0.217
							c1.845,0.144,3.11-0.777,3.797-2.767c0.832-2.386,2.17-3.923,4.015-4.611c3.218-1.157,6.345-3.073,9.384-5.749
							c3.29-2.929,6.454-4.936,9.492-6.02c1.952-0.724,3.598-1.103,4.935-1.139c1.338,0,2.423,1.013,3.255,3.037
							c0.867,2.026,1.845,3.038,2.93,3.038c0.831,0,1.935-0.705,3.309-2.116c1.374-1.41,2.459-2.115,3.254-2.115
							c0.036,0,0.814,0.397,2.332,1.193c1.52,0.796,2.712,1.193,3.581,1.193C407.963,157.241,409.644,156.391,411.633,154.692z"/>
					</g>
				</g>
			</g>
			<g transform="matrix( 0.1480560302734375, 0.9889678955078125, -0.9889678955078125, 0.1480560302734375, 536,-165.45) ">
				<g>
					<g id="Layer0_31_FILL">
						<path style="fill:#F75959;" d="M311.37,153.489c0-3.074-0.145-5.334-0.434-6.781c-0.073-0.217-0.126-0.416-0.163-0.596
							c-3.338-2.376-5.76-4.093-7.268-5.153c-0.185,4.712-0.637,9.178-1.357,13.397c0.506,0.744,1.156,1.702,1.953,2.876
							c2.024,2.965,3.544,5.081,4.556,6.346l0.651,0.054c0.362-0.072,0.777-0.271,1.247-0.596c0.434-0.325,0.652-0.94,0.651-1.844
							C311.316,157.973,311.37,155.405,311.37,153.489 M275.787,154.14c-0.768-4.326-1.293-8.701-1.573-13.128
							c-1.482,1.059-3.869,2.758-7.16,5.099c-0.037,0.181-0.09,0.38-0.163,0.597c-0.29,1.448-0.434,3.707-0.434,6.781
							c0,1.917,0.054,4.483,0.162,7.703c0.001,0.905,0.217,1.519,0.652,1.843c0.47,0.325,0.886,0.525,1.248,0.598l0.651-0.055
							c1.012-1.266,2.531-3.381,4.556-6.347C274.589,155.959,275.277,154.928,275.787,154.14 M301.986,111.451
							c-0.109-0.29-0.217-0.561-0.325-0.814c-2.442-5.952-6.094-11.321-10.957-16.111c-1.248-1.079-2.495-1.079-3.743,0
							c-4.883,4.985-8.536,10.627-10.957,16.925c7.968-1.924,15.436-2.213,22.402-0.869
							C299.618,110.829,300.811,111.118,301.986,111.451z"/>
						
							<linearGradient id="SVGID_00000161594438929891468100000013713220533347409807_" gradientUnits="userSpaceOnUse" x1="299.2016" y1="134.388" x2="298.1962" y2="101.7276">
							<stop  offset="0.1667" style="stop-color:#EEEEEE"/>
							<stop  offset="1" style="stop-color:#D6EEEE"/>
						</linearGradient>
						<path style="fill:url(#SVGID_00000161594438929891468100000013713220533347409807_);" d="M301.986,111.451
							c-1.175-0.333-2.368-0.622-3.58-0.869c-6.966-1.344-14.434-1.055-22.402,0.869c-1.766,10.043-2.363,19.897-1.791,29.561
							c0.28,4.426,0.805,8.801,1.573,13.128c0.066,0.445,0.138,0.88,0.217,1.301c8.475,1.233,17.136,1.234,25.982,0
							c0.064-0.36,0.119-0.721,0.163-1.086c0.72-4.219,1.172-8.685,1.357-13.397C303.911,132.011,303.405,122.175,301.986,111.451z"
							/>
					</g>
				</g>
			</g>
			<g transform="matrix( 0.1482696533203125, 0.9886932373046875, -0.98870849609375, 0.1481781005859375, 536.05,-165.9) ">
				<g>
					<g id="Layer0_31_MEMBER_0_FILL">
						<path style="fill:#F75959;" d="M290.431,141.46c-1.121-0.542-2.243-0.543-3.363,0c-0.434,7.304-0.434,14.591-0.001,21.859
							c1.121,0.362,2.242,0.362,3.364,0.001C290.901,156.051,290.901,148.764,290.431,141.46z"/>
					</g>
				</g>
			</g>
		</g>
		<g style="clip-path:url(#SVGID_00000042009536704352583910000015606157217124856506_);">
			<g transform="matrix( 1, 0, 0, 1, 11.4,0) ">
				<g>
					<g id="Layer0_21_FILL">
						<path style="opacity:0.8;fill:#FFFFFF;" d="M525.245,283.843c0-0.325-0.217-0.524-0.65-0.597
							c-0.435-0.072-0.651,0.145-0.651,0.65c0,0.182,0.018,0.291,0.054,0.326c0.073,0.217,0.271,0.326,0.598,0.326
							C525.029,284.549,525.245,284.313,525.245,283.843 M509.461,271.855c0-0.76-0.398-1.139-1.194-1.139
							c-0.796,0.036-1.192,0.415-1.192,1.139c0,0.181,0.071,0.379,0.217,0.597c0.253,0.362,0.614,0.542,1.085,0.542
							c0.361,0,0.65-0.143,0.867-0.434C509.389,272.307,509.461,272.072,509.461,271.855 M545.423,245.222
							c0.362-0.218,0.542-0.416,0.542-0.597c0-0.542-0.379-0.724-1.139-0.542l-0.054,0.487l0.054,0.434L545.423,245.222
							 M544.827,254.335c0.182-0.181,0.271-0.397,0.271-0.65c0-0.941-0.397-1.446-1.193-1.52c-0.795-0.072-1.193,0.435-1.193,1.52
							l0.055,0.596c0.144,0.362,0.47,0.543,0.976,0.543C544.248,254.823,544.61,254.661,544.827,254.335 M515.373,248.531
							c-0.037,0.072-0.055,0.181-0.055,0.325c0,0.109,0.127,0.289,0.38,0.542c0.181-0.107,0.325-0.162,0.434-0.162
							c0-0.325-0.036-0.578-0.108-0.76C515.699,248.369,515.482,248.386,515.373,248.531 M524.377,238.984
							c0.361,0,0.543-0.199,0.543-0.597c0-0.578-0.235-0.777-0.706-0.597c-0.47,0.145-0.76,0.452-0.867,0.922
							C523.636,238.894,523.98,238.984,524.377,238.984 M521.937,240.287c-1.049,0.071-1.573,0.704-1.573,1.898
							c0,0.035,0.036,0.253,0.108,0.65c0.144,0.398,0.542,0.596,1.193,0.596c1.193,0,1.789-0.451,1.789-1.355
							C523.454,240.81,522.95,240.214,521.937,240.287 M495.683,195.103c0-0.361-0.163-0.543-0.488-0.543
							c-0.325,0-0.488,0.182-0.488,0.543l0.055,0.27c0.108,0.146,0.29,0.218,0.543,0.218c0.289,0,0.398-0.019,0.325-0.055
							C495.665,195.356,495.683,195.212,495.683,195.103 M487.276,196.677c0.181-0.218,0.271-0.453,0.271-0.706
							c0-0.614-0.325-0.886-0.977-0.814c-0.687,0.073-1.029,0.38-1.029,0.923c0,0.144,0.054,0.307,0.162,0.488
							c0.181,0.29,0.452,0.434,0.814,0.434C486.841,197.002,487.094,196.894,487.276,196.677 M488.089,210.398
							c0.578,0,0.867-0.271,0.867-0.814c0-0.505-0.289-0.758-0.867-0.758c-0.578,0-0.868,0.253-0.868,0.758
							C487.221,210.127,487.511,210.398,488.089,210.398 M484.239,208.391c0.65,0,0.976-0.344,0.976-1.031
							c0-0.578-0.397-0.993-1.193-1.247c-0.796-0.217-1.192,0.108-1.192,0.976l0.162,0.651
							C483.244,208.175,483.66,208.391,484.239,208.391 M465.036,198.304c-1.157,0-3.345-0.471-6.564-1.41
							c-1.917-0.543-3.454-1.085-4.61-1.627c-0.146,0.253-0.308,0.542-0.488,0.867c2.315,1.483,4.863,2.459,7.647,2.93
							c3.544,0.578,7.341,0.687,11.391,0.325c2.026-0.325,4.286,0.759,6.78,3.253c2.134,2.098,4.629,2.82,7.486,2.17
							c2.387-0.542,4.61,0.452,6.671,2.983c1.158,1.41,2.983,3.743,5.479,6.998c5.279,4.953,9.654,7.521,13.127,7.701
							c1.013,0.036,2.657-0.143,4.936-0.542c2.423-0.434,4.502-0.65,6.237-0.65c3.147,0,6.039,0.723,8.68,2.17
							c3.182,1.735,4.773,4.05,4.773,6.942c0,1.483-0.741,3.037-2.224,4.664c-0.651,0.688-2.297,2.134-4.938,4.34
							c-4.772,4.014-7.159,7.739-7.159,11.175c0,3.109,1.881,5.297,5.642,6.563c1.952,0.687,3.254,1.266,3.905,1.735
							c1.156,0.868,1.736,2.151,1.736,3.851c0,0.651-0.851,1.772-2.551,3.363c-1.807,1.7-3.94,3.291-6.399,4.773
							c-6.654,4.014-12.494,5.424-17.521,4.232c-5.605-1.303-9.311,0.017-11.12,3.96c-0.507,1.156-1.284,3.272-2.333,6.346
							c-0.867,2.531-2.603,3.743-5.207,3.634c-0.036,0.796-0.09,1.592-0.162,2.387c1.374,0.182,2.368,0.271,2.983,0.271
							c2.423,0,4.502-0.76,6.238-2.277c1.012-0.904,2.477-2.568,4.393-4.991c4.304-4.845,9.222-7.268,14.754-7.268
							c5.496,0,9.131,0.795,10.902,2.386c1.772,1.555,3.707,2.333,5.805,2.333s3.888-1.085,5.37-3.255
							c1.699-2.495,2.55-5.297,2.55-8.407c0-1.881-0.742-3.508-2.225-4.882c-1.482-1.374-2.224-2.713-2.224-4.015
							c0-1.049,0.615-2.423,1.844-4.122c1.194-1.699,1.79-2.676,1.79-2.93c0-1.591-0.542-2.621-1.627-3.091
							c-0.614-0.289-1.773-0.435-3.472-0.435c-1.699,0.036-2.874-0.108-3.525-0.434c-1.085-0.542-1.628-1.645-1.628-3.31
							c0-3.001,3.201-6.527,9.602-10.577c3.218-2.061,5.425-3.634,6.617-4.719c1.988-1.845,2.983-3.725,2.983-5.642
							c0-1.482-1.03-3.254-3.091-5.314c-2.17-2.134-4.413-3.49-6.727-4.068c-2.387-0.579-5.352-0.832-8.896-0.76
							c-3.797,0.253-6.526,0.361-8.19,0.325c-2.314-0.036-4.664-0.415-7.051-1.139c-3.726-1.085-6.51-2.784-8.354-5.1
							c-0.397-0.506-0.742-1.518-1.031-3.037c-0.289-1.446-0.669-2.35-1.139-2.711c-1.41-1.157-2.604-1.953-3.58-2.387
							c-0.904-0.398-1.881-0.597-2.93-0.597c-1.013,0-2.459,0.181-4.339,0.542c-1.845,0.325-3.073,0.488-3.69,0.488
							c-3.181,0-5.568-1.139-7.159-3.416c-1.591-2.278-3.129-3.419-4.61-3.419c-1.23,0-3.272,0.471-6.13,1.412
							C469.647,197.833,467.169,198.304,465.036,198.304z"/>
					</g>
				</g>
			</g>
			<g transform="matrix( 1, 0, 0, 1, 11.4,0) ">
				<g>
					<g id="Layer0_22_FILL">
						<path style="fill:#FFD057;" d="M477.891,267.136c0.435,0,0.651-0.217,0.651-0.651c0-0.397-0.234-0.669-0.705-0.814
							c-0.507-0.108-0.76,0.108-0.76,0.651l0.163,0.325C477.422,266.973,477.638,267.136,477.891,267.136 M495.738,309.825
							c-0.072-0.217-0.162-0.379-0.272-0.488c-0.108,0.036-0.181,0.073-0.218,0.109c-0.071,0.071-0.107,0.18-0.107,0.325
							c0,0.181,0.018,0.307,0.054,0.379c0.036,0,0.127,0.036,0.271,0.109c0.145-0.073,0.416-0.109,0.814-0.109
							C495.991,310.042,495.809,309.933,495.738,309.825 M505.393,310.91c0.471,0,0.704-0.217,0.704-0.65
							c0-0.578-0.379-0.941-1.139-1.085c-0.796-0.182-1.192,0.036-1.192,0.65c0,0.182,0.107,0.379,0.325,0.597
							C504.416,310.747,504.85,310.91,505.393,310.91 M498.938,292.846c0.614,0,0.922-0.198,0.922-0.597
							c0-0.396-0.29-0.596-0.868-0.596c-0.614-0.036-0.922,0.145-0.922,0.542l0.055,0.325
							C498.269,292.739,498.54,292.846,498.938,292.846 M508.973,287.802c0.434-0.217,0.65-0.47,0.65-0.76
							c0-0.578-0.524-0.85-1.572-0.813c-1.085,0.072-1.628,0.398-1.628,0.977c0,0.543,0.47,0.814,1.41,0.814
							C508.231,288.02,508.612,287.947,508.973,287.802 M498.72,269.251c0.036-0.18,0.055-0.325,0.055-0.433
							c0-0.361-0.162-0.507-0.487-0.435c-0.326,0.073-0.452,0.362-0.381,0.867c0.036,0,0.072,0.037,0.109,0.109
							c0.036,0.036,0.126,0.054,0.271,0.054C498.577,269.414,498.72,269.36,498.72,269.251 M504.742,270.391
							c0.326-0.254,0.488-0.471,0.488-0.651c0-0.615-0.38-0.796-1.139-0.543c-0.76,0.217-1.14,0.543-1.14,0.977
							c0,0.108,0.055,0.235,0.162,0.38c0.109,0.217,0.309,0.325,0.598,0.325C504.036,270.879,504.38,270.717,504.742,270.391
							 M489.283,253.847l-0.488-0.488c-0.108,0.035-0.181,0.071-0.217,0.107c-0.072,0.073-0.109,0.199-0.109,0.381
							c0,0.107,0.109,0.27,0.326,0.487l0.38-0.162L489.283,253.847 M487.71,256.721l-0.056-0.488
							c-0.361-0.108-0.776,0.127-1.247,0.705c-0.47,0.543-0.705,1.013-0.705,1.41c0,0.036,0.018,0.182,0.054,0.435
							c0.109,0.289,0.326,0.434,0.651,0.434C486.914,259.217,487.348,258.385,487.71,256.721 M487.981,271.638
							c-1.374-1.012-2.151-2.749-2.333-5.207c-0.181-2.459-0.126-4.34,0.164-5.642c-1.665,3.147-3.508,5.713-5.534,7.703
							c-2.169,2.024-4.719,2.802-7.647,2.331l12.692,38.134c1.518-1.085,3.815-1.628,6.889-1.628c2.387,0,5.678,0.579,9.873,1.735
							c-3.002-0.903-5.787-2.549-8.353-4.935c-2.568-2.459-3.852-5.064-3.852-7.811c0-2.53,2.152-4.683,6.454-6.455
							c1.99-0.831,4.9-1.879,8.734-3.146c-3.255-0.724-5.805-1.681-7.649-2.875c-1.988-1.265-2.983-2.621-2.983-4.068
							c0-1.663,1.085-3.508,3.255-5.532c1.483-1.446,3.093-2.55,4.828-3.309c-4.268,1.592-7.359,2.368-9.275,2.332
							C491.036,273.193,489.283,272.651,487.981,271.638z"/>
					</g>
				</g>
			</g>
			<g transform="matrix( 1, 0, 0, 1, 11.4,0) ">
				<g>
					<g id="Layer0_32_FILL">
						<path style="fill:#FFD057;" d="M483.586,201.34l0.163-0.217c-0.071-0.181-0.181-0.254-0.325-0.218
							c-0.181,0.037-0.271,0.109-0.271,0.218l0.054,0.217H483.586 M480.17,199.986c-0.218,0-0.325,0.054-0.325,0.162
							c0,0.18,0.614,0.361,1.843,0.542l0.598-0.055C481.706,200.238,481.001,200.021,480.17,199.986 M473.172,202.967v-0.271
							c-0.217-0.108-0.435-0.218-0.65-0.325c-0.326-0.036-0.488,0.054-0.488,0.27c0,0.218,0.271,0.344,0.813,0.38L473.172,202.967
							 M475.071,195.917c0-0.218-0.235-0.325-0.705-0.325c-0.506-0.036-0.759,0.071-0.759,0.325l0.054,0.217
							c0.072,0.109,0.29,0.163,0.65,0.163C474.818,196.333,475.071,196.206,475.071,195.917 M467.098,206.005
							c-0.182,0.036-0.271,0.091-0.271,0.163c0,0.072,0.054,0.126,0.162,0.162l0.217-0.055L467.098,206.005 M463.952,204.649
							c-0.471-0.361-0.706-0.307-0.706,0.163l0.326,0.434c0.289,0.253,0.524,0.38,0.705,0.38c0.253,0.036,0.38-0.018,0.38-0.163
							C464.657,205.282,464.421,205.011,463.952,204.649 M456.575,203.727c0-0.034,0.073,0.037,0.217,0.218l0.217-0.218
							c-0.108-0.181-0.217-0.253-0.325-0.217C456.611,203.546,456.575,203.619,456.575,203.727 M455.978,201.828
							c0-0.181-0.055-0.452-0.163-0.814c-0.146-0.325-0.308-0.398-0.488-0.217c-0.145,0.145-0.218,0.289-0.218,0.435
							c0,0.107,0.056,0.289,0.164,0.542c0.145,0.325,0.307,0.487,0.488,0.487C455.905,202.262,455.978,202.117,455.978,201.828
							 M466.175,191.848c-0.94-0.072-1.735-0.126-2.387-0.163l-6.184-0.108c-2.061-0.072-3.599-0.162-4.61-0.271
							c-0.398,1.267-1.03,3.4-1.898,6.402c1.265,0.686,3.163,1.808,5.695,3.361c2.531,1.483,4.357,2.441,5.479,2.876l-1.573-3.093
							c1.121,0.182,2.567,0.452,4.34,0.813c1.844,0.289,3.508,0.471,4.989,0.543l-5.424-2.603c2.459,0.108,7.215,0.271,14.266,0.487
							l-12.476-3.037l6.075-1.574c-1.41-0.361-3.182-0.65-5.315-0.868c-2.351-0.253-4.104-0.451-5.262-0.596
							C463.156,193.439,464.583,192.716,466.175,191.848 M467.423,193.368c-0.289-0.145-0.488-0.182-0.597-0.109v0.271l0.216,0.108
							C467.116,193.638,467.242,193.548,467.423,193.368 M468.345,191.848c0-0.325-0.235-0.452-0.705-0.379
							c-0.471,0.071-0.705,0.253-0.705,0.542v0.216c0.035,0.109,0.126,0.163,0.27,0.163
							C467.965,192.319,468.345,192.137,468.345,191.848 M459.503,190.872c0.254,0.037,0.38-0.108,0.38-0.434
							c0-0.217-0.126-0.325-0.38-0.325c-0.289,0.036-0.434,0.162-0.434,0.379l0.054,0.218
							C459.196,190.817,459.323,190.872,459.503,190.872z"/>
					</g>
				</g>
			</g>
			<g transform="matrix( 0.20843505859375, -0.97802734375, 0.97802734375, 0.20843505859375, 114.45,604.3) ">
				<g>
					<g id="Layer0_33_FILL">
						<path style="fill:#6EA5E2;" d="M466.337,260.519l2.493-2.928c0.019-0.054,0.019-0.11,0-0.163
							c-0.05-1.794-0.104-3.584-0.162-5.371c-2.061,0.796-3.127,1.212-3.199,1.248c-0.434,0.47-0.725,2.424-0.868,5.858
							C464.529,261.513,465.108,261.965,466.337,260.519 M481.904,259.163c-0.145-3.435-0.434-5.388-0.868-5.858
							c-0.055-0.027-1.122-0.444-3.2-1.247c-0.043,1.843-0.117,3.688-0.217,5.532l2.55,2.928
							C481.413,261.96,481.991,261.508,481.904,259.163 M468.886,223.201c2.784-0.832,5.696-0.832,8.733-0.001l-3.037-7.647
							c-0.868-1.99-1.718-1.989-2.55-0.001L468.886,223.201z"/>
						
							<linearGradient id="SVGID_00000046326568127495640160000008633080430585931952_" gradientUnits="userSpaceOnUse" x1="471.874" y1="241.5778" x2="461.3214" y2="205.8996">
							<stop  offset="0.1667" style="stop-color:#EEEEEE"/>
							<stop  offset="1" style="stop-color:#D6EEEE"/>
						</linearGradient>
						<path style="fill:url(#SVGID_00000046326568127495640160000008633080430585931952_);" d="M477.618,223.2
							c-3.037-0.831-5.949-0.831-8.733,0.001c-0.385,9.495-0.458,19.077-0.217,28.748c0.018,0.045,0.018,0.082,0,0.108
							c0.058,1.787,0.112,3.578,0.162,5.371c0.019,0.053,0.019,0.109,0,0.163c0.025,0.289,0.043,0.578,0.055,0.868l8.733-0.001
							c0.013-0.288,0.014-0.578,0-0.868c0.1-1.844,0.173-3.689,0.217-5.532C478.134,242.486,478.062,232.867,477.618,223.2z"/>
					</g>
				</g>
			</g>
			<g transform="matrix( 0.208587646484375, -0.9778289794921875, 0.97784423828125, 0.2085113525390625, 114.8,604.35) ">
				<g>
					<g id="Layer0_33_MEMBER_0_FILL">
						<path style="fill:#6EA5E2;" d="M474.527,261.946c0.216-3.436,0.216-6.871-0.001-10.306c-0.795-0.506-1.663-0.507-2.604,0
							c-0.326,3.435-0.325,6.87,0,10.305C472.789,262.38,473.657,262.379,474.527,261.946z"/>
					</g>
				</g>
			</g>
		</g>
		<g style="clip-path:url(#SVGID_00000042009536704352583910000015606157217124856506_);">
			<g transform="matrix( -1, 0, 0, 1, 717.7,0) ">
				<g>
					<g id="Layer0_18_FILL">
						<path style="fill:#FFDCCB;" d="M145.634,318.721c-1.59-7.197-3.255-15.315-4.989-24.355
							c-1.121-5.895-1.989-10.577-2.604-14.049c-6.689,1.736-12.006,3.254-15.946,4.557c0.687,3.868,2.06,10.107,4.122,18.713
							c2.857,12.079,5.171,20.287,6.942,24.627c1.085,1.735,1.683,2.658,1.79,2.766c0.072,0.072,0.941,0.254,2.605,0.543
							c1.59,0.253,9.401-0.253,23.433-1.52l32.328-3.634c2.351,2.098,3.851,3.11,4.503,3.037c0.396-0.035,0.939-0.234,1.627-0.596
							c0.434-0.036,1.121-0.199,2.061-0.488c0.542-0.181,1.03-0.308,1.465-0.38l0.76,0.76c1.012,0.796,1.971,1.192,2.874,1.192
							c1.121,0,1.827-0.181,2.116-0.542c0.289-0.072,0.434-0.308,0.434-0.705c0-0.795-1.049-1.735-3.146-2.82
							c-0.651-0.361-1.211-0.597-1.682-0.706c0.036-0.072,0.072-0.107,0.108-0.107c0.578-0.182,1.319-0.453,2.224-0.814
							c1.085,0.182,2.297,0.145,3.635-0.107c-0.036,0.65,0.18,1.301,0.65,1.952c0.072,0.072,0.145,0.162,0.217,0.271
							c-0.578,0.325-0.903,0.76-0.977,1.302c-0.072,0.325-0.09,0.633-0.054,0.922c0,0.471,0,0.724,0,0.76l0.542,0.217
							c0.578,0,1.41-0.452,2.495-1.355c0.76-0.616,1.357-1.049,1.79-1.303c-0.036-0.253-0.09-0.506-0.163-0.76
							c0.362-0.181,0.598-0.47,0.706-0.867c0.072-0.072,0.126-0.289,0.163-0.651c0.361-0.723-0.019-1.718-1.14-2.983
							c-1.482-1.482-2.585-2.621-3.309-3.417l-0.922-0.76c-0.289,0-0.832,0.163-1.628,0.488c-0.795,0.29-1.374,0.633-1.736,1.031
							c-0.687-0.398-1.139-0.615-1.355-0.651c-0.072,0.036-0.126,0.073-0.162,0.109c-4.015,1.338-7.395,2.295-10.145,2.874
							c-10.306-1.446-19.78-2.278-28.422-2.495C157.585,318.522,150.515,318.504,145.634,318.721z"/>
					</g>
				</g>
			</g>
			<g transform="matrix( 1, 0, 0, 1, 16.4,0) ">
				<g>
					<g id="Layer0_19_FILL">
						<path style="fill:#FF7D7D;" d="M643.213,248.043c-6.414-0.978-12.959-1.447-19.636-1.41
							c-6.647,0.076-15.109,0.348-25.386,0.813c-10.269,0.501-16.019,5.166-17.249,13.995c-1.664,12.097-4.937,41.983-9.817,89.662
							h58.854c3.026-54.358,4.925-83.939,5.695-88.74c0.824-4.91,1.945-8.219,3.362-9.927c1.448-1.666,4.27-2.751,8.462-3.255
							C646.272,248.685,644.843,248.306,643.213,248.043z"/>
						<path style="fill:#F75959;" d="M651.947,260.302c0.785-5.828-0.697-9.534-4.448-11.12c-4.192,0.504-7.014,1.589-8.462,3.255
							c-1.417,1.708-2.538,5.017-3.362,9.927c-0.771,4.802-2.669,34.382-5.695,88.74h17.791c0.629-35.318,1.279-57.611,1.952-66.881
							C650.457,274.106,651.199,266.134,651.947,260.302z"/>
					</g>
				</g>
			</g>
			<g transform="matrix( 1, 0, 0, 1, 11.4,0) ">
				<g>
					<g id="Layer0_20_FILL">
						<path style="fill:#8C8D8E;" d="M631.073,258.729c-3.037-1.267-6.31-2.459-9.817-3.581c-3.508-1.157-8.408-2.567-14.7-4.23
							c1.302,1.41,1.5,3.309,0.597,5.695c-0.903,2.351-2.134,4.285-3.689,5.804c-1.555,1.52-2.839,2.532-3.852,3.037
							c-1.013,0.471-2.314,0.58-3.905,0.326c-1.555-0.253-2.712-1.355-3.472-3.31c-0.724-1.988-1.085-4.284-1.085-6.888
							c0-1.989,0.688-3.327,2.063-4.015c0.107-0.072,0.216-0.126,0.325-0.162c-7.595,1.988-12.06,3.128-13.399,3.417
							c-0.144,0.036-1.41,0.416-3.797,1.139c-1.192,2.314-2.296,4.936-3.309,7.865c-1.265,3.689-4.248,12.007-8.949,24.951
							c1.266,0.327,2.82,0.742,4.664,1.248c3.399-8.643,6.076-15.676,8.028-21.101c-0.361,3.797-0.796,8.986-1.302,15.568
							c-0.181,2.097-0.471,4.502-0.868,7.214c-1.916,13.634-6.654,35.204-14.211,64.712l61.674,3.255
							c4.98-24.45,7.783-46.634,8.407-66.557C631.1,273.232,631.299,261.769,631.073,258.729z"/>
						<path style="fill:#797979;" d="M575.474,284.494c0.506-6.582,0.94-11.771,1.302-15.568
							c-1.952,5.425-4.629,12.458-8.028,21.101c0.289,0.072,0.58,0.146,0.869,0.218c1.916,0.542,3.579,1.03,4.989,1.464
							C575.003,288.996,575.293,286.591,575.474,284.494z"/>
						<path style="fill:#FFDCCB;" d="M607.531,231.607c-1.482,0.47-3.615,1.121-6.399,1.953c-2.532,0.76-4.521,1.374-5.967,1.844
							c0,1.229-0.019,2.82-0.054,4.773c-0.073,4.05-0.235,7.685-0.489,10.902c-0.325,0.073-0.651,0.163-0.977,0.271l-0.107,0.055
							c-0.109,0.036-0.218,0.09-0.325,0.162c-1.375,0.688-2.063,2.025-2.063,4.015c0,2.604,0.361,4.899,1.085,6.888
							c0.76,1.954,1.917,3.057,3.472,3.31c1.592,0.254,2.893,0.145,3.905-0.326c1.013-0.505,2.297-1.518,3.852-3.037
							c1.555-1.519,2.785-3.453,3.689-5.804c0.903-2.387,0.705-4.285-0.597-5.695c0.144-0.182,0.361-3.146,0.65-8.896
							C607.423,238.224,607.531,234.753,607.531,231.607z"/>
					</g>
				</g>
			</g>
			<g transform="matrix( 1, 0, 0, 1, 11.4,0) ">
				<g>
					<g id="Layer0_25_FILL">
						
							<linearGradient id="SVGID_00000048496992926820603380000006111749604745923222_" gradientUnits="userSpaceOnUse" x1="596.6041" y1="198.2094" x2="591.0295" y2="129.4598">
							<stop  offset="0" style="stop-color:#6C6966"/>
							<stop  offset="1" style="stop-color:#6190B5"/>
						</linearGradient>
						<path style="fill:url(#SVGID_00000048496992926820603380000006111749604745923222_);" d="M620.875,171.561
							c0.95-3.561-0.007-6.165-2.875-7.811v5.533c-1.988-3.11-5.081-5.063-9.275-5.858c-2.784-0.542-6.438-0.814-10.958-0.814
							c-5.821,0-10.232,0.235-13.234,0.706c-3.399,0.542-5.768,1.482-7.106,2.82c1.168,0.514,2.234,1.128,3.201,1.845
							c0.321,0.237,0.61,0.454,0.867,0.65c-5.948,1.023-11.445,4.186-16.489,9.492c-5.014,5.313-7.798,9.978-8.354,13.996
							c-0.371,2.968-0.39,5.844-0.054,8.624c1.846-1.886,3.311-3.477,4.394-4.773c0.24,5.796,1.361,10.786,3.362,14.97
							c1.628,3.432,3.002,5.908,4.122,7.432c0.028-2.328,0.118-4.787,0.271-7.376c0.157-2.405,0.302-4.738,0.435-6.998
							c6.383-0.771,12.332-2.325,17.846-4.664c4.276-1.837,7.387-3.61,9.329-5.316c-0.913,1.528-2.105,3.391-3.579,5.587
							c-1.098,1.623-1.911,2.816-2.441,3.579l2.495,0.162c3.797,0,8.154-0.868,13.072-2.604c1.494-0.53,2.904-1.09,4.232-1.68
							c1.379,1.188,3.007,2.563,4.882,4.121c0.832,0.687,1.248,1.121,1.248,1.302c0,0.361-0.199,1.519-0.598,3.47
							c-0.397,1.954-0.597,3.256-0.597,3.906c0,0.686,0.254,2.206,0.76,4.557c0.356,1.779,0.573,2.973,0.65,3.58
							c1.223-2.378,2.47-4.584,3.743-6.618c3.07-0.02,5.438,0.613,7.105,1.898c0.615,0.398,1.122,0.887,1.52,1.465
							c0.14,0.185,0.266,0.365,0.379,0.542c0.873-0.887,2.031-2.623,3.472-5.207c1.475-2.575,2.523-4.926,3.146-7.05
							c0.619-2.133,0.926-4.14,0.922-6.021c0-6.039-1.284-11.824-3.851-17.358C629.879,175.141,625.866,171.779,620.875,171.561
							 M614.8,235.512c0.914-0.713,1.962-1.617,3.147-2.712c1.012-0.947,1.897-1.814,2.658-2.605c-0.007,0-0.025,0-0.056,0
							c-1.265,0-2.368-0.126-3.309-0.379C616.693,231.885,615.879,233.784,614.8,235.512z"/>
						<path style="fill:#FFE9D4;" d="M590.336,203.185c0.53-0.763,1.344-1.956,2.441-3.579c1.474-2.196,2.666-4.059,3.579-5.587
							c-1.942,1.706-5.053,3.479-9.329,5.316c-5.514,2.339-11.463,3.893-17.846,4.664c-0.133,2.259-0.277,4.592-0.435,6.998
							c-0.153,2.589-0.243,5.048-0.271,7.376c-0.074,5.879,0.252,10.905,0.977,15.079c1.016,5.82,2.86,9.816,5.532,11.988
							c2.666,2.212,6.824,3.152,12.476,2.82c5.688-0.296,10.786-1.435,15.297-3.418c4.553-1.95,8.024-4.319,10.414-7.105
							c0.597-0.707,1.139-1.449,1.628-2.224c1.079-1.729,1.893-3.627,2.44-5.695c0.94,0.253,2.044,0.379,3.309,0.379
							c0.03,0,0.049,0,0.056,0c0.967-0.005,1.89-0.095,2.766-0.27c1.121-0.181,2.151-0.506,3.092-0.977
							c2.712-1.23,4.067-3.254,4.067-6.075c0-2.279-0.433-4.142-1.302-5.587c-0.113-0.177-0.239-0.357-0.379-0.542
							c-0.397-0.578-0.904-1.066-1.52-1.465c-1.667-1.285-4.035-1.918-7.105-1.898c-1.273,2.034-2.521,4.24-3.743,6.618
							c-0.077-0.607-0.294-1.801-0.65-3.58c-0.506-2.351-0.76-3.87-0.76-4.557c0-0.65,0.199-1.952,0.597-3.906
							c0.398-1.952,0.598-3.109,0.598-3.47c0-0.181-0.416-0.615-1.248-1.302c-1.875-1.559-3.503-2.933-4.882-4.121
							c-1.327,0.59-2.737,1.149-4.232,1.68c-4.918,1.735-9.275,2.604-13.072,2.604L590.336,203.185z"/>
					</g>
				</g>
			</g>
			<g transform="matrix( 1, 0, 0, 1, 11.4,0) ">
				<g>
					<g id="Layer0_25_MEMBER_0_FILL">
						<path style="fill:#727272;" d="M576.234,207.143c-1.013,0-1.863,0.345-2.549,1.031c-0.724,0.724-1.085,1.591-1.085,2.604
							s0.361,1.862,1.085,2.549c0.685,0.724,1.536,1.085,2.549,1.085s1.88-0.361,2.604-1.085c0.687-0.687,1.03-1.536,1.03-2.549
							s-0.344-1.88-1.03-2.604C578.114,207.488,577.246,207.143,576.234,207.143 M596.032,207.143c-1.013,0-1.862,0.345-2.549,1.031
							c-0.724,0.724-1.085,1.591-1.085,2.604s0.361,1.862,1.085,2.549c0.687,0.724,1.536,1.085,2.549,1.085
							c1.013,0,1.863-0.361,2.55-1.085c0.688-0.687,1.03-1.536,1.03-2.549s-0.343-1.88-1.03-2.604
							C597.895,207.488,597.044,207.143,596.032,207.143z"/>
					</g>
				</g>
				<g>
					<path id="Layer0_25_MEMBER_0_1_STROKES" style="fill:none;stroke:#F7C5BF;stroke-linecap:round;stroke-linejoin:round;" d="
						M583.285,215.985c-0.723,1.121-1.519,2.044-2.387,2.767c-0.542,0.434-0.813,0.887-0.813,1.355c0,0.905,0.507,1.736,1.519,2.495
						c1.049,0.869,2.17,1.104,3.362,0.706 M577.535,229.763c0.687,1.518,1.519,2.622,2.495,3.309
						c1.156,0.795,2.784,1.192,4.882,1.192c1.988,0,3.797-0.397,5.424-1.192c1.482-0.76,2.947-1.935,4.394-3.526"/>
				</g>
			</g>
			<g transform="matrix( 0.997283935546875, 0.073638916015625, -0.073638916015625, 0.997283935546875, 36.5,-42.95) ">
				<g>
					<g id="Layer0_29_FILL">
						<path style="fill:#FFE9D4;" d="M625.786,280.168c-2.924-2.082-6.902-4.974-11.933-8.679c-2.808,5.918-4.942,10.293-6.4,13.127
							c-3.037,5.851-5.913,10.191-8.624,13.018c-2.666-3.526-5.957-8.407-9.873-14.645c-7.619-12.204-12.409-20.792-14.374-25.766
							c0.287-0.535,0.793-1.331,1.519-2.387c0.501-0.715,0.971-1.365,1.41-1.952c-0.008-1.824-0.027-3.27-0.054-4.339
							c-0.534-0.406-1.023-1.147-1.464-2.225c-0.486-1.229-0.704-2.422-0.651-3.579c-0.51,0.246-1.071,0.644-1.682,1.193
							c-0.741,0.648-1.175,1.264-1.302,1.845c-0.391-0.604-1.368-1.725-2.928-3.363c-1.27,0.701-2.519,1.641-3.743,2.82
							c-1.218,1.181-2.465,2.899-3.743,5.152c-0.08,1.575-0.046,2.786,0.11,3.635c0.19,0.845,0.714,2.11,1.572,3.798
							c0.926,0.908,2.482,1.993,4.664,3.253c2.361,9.487,5.507,18.437,9.44,26.851c4.016,8.56,7.47,15.125,10.36,19.69
							c0.393,1.068,0.973,2.081,1.736,3.037c1.127,1.401,2.645,2.721,4.557,3.96c0.795,0.511,1.537,0.945,2.222,1.302
							c1.583,0.104,3.536,0.177,5.859,0.218c3.003-1.83,6.023-4.506,9.058-8.029C616.372,302.475,621.128,293.163,625.786,280.168z"
							/>
					</g>
				</g>
			</g>
			<g transform="matrix( 1, 0, 0, 1, 11.4,0) ">
				<g>
					<g id="Layer0_30_FILL">
						<path style="fill:#A1A1A1;" d="M630.747,258.674c-1.244-0.008-1.932-0.044-2.062-0.107c-0.101-0.064-0.933,0.098-2.495,0.488
							c-1.562,0.388-3.117,1.454-4.665,3.2c-1.507,1.747-3.875,4.621-7.105,8.624c-3.239,4.043-5.392,7.225-6.455,9.547
							c5.82,4.556,12.274,8.643,19.364,12.259c4.882-8.261,7.792-14.282,8.734-18.063c0.974-3.746,1.19-6.657,0.65-8.732
							c-0.502-2.07-1.298-3.787-2.387-5.153C633.231,259.399,632.037,258.712,630.747,258.674z"/>
					</g>
				</g>
			</g>
		</g>
		<g style="clip-path:url(#SVGID_00000042009536704352583910000015606157217124856506_);">
			<g transform="matrix( 1, 0, 0, 1, 603.4,154.25) ">
				<g>
					<g id="Layer0_0_FILL">
						<path style="fill:#299E7F;" d="M65.754,163.513c-1.953,9.293-3.327,16.544-4.122,21.751
							c-1.085,7.448-1.628,16.435-1.628,26.958c0,18.334,0.976,30.539,2.929,36.613c2.061,6.293,7.052,14.32,14.972,24.084
							c3.797-14.139,6.165-23.793,7.105-28.966c0.976-5.532,1.464-9.926,1.464-13.18c0-11.681-3.236-26.959-9.709-45.835
							C70.942,167.798,67.271,160.656,65.754,163.513z"/>
					</g>
				</g>
			</g>
			<g transform="matrix( 1, 0, 0, 1, 603.4,154.25) ">
				<g>
					<g id="Layer0_1_FILL">
						<path style="fill:#28826A;" d="M128.458,182.66c-11.246,4.268-19.727,10.108-25.44,17.521
							c-5.713,7.413-9.185,14.086-10.414,20.017c-1.229,5.895-4.557,12.583-9.98,20.069c-5.425,7.485-8.263,14.682-8.516,21.588
							c-0.218,6.871-0.091,12.856,0.379,17.955c0.435,5.098,1.085,10.56,1.953,16.381c0.867,5.714,1.193,10.324,0.977,13.832
							c-0.145,3.472-0.182,5.642-0.109,6.509c0.037,0.471,0.019,0.978-0.054,1.52c1.193-0.073,2.351-0.146,3.472-0.217
							c0-7.993-0.325-15.242-0.977-21.751c-0.759-7.921,0.344-14.303,3.31-19.148c3.073-4.846,5.586-8.209,7.539-10.089
							c1.989-1.953,4.339-4.646,7.051-8.083c2.713-3.472,4.575-7.376,5.588-11.716c1.013-4.375,2.929-8.172,5.749-11.391
							c2.821-3.255,5.534-6.907,8.137-10.958c2.605-4.05,4.521-8.858,5.749-14.428c1.231-5.461,2.044-9.928,2.441-13.398
							C125.673,193.4,126.722,188.663,128.458,182.66z"/>
					</g>
				</g>
			</g>
			<g transform="matrix( 1, 0, 0, 1, 603.4,154.25) ">
				<g>
					<g id="Layer0_2_FILL">
						<path style="fill:#28826A;" d="M72.316,255.616c-0.578-4.158-2.098-9.781-4.556-16.869
							c-2.314-6.509-4.213-11.028-5.696-13.561c-6.545-10.992-12.891-19.635-19.039-25.928
							c-6.653-6.835-14.428-11.644-23.324-14.429c2.061,5.858,3.309,10.668,3.743,14.429c0.361,2.893,1.013,6.744,1.953,11.554
							c0.867,4.773,3.236,9.727,7.105,14.862c3.833,5.1,6.49,10.217,7.974,15.352c1.446,5.061,2.91,8.552,4.393,10.468
							c1.446,1.881,4.248,4.557,8.408,8.028c3.218,2.567,5.857,4.773,7.919,6.617c2.062,1.809,4.683,5.01,7.865,9.602
							c3.146,4.629,4.664,10.903,4.557,18.822c-0.145,6.581,0.09,13.85,0.704,21.805c1.049-0.036,2.116-0.054,3.201-0.054
							c-0.072-0.542-0.108-1.049-0.108-1.519c0-0.868-0.199-3.019-0.597-6.455c-0.435-3.472-0.471-8.1-0.109-13.886
							c0.362-5.822,0-11.772-1.085-17.846C74.541,270.533,73.437,263.537,72.316,255.616z"/>
					</g>
				</g>
			</g>
			<g transform="matrix( 1, 0, 0, 1, 0,0) ">
				<g>
					<g id="Layer0_3_FILL">
						
							<linearGradient id="SVGID_00000028283508939156562180000014590875208510106537_" gradientUnits="userSpaceOnUse" x1="654.0734" y1="448.6775" x2="705.4963" y2="448.6775">
							<stop  offset="0" style="stop-color:#6190B5"/>
							<stop  offset="0.145" style="stop-color:#64849D"/>
							<stop  offset="0.3306" style="stop-color:#687885"/>
							<stop  offset="0.5273" style="stop-color:#6A7073"/>
							<stop  offset="0.7404" style="stop-color:#6C6B69"/>
							<stop  offset="1" style="stop-color:#6C6966"/>
						</linearGradient>
						<path style="fill:url(#SVGID_00000028283508939156562180000014590875208510106537_);" d="M654.073,422.559l5.316,52.236h40.79
							l5.316-52.236H654.073z"/>
						<path style="fill:#D2D2D2;" d="M708.912,422.559v-6.727h-58.039v6.727h3.2h51.423H708.912z"/>
					</g>
				</g>
			</g>
		</g>
		
			<g transform="matrix( 1, 0, 0, 1, 7.2,3.3) " style="clip-path:url(#SVGID_00000042009536704352583910000015606157217124856506_);">
			<g>
				<g id="Layer0_7_FILL">
					<path style="fill:#A6A6A6;" d="M178.928,323.991v5.695h48.601v-5.695H178.928z"/>
					<path style="fill:#878787;" d="M152.729,323.991v5.695h26.199v-5.695H152.729z"/>
				</g>
			</g>
		</g>
		<g style="clip-path:url(#SVGID_00000042009536704352583910000015606157217124856506_);">
			<g transform="matrix( 1, 0, 0, 1, 15.85,0.3) ">
				<g>
					<g id="Layer0_5_FILL">
						<path style="fill:#A6A6A6;" d="M41.235,254.035c2.532-0.217,4.322,0.795,5.371,3.038c1.049,2.242,1.808,5.75,2.278,10.523
							c0.181,1.953,0.379,5.769,0.597,11.446c0.145,3.073,0.307,7.213,0.488,12.42c0.29,6.076-0.94,9.692-3.689,10.849
							c-0.63,0.281-1.227,0.444-1.79,0.488c4.944-0.255,10.91-0.743,17.9-1.464c2.459-0.253,9.782-0.923,21.968-2.008
							c11.391-1.085,18.009-1.971,19.853-2.657c2.712-1.049,3.924-4.393,3.634-10.034c-0.181-5.208-0.343-9.349-0.488-12.422
							c-0.217-5.678-0.416-9.492-0.597-11.445c-0.506-4.81-1.265-8.317-2.277-10.523c-0.94-1.952-2.423-2.965-4.448-3.037
							c-3.399-0.253-8.317-0.271-14.754-0.055c-6.111,0.217-12.241,0.562-18.389,1.03C55.113,251.142,46.561,252.426,41.235,254.035
							z"/>
						<path style="fill:#878787;" d="M46.606,257.073c-1.049-2.243-2.839-3.255-5.371-3.038c-0.036,0-0.072,0-0.108,0
							c-3.11,0.688-5.026,4.087-5.749,10.197c-0.289,2.568-0.362,6.51-0.217,11.826c0.109,5.496,0.398,9.835,0.868,13.018
							c0.723,4.665,1.935,8.316,3.634,10.957c1.302,1.988,2.893,2.911,4.773,2.766h0.054c0.563-0.044,1.159-0.207,1.79-0.488
							c2.749-1.156,3.979-4.772,3.689-10.849c-0.181-5.207-0.344-9.347-0.488-12.42c-0.217-5.678-0.416-9.493-0.597-11.446
							C48.413,262.823,47.654,259.315,46.606,257.073z"/>
					</g>
				</g>
			</g>
			<g transform="matrix( 1, 0, 0, 1, 16.2,5.3) ">
				<g>
					<g id="Layer0_6_FILL">
						<path style="fill:#FFDCCB;" d="M113.407,289.066c-1.121-5.895-1.989-10.577-2.604-14.049
							c-6.69,1.736-12.006,3.254-15.947,4.557c0.687,3.868,2.061,10.107,4.123,18.713c2.857,12.079,5.171,20.287,6.943,24.627
							c1.085,1.735,1.682,2.658,1.79,2.766c0.073,0.072,0.94,0.254,2.604,0.543c1.591,0.253,9.402-0.253,23.433-1.52l32.328-3.634
							c2.351,2.098,3.852,3.11,4.502,3.037c0.392-0.045,0.934-0.244,1.627-0.596c0.448-0.028,1.135-0.191,2.061-0.488
							c0.537-0.18,1.007-0.306,1.41-0.38l0.813,0.76c1.013,0.796,1.971,1.192,2.875,1.192c1.116,0,1.803-0.181,2.062-0.542
							c0.325-0.056,0.488-0.291,0.488-0.705c0-0.795-1.049-1.735-3.146-2.82c-0.661-0.348-1.221-0.6-1.681-0.76
							c0.035-0.022,0.071-0.059,0.108-0.108c0.566-0.151,1.308-0.423,2.225-0.813c1.08,0.2,2.292,0.183,3.634-0.054
							c-0.037,0.65,0.181,1.301,0.65,1.952c0.073,0.072,0.145,0.162,0.217,0.272c-0.579,0.325-0.904,0.76-0.976,1.302
							c-0.073,0.325-0.091,0.633-0.055,0.922c0,0.471,0,0.724,0,0.76l0.542,0.217c0.579,0,1.411-0.452,2.495-1.355
							c0.759-0.616,1.356-1.049,1.79-1.303c-0.036-0.253-0.09-0.506-0.163-0.76c0.361-0.181,0.597-0.47,0.705-0.867
							c0.072-0.072,0.127-0.289,0.163-0.651c0.362-0.723-0.018-1.718-1.139-2.983c-1.483-1.482-2.586-2.621-3.309-3.417l-0.922-0.76
							c-0.29,0-0.832,0.163-1.627,0.488c-0.795,0.29-1.375,0.633-1.736,1.031c-0.687-0.399-1.139-0.615-1.356-0.651
							c-0.073,0.036-0.126,0.073-0.163,0.109c-4.014,1.338-7.395,2.295-10.143,2.874c-10.306-1.446-19.78-2.278-28.423-2.495
							c-9.257-0.253-16.327-0.271-21.208-0.054C116.807,306.224,115.143,298.106,113.407,289.066z"/>
					</g>
				</g>
			</g>
			<g transform="matrix( 1, 0, 0, 1, 15.55,-0.75) ">
				<g>
					<g id="Layer0_9_FILL">
						<path style="fill:#A6A6A6;" d="M121.272,331.512c-0.072,0.253-0.108,0.488-0.108,0.706c0,0.253,0.019,0.506,0.054,0.759
							h25.548v-2.44c-0.579-1.338-2.152-2.604-4.719-3.797c-2.82-1.338-5.858-2.008-9.113-2.008c-1.229,0-2.839,0.688-4.827,2.061
							C124.165,329.542,121.886,331.115,121.272,331.512z"/>
					</g>
				</g>
			</g>
			<g transform="matrix( 1, 0, 0, 1, 15.55,2.4) ">
				<g>
					<g id="Layer0_8_FILL">
						<path style="fill:#86BCEC;" d="M110.098,287.844c0.286-0.077,0.557-0.149,0.813-0.218c-3.379-8.641-6.037-15.674-7.974-21.101
							c0.344,3.784,0.779,8.974,1.302,15.568c0.167,2.083,0.438,4.469,0.813,7.16C106.495,288.838,108.176,288.369,110.098,287.844z
							"/>
						<path style="fill:#A2CEF5;" d="M58.459,252.693c-3.493,1.154-6.765,2.366-9.817,3.636c-1.136,3.117-1.896,14.653-2.278,34.605
							c-0.343,19.989,3.418,42.102,11.282,66.34l61.674-3.255c-7.548-29.5-12.304-51.089-14.266-64.766
							c-0.375-2.691-0.647-5.077-0.813-7.16c-0.523-6.595-0.958-11.784-1.302-15.568c1.937,5.427,4.595,12.46,7.974,21.101
							c1.892-0.514,3.447-0.948,4.665-1.302c-4.681-12.919-7.664-21.235-8.95-24.951c-0.978-2.895-2.063-5.498-3.254-7.811
							c-2.375-0.728-3.64-1.108-3.797-1.14c-1.355-0.277-5.876-1.453-13.561-3.526c0.18,0.086,0.343,0.158,0.488,0.218
							c1.375,0.707,2.062,2.064,2.062,4.068c0,2.604-0.362,4.899-1.085,6.889c-0.76,1.953-1.916,3.056-3.472,3.309
							c-1.591,0.254-2.893,0.145-3.905-0.325c-1.013-0.506-2.296-1.519-3.852-3.038c-1.555-1.519-2.784-3.453-3.688-5.804
							c-0.904-2.387-0.705-4.285,0.597-5.695C66.855,250.186,61.955,251.577,58.459,252.693z"/>
						<path style="fill:#FFDCCB;" d="M78.583,231.16c-2.784-0.832-4.918-1.483-6.4-1.953c0,3.145,0.108,6.617,0.326,10.414
							c0.289,5.75,0.506,8.715,0.65,8.896c-1.302,1.41-1.5,3.309-0.597,5.695c0.904,2.351,2.134,4.285,3.688,5.804
							c1.555,1.52,2.839,2.532,3.852,3.038c1.012,0.47,2.314,0.579,3.905,0.325c1.555-0.253,2.712-1.355,3.472-3.309
							c0.723-1.989,1.085-4.285,1.085-6.889c0-2.005-0.687-3.361-2.062-4.068c-0.146-0.059-0.308-0.132-0.488-0.218
							c-0.272-0.086-0.58-0.157-0.922-0.216c-0.252-3.219-0.415-6.854-0.488-10.903c-0.036-1.953-0.054-3.544-0.054-4.773
							C83.103,232.534,81.114,231.92,78.583,231.16z"/>
					</g>
				</g>
			</g>
			<g transform="matrix( 1.14459228515625, 0, 0, 1.14459228515625, 5.15,-56.45) ">
				<g>
					<g id="Layer0_10_FILL">
						<path style="fill:#FFE9D4;" d="M62.71,297.382c-5.826,1.534-10.455,2.871-13.886,4.014c0.623,3.357,1.834,8.8,3.634,16.327
							c2.487,10.554,4.494,17.715,6.021,21.48c0.991,1.57,1.515,2.384,1.573,2.441c0.072,0.068,0.813,0.212,2.224,0.434
							c1.448,0.266,8.301-0.149,20.558-1.248l28.206-3.199c2.063,1.844,3.365,2.729,3.905,2.657c0.573-0.07,1.46-0.485,2.658-1.247
							c1.199-0.724,2.157-1.52,2.875-2.386c0.758-0.831,1.174-1.229,1.248-1.193c1.157,0.397,2.55,0.451,4.177,0.162
							c-0.036,0.579,0.145,1.158,0.542,1.736c0.073,0.073,0.145,0.144,0.217,0.217c-0.506,0.289-0.796,0.669-0.868,1.139
							c-0.073,0.289-0.091,0.561-0.055,0.814c0,0.398,0,0.614,0,0.651l0.488,0.216c0.506,0,1.229-0.397,2.169-1.193
							c0.651-0.543,1.176-0.921,1.573-1.138c-0.036-0.218-0.09-0.434-0.163-0.652c0.326-0.181,0.542-0.434,0.651-0.759
							c0.036-0.072,0.073-0.27,0.109-0.596c0.723,0.759,1.392,1.212,2.007,1.356c0.073,0.036,0.145,0.073,0.217,0.109
							c0.578,0.325,1.067,0.668,1.465,1.03c0.253,0.108,0.777,0.163,1.573,0.163c0.072,0,0.126,0,0.163,0
							c0.831-0.036,1.537-0.525,2.116-1.465c-0.434-0.073-1.139-0.416-2.116-1.03c-0.108-0.108-0.235-0.2-0.38-0.271
							c-0.072-0.037-0.127-0.091-0.163-0.163c-0.94-0.615-1.699-1.248-2.278-1.898c-0.326-0.181-0.615-0.362-0.869-0.543
							c-0.542-0.398-0.976-0.795-1.302-1.193c-1.265-1.483-2.206-2.134-2.82-1.953c-0.47,0.144-0.904,0.289-1.302,0.433
							l-0.977-0.813c-0.253,0-0.723,0.144-1.41,0.434c-0.723,0.253-1.23,0.542-1.519,0.867c-0.615-0.325-1.013-0.506-1.194-0.543
							c-0.072,0.037-0.126,0.073-0.163,0.109c-3.508,1.157-6.455,1.989-8.842,2.495c-9.009-1.247-17.308-1.971-24.898-2.17
							c-8.07-0.216-14.237-0.252-18.496-0.108c-1.391-6.245-2.837-13.315-4.339-21.209C64.061,304.533,63.284,300.428,62.71,297.382
							z"/>
					</g>
				</g>
			</g>
			<g transform="matrix( 0.9019317626953125, 0, 0, 0.9019317626953125, 24.7,32.6) ">
				<g>
					<g id="Layer0_11_FILL">
						
							<linearGradient id="SVGID_00000168812722201727888820000005131349015040407936_" gradientUnits="userSpaceOnUse" x1="86.6401" y1="183.2607" x2="87.5692" y2="143.3121">
							<stop  offset="0.129" style="stop-color:#FFBB54"/>
							<stop  offset="1" style="stop-color:#FFED59"/>
						</linearGradient>
						<path style="fill:url(#SVGID_00000168812722201727888820000005131349015040407936_);" d="M58.474,222.977
							c2.534,2.334,4.668,3.798,6.401,4.393c-1.923-2.477-3.279-5.388-4.068-8.733c-0.977,0.29-2.097,0.435-3.363,0.435
							c-0.999,0-1.957-0.091-2.875-0.272C55.517,220.091,56.819,221.484,58.474,222.977 M108.594,172.966
							c0.181-0.036,0.38-0.073,0.597-0.109c2.134-0.325,4.394-0.686,6.781-1.084c4.267-1.301,7.015-2.495,8.245-3.581
							c1.193-1.084,2.351-2.314,3.472-3.688c1.121-1.374,2.26-4.81,3.417-10.306c0.795-3.761,1.085-8.029,0.868-12.801
							c-2.17,4.339-15.55,5.134-40.14,2.387c-15.767-1.665-24.048-2.496-24.843-2.496c-4.05,0-6.871,0.381-8.462,1.14
							c-2.387,1.121-4.303,3.507-5.75,7.16c-4.593,1.59-7.413,3.363-8.462,5.315c-1.229,2.242-1.844,7.232-1.844,14.972
							c0,2.821,0.397,6.925,1.193,12.313c0.651,4.592,1.284,8.136,1.899,10.63c0.398,1.555,1.555,5.334,3.471,11.337
							c0.398-0.615,0.886-1.157,1.465-1.629c1.953-1.589,4.827-2.295,8.625-2.115c0.397,1.193,0.94,2.278,1.627,3.255
							c0.832,0.832,1.754,0.669,2.766-0.489c0-1.12,0-1.861,0-2.223c0-0.615,0.416-2.477,1.247-5.587
							c0.796-3.109,1.193-4.88,1.193-5.316c-1.302-0.832-2.603-1.7-3.905-2.603c-1.157-0.832-2.206-1.664-3.146-2.495
							c1.411-2.748,2.55-5.044,3.418-6.889c1.736-3.616,2.603-6.075,2.603-7.377h1.356c3.254,1.266,6.256,2.188,9.004,2.766
							c4.303,0.905,9.258,1.357,14.862,1.357C94.455,174.81,100.602,174.196,108.594,172.966z"/>
						<path style="fill:#FFE9D4;" d="M66.285,170.687h-1.356c0,1.303-0.868,3.761-2.603,7.377c-0.868,1.845-2.007,4.141-3.418,6.889
							c0.94,0.831,1.99,1.663,3.146,2.495c1.302,0.903,2.603,1.771,3.905,2.603c0,0.435-0.397,2.207-1.193,5.316
							c-0.832,3.11-1.247,4.972-1.247,5.587c0,0.362,0,1.103,0,2.223c-1.013,1.159-1.935,1.321-2.766,0.489
							c-0.687-0.977-1.23-2.062-1.627-3.255c-3.797-0.181-6.672,0.525-8.625,2.115c-0.579,0.471-1.067,1.013-1.465,1.629
							c-1.193,1.663-1.79,3.941-1.79,6.834c0,3.11,1.392,5.352,4.177,6.726c0.99,0.495,2.039,0.857,3.146,1.085
							c0.918,0.181,1.876,0.272,2.875,0.272c1.266,0,2.386-0.145,3.363-0.435c0.789,3.346,2.145,6.256,4.068,8.733
							c2.459,3.153,5.822,5.611,10.088,7.378c7.663,3.219,14.028,4.918,19.094,5.098c5.062,0.181,8.625-1.03,10.686-3.634
							c2.025-2.567,3.562-7.069,4.61-13.506c1.012-6.473,1.247-14.772,0.705-24.897c-0.579-9.257-1.068-17.537-1.465-24.843
							c-7.992,1.23-14.14,1.844-18.443,1.844c-5.604,0-10.559-0.452-14.862-1.357C72.541,172.875,69.539,171.953,66.285,170.687z"/>
					</g>
				</g>
			</g>
			<g transform="matrix( 0.9019317626953125, 0, 0, 0.9019317626953125, 15.9,37.75) ">
				<g>
					<g id="Layer0_11_MEMBER_0_FILL">
						<path style="fill:#FFA8A8;" d="M111.021,216.137c-0.94-0.868-2.188-1.301-3.743-1.301c-1.772,0-3.58,0.524-5.423,1.573
							c-0.073,0.036-0.127,0.073-0.163,0.109c0.18,1.192,0.451,2.241,0.814,3.145c0.94,2.277,2.332,3.417,4.177,3.417
							c1.88,0,3.236-1.916,4.068-5.75C110.822,216.934,110.912,216.536,111.021,216.137z"/>
						<path style="fill:#F58484;" d="M107.278,214.836c1.555,0,2.803,0.433,3.743,1.301c0.29-1.952,0.452-4.068,0.488-6.346
							c-4.338-0.688-7.901-0.434-10.685,0.76c0.253,2.242,0.542,4.23,0.868,5.967c0.036-0.037,0.09-0.074,0.163-0.109
							C103.698,215.36,105.506,214.836,107.278,214.836z"/>
						<path style="fill:#727272;" d="M117.151,188.963c-0.759-0.76-1.7-1.139-2.821-1.139c-1.121,0-2.079,0.379-2.875,1.139
							c-0.76,0.796-1.139,1.754-1.139,2.875c0,1.121,0.379,2.062,1.139,2.821c0.796,0.796,1.753,1.193,2.875,1.193
							c1.121,0,2.062-0.397,2.821-1.193c0.795-0.759,1.193-1.7,1.193-2.821C118.343,190.717,117.945,189.758,117.151,188.963
							 M95.236,194.658c0.796-0.759,1.194-1.7,1.194-2.821c0-1.121-0.398-2.079-1.194-2.875c-0.759-0.76-1.699-1.139-2.821-1.139
							c-1.121,0-2.079,0.379-2.875,1.139c-0.76,0.796-1.139,1.754-1.139,2.875c0,1.121,0.38,2.062,1.139,2.821
							c0.795,0.796,1.754,1.193,2.875,1.193C93.537,195.851,94.477,195.454,95.236,194.658z"/>
					</g>
				</g>
				<g transform="matrix( 1.108734130859375, 0, 0, 1.108734130859375, -17.65,-41.85) ">
					<path id="Layer0_11_MEMBER_0_1_STROKES" style="fill:none;stroke:#F7C5BF;stroke-linecap:round;stroke-linejoin:round;" d="
						M106.495,197.591c0.796,1.267,1.682,2.297,2.658,3.093c0.579,0.47,0.868,0.976,0.868,1.519c0,0.976-0.543,1.898-1.628,2.765
						c-1.193,0.94-2.441,1.194-3.743,0.759"/>
				</g>
			</g>
			<g transform="matrix( 1, 0, 0, 1, 15.8,1.5) ">
				<g>
					<g id="Layer0_12_FILL">
						<path style="fill:#BBDFFF;" d="M48.662,256.36c-0.615,0.362-2.278,1.591-4.99,3.688c-0.577,1.126-1.029,4.38-1.356,9.764
							c-0.297,5.411-0.478,10.329-0.542,14.754c-0.063,4.465,0.136,9.709,0.596,15.73c2.343-0.029,6.718-0.734,13.127-2.114
							c6.408-1.345,10.296-2.539,11.662-3.581c-1.034-2.117-2.39-6.203-4.068-12.259c-1.638-6.052-2.994-11.023-4.068-14.917
							c-1.082-3.9-1.895-6.902-2.441-9.004l-0.054-0.054c-0.796-0.868-1.646-1.718-2.549-2.55
							C52.423,255.927,50.651,256.108,48.662,256.36z"/>
					</g>
				</g>
			</g>
		</g>
		<g style="clip-path:url(#SVGID_00000042009536704352583910000015606157217124856506_);">
			<g transform="matrix( 1, 0, 0, 1, 0.35,6.05) ">
				<g>
					<g id="Layer0_15_MEMBER_0_FILL">
						
							<linearGradient id="SVGID_00000039094486263870652740000005377764147728186789_" gradientUnits="userSpaceOnUse" x1="258.2851" y1="295.9285" x2="257.5614" y2="165.7449">
							<stop  offset="0.1667" style="stop-color:#A6A6A6"/>
							<stop  offset="1" style="stop-color:#FFCECE"/>
						</linearGradient>
						<path style="fill:url(#SVGID_00000039094486263870652740000005377764147728186789_);" d="M202.919,303.287h110.384v-77.296
							H202.919V303.287z"/>
						<path style="fill:#878787;" d="M202.919,225.991h-5.587v77.296h5.587V225.991z"/>
					</g>
				</g>
			</g>
			<g transform="matrix( 1.72528076171875, 0, 0, 1, -195.55,-1.2) ">
				<g>
					<g id="Layer0_15_MEMBER_1_MEMBER_0_FILL">
						<path style="fill:#878787;" d="M259.293,284.826h-1.464v47.625h1.464V284.826z"/>
						<path style="fill:#9C9C9C;" d="M267.701,284.826h-8.408v47.625h8.408V284.826z"/>
					</g>
				</g>
			</g>
			<g transform="matrix( 0.9432220458984375, 0, 0, 1, 10.45,-1.2) ">
				<g>
					<g id="Layer0_15_MEMBER_1_MEMBER_1_FILL">
						<path style="fill:#9C9C9C;" d="M240.734,330.444v2.983h48.082v-2.983H240.734z"/>
						<path style="fill:#878787;" d="M221.39,330.444v2.983h19.344v-2.983H221.39z"/>
					</g>
				</g>
			</g>
		</g>
		<g style="clip-path:url(#SVGID_00000042009536704352583910000015606157217124856506_);">
			<g transform="matrix( 1, 0, 0, 1, 0,0) ">
				<g>
					<g id="Layer0_16_MEMBER_0_FILL">
						<path style="fill:#299E7F;" d="M301.014,289.701c-6.798,12.729-7.178,21.643-1.139,26.741
							C304.793,311.018,305.172,302.105,301.014,289.701z"/>
					</g>
				</g>
			</g>
			<g transform="matrix( 1, 0, 0, 1, 0,0) ">
				<g>
					<g id="Layer0_16_MEMBER_1_FILL">
						<path style="fill:#4DC2A3;" d="M299.279,312.158c-0.795-3.906-2.025-7.359-3.689-10.361c-1.591-2.748-4.086-5.387-7.485-7.919
							c-1.157-0.904-2.369-1.718-3.634-2.441c-0.073,0.616-0.108,1.267-0.108,1.953c0,4.629,1.32,9.709,3.96,15.243
							c2.567,5.424,6.437,9.221,11.608,11.391C299.965,317.13,299.748,314.508,299.279,312.158 M312.297,306.895
							c2.603-5.424,3.905-10.45,3.905-15.078c0.036-0.616,0.018-1.23-0.054-1.845c-1.157,0.724-2.333,1.518-3.526,2.387
							c-3.436,2.459-5.913,5.08-7.432,7.865c-1.627,3.002-2.892,6.4-3.797,10.197c-0.469,2.314-0.687,4.918-0.65,7.811
							C305.95,316.099,309.801,312.32,312.297,306.895z"/>
					</g>
				</g>
			</g>
			<g transform="matrix( 1, 0, 0, 1, 0,0) ">
				<g>
					<g id="Layer0_16_MEMBER_2_FILL">
						<path style="fill:#A1ECFF;" d="M290.383,313.297c-5.931,7.594-5.931,14.121,0,19.581h18.714c5.931-5.46,5.931-11.987,0-19.581
							H290.383z"/>
					</g>
				</g>
			</g>
		</g>
		<g style="clip-path:url(#SVGID_00000042009536704352583910000015606157217124856506_);">
			<g transform="matrix( 1, 0, 0, 1, 16.75,0) ">
				<g>
					<g id="Layer0_13_FILL">
						<path style="fill:#E0B8A8;" d="M299.344,333.021H82.807V473.97h216.537V333.021z"/>
						<path style="fill:#D4AB9C;" d="M82.807,333.021H6.976V473.97h75.831V333.021z"/>
					</g>
				</g>
			</g>
			<g transform="matrix( 1, 0, 0, 1, 15.55,0) ">
				<g>
					<g id="Layer0_17_FILL">
						<path style="fill:#ECC1B1;" d="M74.569,331.664v4.99h238.18v-4.99H74.569z"/>
						<path style="fill:#D4A08C;" d="M-4.3,331.664v4.99h78.869v-4.99H-4.3z"/>
					</g>
				</g>
			</g>
		</g>
		
			<g transform="matrix( 1, 0, 0, 1, 11.4,0) " style="clip-path:url(#SVGID_00000042009536704352583910000015606157217124856506_);">
			<g>
				<g id="Layer0_23_FILL">
					<path style="fill:#D0D0D0;" d="M494.761,329.787l-25.06-79.086h-4.23l26.362,83.154h65.416v-4.068H494.761z"/>
					
						<linearGradient id="SVGID_00000088131388026443343700000008026063865462858934_" gradientUnits="userSpaceOnUse" x1="451.1185" y1="346.449" x2="434.4846" y2="249.5367">
						<stop  offset="0.1667" style="stop-color:#EEEEEE"/>
						<stop  offset="1" style="stop-color:#D6EEEE"/>
					</linearGradient>
					<path style="fill:url(#SVGID_00000088131388026443343700000008026063865462858934_);" d="M465.47,250.701h-73.661
						l26.361,83.154h73.662L465.47,250.701z"/>
				</g>
			</g>
		</g>
		
			<g transform="matrix( 1, 0, 0, 1, 11.4,0) " style="clip-path:url(#SVGID_00000042009536704352583910000015606157217124856506_);">
			<g>
				<g id="Layer0_24_FILL">
					<path style="fill:#EEEEEE;" d="M551.607,326.044c-1.988-1.374-3.598-2.061-4.827-2.061c-3.255,0-6.292,0.67-9.112,2.008
						c-2.568,1.192-4.141,2.459-4.72,3.797v2.44h25.549c0.036-0.253,0.054-0.506,0.054-0.759c0-0.218-0.035-0.453-0.108-0.706
						C557.827,330.365,555.549,328.792,551.607,326.044z"/>
				</g>
			</g>
		</g>
		<g style="clip-path:url(#SVGID_00000042009536704352583910000015606157217124856506_);">
			<g transform="matrix( 1, 0, 0, 1, 11.4,0) ">
				<g>
					<g id="Layer0_26_FILL">
						<path style="fill:#D2D2D2;" d="M587.516,474.797V342.879H396.202v131.918H587.516z"/>
						<path style="fill:#BFBFBF;" d="M654.56,474.797V342.879h-67.044v131.918H654.56z"/>
					</g>
				</g>
			</g>
			<g transform="matrix( 1, 0, 0, 1, 11.4,0) ">
				<g>
					<g id="Layer0_27_FILL">
						<path style="fill:#C2C2C2;" d="M592.941,332.193H384.92v14.049h208.021V332.193z"/>
						<path style="fill:#B4B4B4;" d="M665.787,346.242v-14.049h-72.847v14.049H665.787z"/>
					</g>
				</g>
			</g>
			<g transform="matrix( 0.960662841796875, 0, 0, 1, 32.6,0) ">
				<g>
					<g id="Layer0_28_FILL">
						<path style="fill:#D2D2D2;" d="M366.43,330.838v4.99h238.18v-4.99H366.43z"/>
						<path style="fill:#BFBFBF;" d="M683.479,335.828v-4.99H604.61v4.99H683.479z"/>
					</g>
				</g>
			</g>
		</g>
		<g style="clip-path:url(#SVGID_00000042009536704352583910000015606157217124856506_);">
			<g transform="matrix( 0.9891357421875, -0.14691162109375, 0.14691162109375, 0.9891357421875, -4.2,72.35) ">
				<g>
					<g id="Layer0_36_MEMBER_0_FILL">
						<path style="fill:#FFD057;" d="M629.904,125.384c-1.032-0.515-1.845-0.652-2.439-0.411c0.087,0.501,1.241,1.329,3.465,2.488
							c0.396-0.04,0.602-0.169,0.616-0.389c0.007-0.292,0.04-0.512,0.097-0.664C631.02,125.998,630.441,125.657,629.904,125.384
							 M610.833,148.88c-0.126-1.259-0.929-2.56-2.408-3.902c-0.193,0.238-0.331,0.506-0.41,0.804
							c-0.018,0.184-0.021,0.329-0.01,0.436c0.079,0.792,0.209,1.36,0.388,1.706c0.245,0.63,0.484,1.387,0.718,2.272
							c0.151,0.057,0.267,0.119,0.345,0.183c0.113,0.026,0.312,0.024,0.6-0.005C610.668,150.315,610.926,149.816,610.833,148.88
							 M553.332,116.312c0.069,0.685,0.391,0.998,0.967,0.939c0.539-0.054,1.442-0.654,2.708-1.797
							c1.234-1.106,1.838-1.801,1.809-2.089c-0.025-0.252-0.076-0.393-0.152-0.421c-0.143,0.015-0.291-0.007-0.443-0.065
							c-0.316,0.104-1.189,0.646-2.617,1.624C554.072,115.53,553.315,116.133,553.332,116.312 M537.634,96.732
							c-1.273-0.381-2.602-0.393-3.983-0.037c-1.312,0.313-1.939,0.776-1.879,1.388c0.015,0.144,0.137,0.278,0.366,0.399
							c0.12,0.097,0.353,0.256,0.703,0.475l1.888-0.19c0.612-0.061,1.236-0.359,1.873-0.896
							C537.176,97.414,537.52,97.034,537.634,96.732 M595.565,42.089c0.05-0.223,0.035-0.748-0.049-1.575
							c-0.18-1.799-0.515-2.075-1.009-0.826c-0.529,1.251-0.753,2.274-0.674,3.065c0.05,0.504,0.258,0.756,0.621,0.756
							C595.115,43.225,595.485,42.751,595.565,42.089 M637.214,71.501l1.241-0.125c1.774-0.068,2.616-0.552,2.526-1.451
							c-0.101-1.008-0.794-1.211-2.078-0.611c-1.32,0.606-1.959,1.123-1.915,1.555C637.034,71.338,637.108,71.548,637.214,71.501
							 M643.825,79.289c1.116-0.111,1.636-0.545,1.56-1.3c-0.121-1.223-1.136-1.558-3.044-1.005
							c-1.766,0.505-3.04,1.214-3.821,2.128c0.252-0.026,0.965,0.012,2.137,0.113C641.942,79.351,642.998,79.372,643.825,79.289
							 M622.598,80.161c-2.458-0.226-4.922-1.961-7.389-5.203c-5.58,5.61-6.22,14.123-1.914,25.54
							c1.276-1.4,6.311-3.212,15.101-5.437c7.974-2.033,15.125-3.748,21.454-5.146c-7.75,0.268-12.21,0.368-13.38,0.305
							c-6.776-0.158-10.843-1.223-12.204-3.195c-1.051-1.421,0.327-3.631,4.135-6.628C626.922,80.509,624.987,80.43,622.598,80.161
							 M588.517,120.368c1.397,1.604,2.81,3.371,4.238,5.3c1.421,1.856,2.739,5.213,3.95,10.071
							c1.211,4.822,2.248,8.824,3.111,12.009c-0.501-9.727-0.222-16.915,0.84-21.563c1.061-4.65,1.812-7.668,2.254-9.057
							c-1.158-0.684-2.525-1.273-4.102-1.77c-4.353-1.382-8.702-0.71-13.045,2.014C586.2,117.729,587.117,118.727,588.517,120.368
							 M546.422,93.563c-1.085,0.435-2.063,0.825-2.937,1.166c3.087-0.381,6.844-0.612,11.27-0.691
							c5.263-0.054,9.397,0.205,12.398,0.776c0.237-2.35-0.246-5.009-1.453-7.978c-0.766-1.485-1.358-2.68-1.776-3.584
							c-1.773,1.522-2.929,2.511-3.464,2.964c-2.065,1.516-4.843,3.175-8.333,4.977C551.263,91.643,549.361,92.433,546.422,93.563
							 M573.761,50.269c-0.806-1.882-1.599-3.62-2.376-5.214c1.296,7.139,2.556,15.734,3.781,25.788
							c1.454,0.363,3.078,0.801,4.873,1.31c1.159,0.321,2.266,0.664,3.32,1.031c2.32-2.594,5.034-5.447,8.138-8.556
							c0.831-0.774,1.642-1.563,2.434-2.369c-0.696-0.768-1.172-1.373-1.436-1.82c-1.13-2.212-1.784-3.673-1.966-4.382
							c-0.497-1.694-0.623-4.044-0.379-7.049c-2.238,3.422-4.358,5.652-6.362,6.688C580.264,57.505,576.92,55.695,573.761,50.269z"
							/>
					</g>
				</g>
			</g>
			<g transform="matrix( 0.9891357421875, -0.14691162109375, 0.14691162109375, 0.9891357421875, -4.2,72.35) ">
				<g>
					<g id="Layer0_36_MEMBER_1_FILL">
						<path style="fill:#FFFFFF;" d="M574.016,137.247c1.152-0.115,1.804-0.871,1.954-2.267c-0.129-1.296-0.961-1.975-2.494-2.04
							c-1.568-0.061-2.278,0.645-2.131,2.121c-0.009-0.103,0.133,0.246,0.431,1.046C572.335,136.961,573.081,137.34,574.016,137.247
							 M637.067,116.327c1.249,1.582,3.42,2.22,6.515,1.91c1.835-0.184,3.235-1.088,4.198-2.71c0.777-1.313,1.103-2.6,0.976-3.86
							c-0.165-1.655-0.971-2.992-2.417-4.01c-1.372-0.989-2.893-1.472-4.562-1.451c-1.818,0-3.248,0.58-4.296,1.738
							c-1.216,1.285-1.706,3.115-1.467,5.49C636.133,114.621,636.484,115.585,637.067,116.327 M611.742,49.029
							c0.079,0.792,0.474,1.479,1.186,2.062c0.955,0.812,2.188,1.144,3.698,0.992c1.115-0.111,1.978-0.579,2.585-1.403
							c0.511-0.705,0.721-1.508,0.632-2.407c-0.255-2.555-1.724-3.608-4.404-3.158C612.758,45.566,611.525,46.87,611.742,49.029
							 M547.805,66.004c1.516-1.204,2.207-2.473,2.074-3.805c-0.22-2.194-0.968-3.846-2.242-4.954
							c-1.154-1.011-2.486-1.423-3.994-1.235c-1.507,0.187-2.745,0.893-3.712,2.116c-1.026,1.374-1.436,3.087-1.23,5.138
							c0.011,0.108,0.187,0.962,0.529,2.563c0.703,1.565,2.042,2.248,4.023,2.051C544.907,67.712,546.425,67.088,547.805,66.004
							 M563.615,61.097c-3.664,1.894-6.241,5.185-7.734,9.878c-1.525,4.732-1.319,8.963,0.616,12.695
							c1.396,2.695,3.375,4.858,5.937,6.492c0.116,0.062,0.459,0.227,1.031,0.497c-0.784,0.878-1.286,2.218-1.505,4.021
							c-0.316,3.375,0.251,6.498,1.702,9.369c0.72,1.381,1.542,2.335,2.466,2.86c0.849,0.497,1.867,0.667,3.05,0.513
							c-1.83,1.674-2.799,3.606-2.908,5.797c-0.097,1.572,0.212,3.031,0.928,4.377c0.728,1.454,2.041,1.686,3.942,0.697
							c1.554-0.81,2.783-1.968,3.686-3.476c0.529-0.889,1.239-2.141,2.132-3.756c0.179,0.346,0.34,1.22,0.48,2.623
							c0.174,1.363,0.643,2.789,1.409,4.274c1.583,3.112,3.293,5.122,5.128,6.029c1.911,0.935,4.248,0.683,7.01-0.756
							c2.351-1.217,3.754-2.811,4.21-4.783c0.115-0.302,0.188-0.672,0.216-1.112c2.541,2.145,5.483,3.395,8.826,3.751
							c4.04,0.432,8.29-0.502,12.747-2.802c4.803-2.48,7.128-6.311,6.972-11.492c-0.101-2.824-0.781-5.446-2.041-7.863
							c-1.453-2.908-3.272-4.924-5.457-6.051c0.397-0.765,0.764-1.456,1.102-2.072c1.442-3.015,1.555-5.698,0.338-8.048
							c-0.269-0.517-0.494-0.95-0.673-1.295c8.138-6.557,10.787-12.582,7.949-18.076c-0.904-1.764-1.886-2.865-2.949-3.304
							c-1.787-0.802-4.34-0.346-7.657,1.366c-2.836,1.447-5.06,2.996-6.677,4.647c-0.86,0.85-1.468,1.656-1.829,2.419
							c-0.097,0.845-0.152,1.378-0.166,1.597l0.026,0.816c-0.322-0.695-0.277-1.499,0.14-2.413c0.018-0.547,0.057-1.259,0.113-2.138
							c0.003-2.144-0.38-3.978-1.15-5.5c-1.666-3.212-3.338-5.39-5.014-6.53c-2.548-1.854-5.533-1.899-8.955-0.14
							c-4.149,2.124-6.825,4.971-8.031,8.544c-0.388,1.203-0.613,2.406-0.675,3.612c-2.292-2.569-4.747-4.394-7.361-5.477
							C571.103,59.13,567.313,59.201,563.615,61.097z"/>
					</g>
				</g>
			</g>
		</g>
		<g style="clip-path:url(#SVGID_00000042009536704352583910000015606157217124856506_);">
			<g transform="matrix( 1, 0, 0, 1, 0,0) ">
				<g>
					<g id="Layer0_37_FILL">
						<path style="fill:#FFD057;" d="M111.715,58.156c0.24-0.232,0.35-0.51,0.33-0.835c-0.048-0.794-0.292-1.541-0.732-2.238
							c-0.562-0.909-1.314-1.371-2.257-1.386c0.022,0.36-0.005,0.815-0.081,1.363c0.003,0.036,0.148,0.643,0.437,1.822
							c0.358,1.137,0.772,1.692,1.241,1.664C111.085,58.519,111.439,58.389,111.715,58.156 M72.065,86.462
							c-0.043-0.721-0.285-1.105-0.722-1.151c0.02,0.325-0.058,0.546-0.232,0.665c-0.138,0.118-0.402,0.242-0.792,0.375
							c0.298,0.126,0.672,0.322,1.122,0.584C71.651,86.813,71.859,86.656,72.065,86.462 M80.309,87.108
							c1.047-0.063,1.548-0.474,1.502-1.232c-0.065-1.083-0.79-1.383-2.173-0.901c-1.102,0.356-1.927,0.804-2.473,1.344
							C78.828,86.87,79.876,87.134,80.309,87.108 M145.463,138.559c0.383-0.856,0.548-1.735,0.494-2.637
							c-0.043-0.723-0.499-1.057-1.365-1.005c-0.864,0.088-1.267,0.62-1.208,1.594c0.032,0.542,0.089,0.883,0.17,1.023
							c0.239,0.349,0.767,0.697,1.584,1.046L145.463,138.559 M149.546,53.813c0.022,0.362,0.091,0.593,0.206,0.695
							c0.036-0.002,0.255,0.039,0.659,0.124c0.613-0.653,1.037-1.439,1.271-2.36c0.151-1.095,0.281-1.955,0.388-2.576l-0.074-0.322
							c-0.607,0.145-1.2,0.832-1.778,2.064C149.74,52.517,149.516,53.309,149.546,53.813 M130.467,65.449
							c0.781,1.188,1.981,2.166,3.6,2.936c1.938,0.897,3.484,1.311,4.64,1.241c1.227-0.073,2.724-0.779,4.491-2.118
							c0.641-0.512,1.225-1.037,1.753-1.573c-0.577-4.028-0.397-10.668,0.54-19.921c0.419-3.345,0.766-6.3,1.042-8.866
							c-0.995,2.24-2.166,4.756-3.513,7.547C138.159,54.832,133.974,61.749,130.467,65.449 M119.061,107.979
							c0.532,1.241,1.279,2.808,2.239,4.702c1.589,3.527,3.035,7.986,4.337,13.378c0.341,1.385,0.848,5.593,1.521,12.624
							c0.865-3.74,1.667-6.669,2.406-8.785c1.737-4.85,3.742-7.344,6.016-7.48c0.975-0.059,2.275,1.383,3.901,4.33
							c0.847,1.498,1.722,3.093,2.624,4.787c-0.291-3.273-0.325-5.645-0.102-7.112c0.498-3.179,2.165-4.384,4.999-3.617
							c2.873,0.798,5.343,2.406,7.409,4.826c2.061,2.42,4.714,5.865,7.958,10.335c-3.255-5.12-6.125-12.175-8.61-21.164
							c-2.134-7.733-3.233-13.372-3.3-16.918c-6.576,0.051-11.68,0.43-15.311,1.139
							C128.706,100.248,123.344,103.234,119.061,107.979 M93.508,86.095c0.732-1.549,1.649-3.488,2.747-5.816
							c0.615-1.296,1.128-2.414,1.537-3.353c-2.683-0.233-5.775-0.753-9.277-1.561c-7.301-1.661-15.772-4.267-25.413-7.817
							c4.337,1.771,9.379,4.292,15.127,7.566C85.379,79.18,90.472,82.841,93.508,86.095z"/>
					</g>
				</g>
			</g>
			<g transform="matrix( 1, 0, 0, 1, 0,0) ">
				<g>
					<g id="Layer0_38_FILL">
						<path style="fill:#FFFFFF;" d="M101.82,64.402c-2.996,0.181-5.51,1.147-7.541,2.9c-2.236,1.982-3.262,4.489-3.08,7.521
							c0.082,1.372,0.226,2.25,0.431,2.637c0.257,0.672,0.957,1.753,2.097,3.243c-1.476-0.116-3.598,0.736-6.367,2.557
							c-2.765,1.823-3.839,4.75-3.221,8.78c0.646,4.058,3.558,6.074,8.732,6.049c4.055-0.027,6.787-0.391,8.194-1.091
							c-2.272,1.368-3.24,4.85-2.904,10.444c0.408,6.787,3.044,11.754,7.907,14.903c3.352,2.117,6.796,3.069,10.334,2.856
							c3.79-0.228,6.666-2.702,8.628-7.421c0.465-1.911,0.893-3.531,1.283-4.858c0.725,1.804,1.622,3.163,2.691,4.076
							c1.611,1.497,3.934,2.154,6.965,1.972c3.212-0.193,5.44-2.32,6.681-6.38c0.907-2.989,1.221-6.177,0.945-9.567l-0.033-0.541
							c1.147,3.409,4.042,6.37,8.685,8.879c4.639,2.438,9.161,3.524,13.564,3.259c2.129-0.128,3.572-0.849,4.326-2.162
							c0.625-1.053,0.877-2.589,0.755-4.611c-0.298-4.945-2.422-9.237-6.372-12.876c-2.26-2.038-4.631-3.525-7.115-4.462
							c2.897-2.239,4.154-4.834,3.77-7.781c-0.386-2.947-1.036-4.719-1.95-5.316c-0.909-0.597-1.42-0.965-1.534-1.103
							c2.351-1.88,3.921-3.769,4.713-5.664c0.793-1.858,1.086-4.522,0.878-7.987c-0.178-2.96-0.831-5.076-1.958-6.349
							c-1.163-1.27-2.954-1.832-5.373-1.687c-4.547,0.274-8.628,2.004-12.24,5.192c-1.515,1.323-2.837,2.815-3.969,4.478
							c-0.125-3.868-0.936-7.425-2.436-10.667c-1.877-4.089-3.933-6.066-6.171-5.932c-5.631,0.339-10.559,3.334-14.784,8.987
							c-4.121,5.572-5.222,10.44-3.305,14.599l-0.521-0.512c-0.889-1.541-1.871-2.822-2.948-3.844
							C107.656,65.048,105.069,64.207,101.82,64.402 M98.733,51.927c-0.117-1.949-1.258-2.84-3.421-2.673
							c-2.197,0.205-3.238,1.264-3.123,3.177c0.004,0.072,0.161,0.57,0.471,1.493c0.596,0.87,1.579,1.263,2.951,1.181
							c1.083-0.065,1.911-0.441,2.486-1.127C98.568,53.405,98.78,52.72,98.733,51.927 M81.568,106.214
							c0.481-1.042,0.678-2.287,0.591-3.73c-0.104-1.733-0.704-2.964-1.798-3.696c-0.946-0.668-2.096-0.816-3.45-0.445
							c-3.284,0.814-4.828,2.845-4.633,6.094c0.083,1.372,0.206,2.216,0.37,2.532c0.662,1.373,2.148,1.99,4.458,1.851
							C79.271,108.689,80.759,107.82,81.568,106.214 M183.216,115.747c-1.248-0.868-2.688-1.324-4.321-1.37
							c-4.101-0.115-6.029,1.848-5.787,5.89c0.004,0.073,0.087,1.136,0.247,3.192c0.735,1.985,2.691,2.881,5.868,2.689
							c2.563-0.154,4.345-1.239,5.347-3.256c0.582-1.158,0.836-2.369,0.759-3.632C185.245,117.852,184.54,116.682,183.216,115.747z"
							/>
					</g>
				</g>
			</g>
		</g>
		<g style="clip-path:url(#SVGID_00000042009536704352583910000015606157217124856506_);">
			<g transform="matrix( 1, 0, 0, 1, 0,0) ">
				<g>
					<g id="Layer0_37_FILL_1_">
						<path style="fill:#FFD057;" d="M399.919,242.922c0.046-0.194,0.013-0.371-0.102-0.527c-0.278-0.386-0.641-0.683-1.086-0.893
							c-0.574-0.277-1.102-0.27-1.582,0.026c0.127,0.174,0.259,0.412,0.397,0.712c0.013,0.017,0.281,0.276,0.804,0.778
							c0.545,0.458,0.931,0.604,1.159,0.44C399.719,243.305,399.855,243.127,399.919,242.922 M389.022,269.895
							c-0.252-0.35-0.498-0.466-0.732-0.35c0.114,0.158,0.146,0.295,0.096,0.41c-0.031,0.103-0.126,0.251-0.278,0.443
							c0.189-0.032,0.442-0.054,0.752-0.066C388.928,270.205,388.981,270.059,389.022,269.895 M393.384,267.576
							c0.506-0.367,0.627-0.734,0.361-1.102c-0.381-0.525-0.842-0.444-1.384,0.241c-0.441,0.533-0.713,1.024-0.816,1.472
							C392.56,267.932,393.174,267.728,393.384,267.576 M442.703,272.602c-0.081-0.556-0.279-1.05-0.597-1.487
							c-0.253-0.35-0.59-0.373-1.009-0.068c-0.409,0.321-0.441,0.718-0.099,1.189c0.19,0.262,0.329,0.417,0.413,0.461
							c0.232,0.099,0.61,0.105,1.134,0.018L442.703,272.602 M417.584,228.602c0.126,0.175,0.236,0.27,0.326,0.283
							c0.017-0.013,0.141-0.063,0.372-0.147c0.099-0.527,0.062-1.059-0.117-1.598c-0.275-0.6-0.483-1.074-0.63-1.423l-0.141-0.138
							c-0.259,0.268-0.337,0.804-0.234,1.608C417.268,227.886,417.407,228.358,417.584,228.602 M411.704,240.581
							c0.774,0.349,1.694,0.457,2.756,0.325c1.264-0.17,2.175-0.456,2.734-0.862c0.595-0.431,1.123-1.267,1.584-2.508
							c0.158-0.463,0.284-0.914,0.378-1.355c-1.583-1.843-3.62-5.245-6.116-10.207c-0.861-1.818-1.634-3.42-2.318-4.801
							c0.218,1.447,0.435,3.09,0.65,4.93C412.175,232.766,412.284,237.593,411.704,240.581 M419.597,265.663
							c0.667,0.454,1.545,1.005,2.635,1.65c1.933,1.268,4.091,3.05,6.476,5.35c0.616,0.588,2.222,2.544,4.814,5.871
							c-0.764-2.161-1.299-3.894-1.604-5.197c-0.681-3-0.471-4.899,0.631-5.697c0.473-0.342,1.591-0.032,3.354,0.93
							c0.908,0.483,1.859,1.006,2.858,1.569c-1.197-1.555-1.975-2.738-2.333-3.549c-0.768-1.762-0.315-2.902,1.359-3.425
							c1.702-0.52,3.462-0.501,5.279,0.055c1.815,0.559,4.256,1.443,7.322,2.654c-3.282-1.535-6.989-4.169-11.124-7.9
							c-3.554-3.211-5.916-5.699-7.088-7.465c-3.296,2.135-5.745,3.963-7.347,5.483C421.977,258.676,420.233,261.9,419.597,265.663
							 M399.708,262.834c-0.129-1.015-0.289-2.286-0.481-3.811c-0.107-0.85-0.207-1.578-0.302-2.183
							c-1.426,0.743-3.151,1.473-5.174,2.189c-4.21,1.504-9.314,2.908-15.309,4.211c2.752-0.498,6.101-0.846,10.048-1.039
							C393.395,261.957,397.134,262.168,399.708,262.834z"/>
					</g>
				</g>
			</g>
			<g transform="matrix( 1, 0, 0, 1, 0,0) ">
				<g>
					<g id="Layer0_38_FILL_1_">
						<path style="fill:#FFFFFF;" d="M396.938,249.241c-1.451,1.052-2.408,2.344-2.868,3.879c-0.491,1.716-0.205,3.308,0.859,4.776
							c0.482,0.665,0.836,1.06,1.064,1.189c0.345,0.257,1.043,0.576,2.096,0.961c-0.779,0.415-1.576,1.525-2.388,3.33
							c-0.809,1.805-0.41,3.625,1.193,5.456c1.627,1.838,3.74,1.92,6.338,0.248c2.034-1.314,3.295-2.373,3.778-3.178
							c-0.706,1.419-0.076,3.482,1.887,6.192c2.383,3.287,5.304,4.943,8.764,4.972c2.367-0.008,4.406-0.634,6.12-1.875
							c1.836-1.33,2.492-3.499,1.968-6.506c-0.38-1.111-0.684-2.064-0.912-2.859c0.944,0.677,1.831,1.074,2.663,1.19
							c1.291,0.238,2.672-0.176,4.142-1.239c1.555-1.127,1.996-2.913,1.318-5.356c-0.501-1.797-1.365-3.503-2.591-5.122l-0.19-0.263
							c1.67,1.35,4.078,1.912,7.223,1.688c3.118-0.26,5.744-1.162,7.878-2.708c1.032-0.748,1.526-1.572,1.485-2.476
							c-0.023-0.73-0.388-1.585-1.098-2.565c-1.736-2.395-4.183-3.876-7.34-4.442c-1.791-0.303-3.464-0.291-5.014,0.033
							c0.74-2.056,0.542-3.766-0.597-5.126c-1.14-1.362-2.035-2.047-2.686-2.055c-0.65-0.01-1.025-0.03-1.128-0.063
							c0.582-1.701,0.768-3.156,0.559-4.366c-0.196-1.189-0.902-2.625-2.119-4.303c-1.038-1.434-2.045-2.292-3.022-2.571
							c-0.992-0.267-2.075,0.024-3.248,0.874c-2.202,1.597-3.702,3.776-4.5,6.541c-0.338,1.151-0.525,2.327-0.563,3.527
							c-1.305-1.908-2.853-3.439-4.649-4.593c-2.255-1.456-3.926-1.793-5.01-1.008c-2.728,1.976-4.25,5.064-4.565,9.267
							c-0.289,4.13,0.717,6.934,3.017,8.415l-0.426-0.09c-0.942-0.493-1.849-0.822-2.718-0.992
							C400.084,247.695,398.512,248.1,396.938,249.241 M391.382,243.946c-0.684-0.944-1.545-1.027-2.58-0.249
							c-1.042,0.807-1.228,1.675-0.555,2.602c0.024,0.035,0.263,0.235,0.716,0.601c0.578,0.248,1.2,0.131,1.864-0.351
							c0.525-0.381,0.822-0.836,0.891-1.365C391.773,244.743,391.661,244.331,391.382,243.946 M400.145,276.797
							c-0.092-0.679-0.392-1.368-0.899-2.067c-0.609-0.84-1.305-1.268-2.09-1.285c-0.691-0.034-1.319,0.261-1.882,0.882
							c-1.394,1.464-1.52,2.981-0.379,4.556c0.48,0.665,0.813,1.05,0.997,1.156c0.774,0.479,1.721,0.314,2.84-0.496
							C399.781,278.781,400.252,277.866,400.145,276.797 M454.406,249.004c-0.907-0.037-1.778,0.194-2.615,0.695
							c-2.104,1.257-2.446,2.864-1.027,4.823c0.025,0.034,0.408,0.544,1.147,1.528c1.008,0.764,2.28,0.588,3.818-0.526
							c1.243-0.9,1.793-2.019,1.65-3.355c-0.079-0.77-0.34-1.461-0.782-2.074C456.103,249.414,455.373,249.05,454.406,249.004z"/>
					</g>
				</g>
			</g>
		</g>
		<g style="clip-path:url(#SVGID_00000042009536704352583910000015606157217124856506_);">
			<path style="fill:#FFFFFF;" d="M501.5,76.144c-1.29,0-1.29,2,0,2S502.79,76.144,501.5,76.144z"/>
			<path style="fill:#FFFFFF;" d="M674.5,133.144c-1.09,0-2,0.91-2,2v1c0,1.09,0.91,2,2,2c1.09,0,2-0.91,2-2v-1
				C676.5,134.053,675.59,133.144,674.5,133.144z"/>
			<path style="fill:#FFFFFF;" d="M690.5,81.144c-2.579,0-2.579,4,0,4S693.079,81.144,690.5,81.144z"/>
			<path style="fill:#FFFFFF;" d="M215.5,116.144c-2.58,0-2.58,4,0,4C218.08,120.144,218.08,116.144,215.5,116.144z"/>
			<path style="fill:#FFFFFF;" d="M215.5,71.644c-4.514,0-4.514,7,0,7C220.014,78.644,220.014,71.644,215.5,71.644z"/>
			<path style="fill:#FFFFFF;" d="M41.801,145.843c-0.849-0.873-2.12-1.194-3.301-1.2c-1.908-0.01-3.5,1.6-3.5,3.5
				c0,0.189,0.027,0.371,0.057,0.552c-0.092,0.763,0.034,1.554,0.421,2.214c1.001,1.71,3.092,2.129,4.789,1.255
				c0.87-0.448,1.569-1.041,2.114-1.858C43.308,148.918,42.911,146.984,41.801,145.843z"/>
			<path style="fill:#FFFFFF;" d="M374.5,67.644c-4.514,0-4.514,7,0,7C379.014,74.644,379.014,67.644,374.5,67.644z"/>
			<path style="fill:#FFFFFF;" d="M29.5,60.144c-2.58,0-2.58,4,0,4S32.08,60.144,29.5,60.144z"/>
			<path style="fill:#FFFFFF;" d="M475.316,88.327c-0.317-0.691-1.016-1.184-1.816-1.184c-1.09,0-2.001,0.91-2,2
				c0.001,0.885,0.125,1.587,0.711,2.289c0.549,0.658,1.506,0.711,2.289,0.711c1.09,0.001,2-0.91,2-2
				C476.5,89.343,476.008,88.645,475.316,88.327z"/>
		</g>
	</g>
</g>
</svg>
