<svg xmlns="http://www.w3.org/2000/svg" xmlns:xlink="http://www.w3.org/1999/xlink" viewBox="0 0 755.25 473.43"><defs><style>.cls-1{fill:#0983b7;}.cls-2{fill:#bee7fa;}.cls-3{fill:#00aeff;}.cls-17,.cls-18,.cls-19,.cls-4{fill:#fff;}.cls-5{fill:#239ed9;}.cls-6{fill:#2d3539;}.cls-7{fill:url(#linear-gradient);}.cls-8{fill:url(#linear-gradient-2);}.cls-9{fill:url(#linear-gradient-3);}.cls-10{fill:url(#linear-gradient-4);}.cls-11{fill:url(#linear-gradient-5);}.cls-12{fill:url(#linear-gradient-6);}.cls-13{fill:url(#linear-gradient-7);}.cls-14{fill:#09347a;}.cls-15{opacity:0.76;}.cls-16{fill:url(#linear-gradient-8);}.cls-17{opacity:0.45;}.cls-18{opacity:0.6;}.cls-19{opacity:0.54;}</style><linearGradient id="linear-gradient" x1="7178" y1="421.72" x2="7188" y2="421.72" gradientTransform="matrix(-1, 0, 0, 1, 7819.73, 0)" gradientUnits="userSpaceOnUse"><stop offset="0" stop-color="#f9b776"/><stop offset="1" stop-color="#f47960"/></linearGradient><linearGradient id="linear-gradient-2" x1="7170.76" y1="430.95" x2="7180.15" y2="430.95" xlink:href="#linear-gradient"/><linearGradient id="linear-gradient-3" x1="7199.45" y1="322.71" x2="7232.19" y2="322.71" xlink:href="#linear-gradient"/><linearGradient id="linear-gradient-4" x1="7168.2" y1="274.39" x2="7189.93" y2="274.39" xlink:href="#linear-gradient"/><linearGradient id="linear-gradient-5" x1="7153.39" y1="323.11" x2="7070.22" y2="467.64" xlink:href="#linear-gradient"/><linearGradient id="linear-gradient-6" x1="8945.67" y1="-140.86" x2="8918.51" y2="-104.93" gradientTransform="matrix(-0.97, -0.25, -0.25, 0.97, 9254.46, 2621.8)" xlink:href="#linear-gradient"/><linearGradient id="linear-gradient-7" x1="8905.89" y1="-112.41" x2="8927.68" y2="-134.76" gradientTransform="matrix(-0.97, -0.25, -0.25, 0.97, 9254.46, 2621.8)" xlink:href="#linear-gradient"/><linearGradient id="linear-gradient-8" x1="4015.25" y1="5250.02" x2="4068.06" y2="5250.02" gradientTransform="matrix(-0.42, 0.91, 0.72, 0.34, -1960.94, -5007.39)" gradientUnits="userSpaceOnUse"><stop offset="0" stop-color="#a737d5"/><stop offset="1" stop-color="#ef497a"/></linearGradient></defs><title>Visual Workflow Plan</title><g id="Layer_2" data-name="Layer 2"><g id="Layer_1-2" data-name="Layer 1"><path class="cls-1" d="M528,16.32a15.27,15.27,0,0,0-11-4.63l-313.2.18a15.29,15.29,0,0,0-15.27,15.76l.41,400.1a15.16,15.16,0,0,0,15.29,14.65h314a15.16,15.16,0,0,0,15.29-14.68L532.33,27.35A15.13,15.13,0,0,0,528,16.32Z"/><path class="cls-2" d="M514.15,34.74a14,14,0,0,0-10-4.24l-286.26.17a14,14,0,0,0-14,14.41l-.65,365.64a13.84,13.84,0,0,0,14,13.38H506.39a13.84,13.84,0,0,0,14-13.41L518.1,44.81A13.77,13.77,0,0,0,514.15,34.74Z"/><circle class="cls-1" cx="360.45" cy="70.63" r="30.97" transform="translate(233.72 415.38) rotate(-80.9)"/><circle class="cls-1" cx="361.18" cy="70.63" r="28.77" transform="matrix(0.16, -0.99, 0.99, 0.16, 234.29, 416.08)"/><circle class="cls-1" cx="360.45" cy="376.38" r="30.97" transform="translate(-68.19 672.79) rotate(-80.9)"/><circle class="cls-1" cx="361.18" cy="376.38" r="28.77" transform="translate(-67.61 673.45) rotate(-80.9)"/><rect class="cls-1" x="335.17" y="152.26" width="50.56" height="50.56" transform="translate(-20.28 305.94) rotate(-44.86)"/><rect class="cls-1" x="337.24" y="154.33" width="46.42" height="46.42" transform="translate(-20.28 305.94) rotate(-44.86)"/><path class="cls-1" d="M487.86,264.64a19.75,19.75,0,0,1-19.75,19.75h-25.6a19.75,19.75,0,0,1-19.75-19.75h0a19.75,19.75,0,0,1,19.75-19.75h25.6a19.75,19.75,0,0,1,19.75,19.75Z"/><path class="cls-1" d="M485.17,264.64A18.16,18.16,0,0,1,467,282.92H443.23a18.16,18.16,0,0,1-18.17-18.28h0a18.17,18.17,0,0,1,18.17-18.29H467a18.17,18.17,0,0,1,18.18,18.29Z"/><path class="cls-1" d="M393.5,264.64a19.75,19.75,0,0,1-19.75,19.75h-25.6a19.75,19.75,0,0,1-19.75-19.75h0a19.75,19.75,0,0,1,19.75-19.75h25.6a19.75,19.75,0,0,1,19.75,19.75Z"/><path class="cls-1" d="M390.81,264.64a18.16,18.16,0,0,1-18.17,18.28H348.87a18.16,18.16,0,0,1-18.17-18.28h0a18.17,18.17,0,0,1,18.17-18.29h23.77a18.17,18.17,0,0,1,18.17,18.29Z"/><path class="cls-1" d="M297,264.64a19.75,19.75,0,0,1-19.75,19.75H251.6a19.75,19.75,0,0,1-19.75-19.75h0a19.75,19.75,0,0,1,19.75-19.75h25.6A19.75,19.75,0,0,1,297,264.64Z"/><path class="cls-1" d="M294.25,264.64a18.16,18.16,0,0,1-18.17,18.28H252.32a18.16,18.16,0,0,1-18.17-18.28h0a18.16,18.16,0,0,1,18.17-18.29h23.76a18.16,18.16,0,0,1,18.17,18.29Z"/><path class="cls-1" d="M361,134.8a1.1,1.1,0,0,1-1.1-1.1V105.91a1.1,1.1,0,0,1,2.2,0V133.7A1.1,1.1,0,0,1,361,134.8Z"/><polygon class="cls-1" points="364.94 129.31 360.45 137.1 355.96 129.31 364.94 129.31"/><path class="cls-1" d="M361,237.94a1.1,1.1,0,0,1-1.1-1.1V216.36a1.1,1.1,0,1,1,2.2,0v20.48A1.1,1.1,0,0,1,361,237.94Z"/><polygon class="cls-1" points="364.94 232.45 360.45 240.24 355.96 232.45 364.94 232.45"/><path class="cls-1" d="M359.49,336.69a1.1,1.1,0,0,1-1.1-1.1V308.52a1.1,1.1,0,0,1,2.2,0v27.07A1.1,1.1,0,0,1,359.49,336.69Z"/><polygon class="cls-1" points="363.82 331.2 359.32 338.98 354.83 331.2 363.82 331.2"/><path class="cls-1" d="M260.74,230.62a1.09,1.09,0,0,1-1.1-1.09v-52.3a1.1,1.1,0,0,1,1.1-1.1h60.35a1.1,1.1,0,0,1,0,2.19H261.84v51.21A1.09,1.09,0,0,1,260.74,230.62Z"/><polygon class="cls-1" points="264.73 228.79 260.24 236.58 255.75 228.79 264.73 228.79"/><path class="cls-1" d="M461.89,230.62a1.09,1.09,0,0,1-1.09-1.09V178.32H401.55a1.1,1.1,0,1,1,0-2.19h60.34a1.1,1.1,0,0,1,1.1,1.1v52.3A1.09,1.09,0,0,1,461.89,230.62Z"/><polygon class="cls-1" points="457.53 228.79 462.02 236.58 466.51 228.79 457.53 228.79"/><path class="cls-1" d="M461.16,309.26H260a1.1,1.1,0,0,1-1.1-1.1V288.78a1.1,1.1,0,0,1,2.2,0v18.28h199V288.78a1.1,1.1,0,1,1,2.19,0v19.38A1.1,1.1,0,0,1,461.16,309.26Z"/><rect class="cls-3" x="221.61" y="48.85" width="84.85" height="9.51" rx="4.63"/><rect class="cls-3" x="221.61" y="70.07" width="84.85" height="9.51" rx="4.63"/><path class="cls-2" d="M614.14,83.1a1.74,1.74,0,0,1-1.49-.85l-3.57-6.09a34.43,34.43,0,0,1-9.77-1.92l-5.61,4.28a1.71,1.71,0,0,1-2,.06l-7.65-5.08a1.73,1.73,0,0,1-.71-1.88l1.77-6.83a34.58,34.58,0,0,1-5.55-8.26l-7-.94a1.73,1.73,0,0,1-1.46-1.37l-1.81-9a1.71,1.71,0,0,1,.82-1.83l6.08-3.57a34.37,34.37,0,0,1,1.93-9.77l-4.28-5.61a1.73,1.73,0,0,1-.07-2l5.09-7.64a1.71,1.71,0,0,1,1.87-.72l6.83,1.78a34.48,34.48,0,0,1,8.26-5.55l.94-7a1.72,1.72,0,0,1,1.37-1.46l9-1.82A1.75,1.75,0,0,1,609,.85l3.57,6.09a34.43,34.43,0,0,1,9.77,1.92l5.61-4.28a1.73,1.73,0,0,1,2-.07l7.65,5.09a1.72,1.72,0,0,1,.71,1.87l-1.78,6.83a34.38,34.38,0,0,1,5.56,8.27l7,.94a1.74,1.74,0,0,1,1.46,1.37l1.81,9a1.74,1.74,0,0,1-.82,1.83l-6.08,3.57a34.44,34.44,0,0,1-1.93,9.77l4.28,5.61a1.71,1.71,0,0,1,.07,2l-5.09,7.65a1.73,1.73,0,0,1-1.87.72l-6.83-1.78a34.34,34.34,0,0,1-8.27,5.55l-.94,7a1.7,1.7,0,0,1-1.37,1.46l-9,1.81A1.32,1.32,0,0,1,614.14,83.1Zm-15.2-11.34.57.21a32.09,32.09,0,0,0,10.25,2l.6,0,4,6.84,8.35-1.68,1.06-7.86.55-.25A31.87,31.87,0,0,0,633,65.24l.45-.42,7.67,2,4.72-7.09L641,53.43l.21-.57a32.2,32.2,0,0,0,2-10.26l0-.6,6.83-4-1.68-8.35-7.85-1.06-.25-.55a32.13,32.13,0,0,0-5.83-8.67l-.41-.44,2-7.68L629,6.53l-6.3,4.81-.57-.21a32.48,32.48,0,0,0-10.25-2h-.61l-4-6.84L598.9,3.93l-1,7.85-.55.26a32.07,32.07,0,0,0-8.68,5.82l-.44.42-7.67-2-4.72,7.09,4.81,6.3-.21.57a32.2,32.2,0,0,0-2,10.25l0,.61-6.83,4,1.68,8.35,7.85,1,.25.56a32.45,32.45,0,0,0,5.83,8.67l.41.44-2,7.67,7.1,4.72Zm12-6.85a23.28,23.28,0,0,1-22.76-18.68,24.14,24.14,0,0,1-.46-4.93,1.11,1.11,0,0,1,1.12-1.08,1.09,1.09,0,0,1,1.08,1.11,21.75,21.75,0,0,0,.41,4.47A21.07,21.07,0,1,0,606.83,21a21.12,21.12,0,0,0-10,5.06,1.1,1.1,0,1,1-1.48-1.62,23.26,23.26,0,1,1,15.6,40.48Z"/><path class="cls-2" d="M610.83,50.8a9.25,9.25,0,0,1-8.36-5.26h0a9.26,9.26,0,1,1,8.36,5.26Zm-6.38-6.21a7.05,7.05,0,1,0,3.32-9.41,7.06,7.06,0,0,0-3.32,9.41Z"/><path class="cls-4" d="M624.61,116.17a1.39,1.39,0,0,1-.4-.06L620,114.84a1.42,1.42,0,0,1-1-1.29l-.12-3.08a16.76,16.76,0,0,1-3.36-2.75l-3,.5a1.43,1.43,0,0,1-1.46-.72l-2.09-3.89a1.41,1.41,0,0,1,.2-1.61l2.1-2.27a17,17,0,0,1-.43-4.32l-2.51-1.81a1.38,1.38,0,0,1-.52-1.54L609,87.83a1.39,1.39,0,0,1,1.28-1l3.09-.12a16.82,16.82,0,0,1,2.75-3.37l-.5-3a1.38,1.38,0,0,1,.72-1.45l3.89-2.09a1.39,1.39,0,0,1,1.61.2l2.27,2.09a17.41,17.41,0,0,1,4.32-.43l1.81-2.51a1.39,1.39,0,0,1,1.53-.52L636,76.86a1.4,1.4,0,0,1,1,1.29l.12,3.09A17.13,17.13,0,0,1,640.5,84l3-.5a1.41,1.41,0,0,1,1.46.72l2.09,3.89a1.41,1.41,0,0,1-.2,1.62L644.79,92a16.88,16.88,0,0,1,.44,4.31l2.5,1.81a1.4,1.4,0,0,1,.53,1.54L647,103.87a1.38,1.38,0,0,1-1.28,1l-3.09.13a17.36,17.36,0,0,1-2.74,3.36l.49,3.05a1.4,1.4,0,0,1-.72,1.46L635.75,115a1.4,1.4,0,0,1-1.61-.21l-2.27-2.09a16.91,16.91,0,0,1-4.32.43l-1.8,2.51A1.4,1.4,0,0,1,624.61,116.17Zm-.64-1.86Zm-2.82-1.41,3.15.95,2.17-3,.61,0a15,15,0,0,0,4.82-.48l.58-.16,2.73,2.53,2.9-1.56-.6-3.67.45-.4a15.2,15.2,0,0,0,3.07-3.75l.3-.53,3.72-.15.94-3.14-3-2.18,0-.6a15,15,0,0,0-.48-4.82l-.16-.58,2.52-2.74-1.55-2.89-3.67.6-.41-.46a15,15,0,0,0-3.75-3.06l-.52-.3-.15-3.72-3.15-.94-2.17,3-.6,0a15,15,0,0,0-4.82.48l-.59.16L620.78,79l-2.89,1.55.59,3.67-.45.4A14.81,14.81,0,0,0,615,88.34l-.3.52L611,89l-1,3.14,3,2.18,0,.6a15,15,0,0,0,.49,4.82l.16.59-2.53,2.73,1.56,2.89,3.67-.6.4.46a14.76,14.76,0,0,0,3.75,3.06l.53.3Zm-8.88-5.76h0Zm33-18.92h0ZM628.1,107.63a11.77,11.77,0,0,1-10.37-6.19,12.26,12.26,0,0,1-.94-2.32,1.1,1.1,0,0,1,2.11-.61,8.83,8.83,0,0,0,.77,1.89,9.56,9.56,0,1,0,.21-9.43A1.1,1.1,0,0,1,618,89.84a11.76,11.76,0,1,1,10.11,17.79Z"/><path class="cls-5" d="M651.78,224H501.35a11.82,11.82,0,0,1-11.77-10.71L480.1,112.75a11.82,11.82,0,0,1,11.54-12.93l159.91-3a11.81,11.81,0,0,1,12,11.81V212.22A11.82,11.82,0,0,1,651.78,224Z"/><path class="cls-2" d="M489.72,121.71l6.72,87a7.31,7.31,0,0,0,7.21,6.74L648,217a7.32,7.32,0,0,0,7.38-7.31V116a7.31,7.31,0,0,0-7.56-7.31l-151.09,5.15A7.31,7.31,0,0,0,489.72,121.71Z"/><path class="cls-1" d="M566.79,120.92l81.42-2.44a1.49,1.49,0,0,1,1.52,1.48v1.31a1.48,1.48,0,0,1-1.46,1.48l-81.41,1.13a1.48,1.48,0,0,1-1.5-1.48h0A1.47,1.47,0,0,1,566.79,120.92Z"/><rect class="cls-1" x="565.36" y="127.74" width="84.38" height="3.52" rx="1.48"/><path class="cls-1" d="M545.47,202.44a.67.67,0,0,1-.66-.67v-2a.67.67,0,0,1,.67-.67h0a.67.67,0,0,1,.66.67v2a.68.68,0,0,1-.67.67Zm0-6.65a.66.66,0,0,1-.67-.66v-2a.66.66,0,0,1,.66-.67h0a.67.67,0,0,1,.67.66v2a.67.67,0,0,1-.66.66Zm0-6.64a.66.66,0,0,1-.66-.66v-2a.67.67,0,0,1,.66-.67h0a.67.67,0,0,1,.67.66v2a.66.66,0,0,1-.66.67Zm0-6.64a.67.67,0,0,1-.66-.66v-2a.67.67,0,0,1,.67-.66h0a.66.66,0,0,1,.66.66v2a.67.67,0,0,1-.67.67Z"/><path class="cls-1" d="M578.83,200.54a.66.66,0,0,1-.66-.66v-2a.67.67,0,1,1,1.33,0v2A.66.66,0,0,1,578.83,200.54Zm0-6.64a.67.67,0,0,1-.66-.66v-2a.67.67,0,0,1,1.33,0v2A.67.67,0,0,1,578.83,193.9Zm0-6.64a.67.67,0,0,1-.66-.67v-2a.67.67,0,0,1,1.33,0v2A.67.67,0,0,1,578.83,187.26Zm0-6.64a.67.67,0,0,1-.66-.67v-2a.67.67,0,1,1,1.33,0v2A.67.67,0,0,1,578.83,180.62Zm0-6.65a.66.66,0,0,1-.66-.66v-2a.67.67,0,1,1,1.33,0v2A.66.66,0,0,1,578.83,174Z"/><path class="cls-1" d="M604.28,206a.66.66,0,0,1-.66-.64l0-1.19a.68.68,0,0,1,.64-.69.66.66,0,0,1,.69.65l0,1.19a.65.65,0,0,1-.64.68Zm-.18-5.84a.66.66,0,0,1-.66-.64l-.07-2a.68.68,0,0,1,.65-.69.66.66,0,0,1,.68.65l.06,2a.65.65,0,0,1-.64.68Zm-.21-6.63a.67.67,0,0,1-.66-.65l-.06-2a.65.65,0,0,1,.64-.68.68.68,0,0,1,.69.64l.06,2a.68.68,0,0,1-.65.69Zm-.2-6.64a.67.67,0,0,1-.67-.65l-.06-2a.67.67,0,0,1,1.33,0l.06,2a.68.68,0,0,1-.64.69Zm-.21-6.64a.66.66,0,0,1-.66-.65l-.06-2a.66.66,0,1,1,1.32,0l.06,2a.66.66,0,0,1-.64.69Zm-.21-6.64a.67.67,0,0,1-.66-.65l-.06-2a.67.67,0,0,1,.64-.68.65.65,0,0,1,.69.64l.06,2a.67.67,0,0,1-.64.69Zm-.2-6.64a.66.66,0,0,1-.66-.64l-.07-2a.67.67,0,0,1,.65-.68.65.65,0,0,1,.68.64l.06,2a.66.66,0,0,1-.64.69Z"/><path class="cls-1" d="M628.47,202.31a.66.66,0,0,1-.67-.66v-2a.67.67,0,1,1,1.33,0v2A.66.66,0,0,1,628.47,202.31Zm0-6.64a.67.67,0,0,1-.67-.66v-2a.67.67,0,0,1,1.33,0v2A.67.67,0,0,1,628.47,195.67Zm0-6.64a.67.67,0,0,1-.67-.67v-2a.67.67,0,0,1,1.33,0v2A.67.67,0,0,1,628.47,189Zm0-6.64a.67.67,0,0,1-.67-.67v-2a.67.67,0,1,1,1.33,0v2A.67.67,0,0,1,628.47,182.39Zm0-6.65a.66.66,0,0,1-.67-.66v-2a.67.67,0,1,1,1.33,0v2A.66.66,0,0,1,628.47,175.74Zm0-6.64a.67.67,0,0,1-.67-.66v-2a.67.67,0,0,1,1.33,0v2A.67.67,0,0,1,628.47,169.1Zm0-6.64a.67.67,0,0,1-.67-.67v-2a.67.67,0,0,1,1.33,0v2A.67.67,0,0,1,628.47,162.46Zm0-6.64a.67.67,0,0,1-.67-.67v-2a.67.67,0,0,1,1.33,0v2A.67.67,0,0,1,628.47,155.82Zm0-6.65a.66.66,0,0,1-.67-.66v-2a.67.67,0,1,1,1.33,0v2A.66.66,0,0,1,628.47,149.17Z"/><path class="cls-1" d="M509.76,210.15a1,1,0,0,1-1-.91L502,128.83a1,1,0,0,1,.91-1.08,1,1,0,0,1,1.08.91l6.8,80.41a1,1,0,0,1-.9,1.08Z"/><polygon class="cls-1" points="499.92 132.98 503 129.33 506.65 132.41 506.41 129.55 502.76 126.47 499.68 130.12 499.92 132.98"/><path class="cls-1" d="M644.71,206.36H504.6a1,1,0,1,1,0-2H644.71a1,1,0,1,1,0,2Z"/><polygon class="cls-1" points="640.74 208.75 644.12 205.37 640.74 201.99 643.61 201.99 646.99 205.37 643.61 208.75 640.74 208.75"/><path class="cls-1" d="M515.59,183.26a1,1,0,0,1-.13-2c.74-.09,74.1-10.14,114.26-39.75a1,1,0,0,1,1.18,1.6c-40.57,29.92-114.44,40-115.18,40.13Z"/><path class="cls-1" d="M630.62,147.62h-.08a1,1,0,0,1-.92-1.08l.31-3.91-5.52-.33a1,1,0,0,1,.12-2l6.53.39a1,1,0,0,1,.7.34,1,1,0,0,1,.24.73l-.39,4.93A1,1,0,0,1,630.62,147.62Z"/><path class="cls-2" d="M125.84,134.2a20,20,0,0,1,17.87,11.07l8.22-10.36a31.82,31.82,0,0,0-25.42-12.64,36.79,36.79,0,0,0-22.81,8.59l7.28,9.2A23.17,23.17,0,0,1,125.84,134.2Z"/><path class="cls-2" d="M103.61,154.88c0-5.68,3-11,7.37-14.82l-7.28-9.2C96.18,137,91,145.85,91,155.31c0,17.39,17.44,30.4,34.83,30.72l-.56-11.93C114.44,173.84,103.61,165.72,103.61,154.88Z"/><path class="cls-1" d="M125.84,174.12l-.56,0,.56,11.93.67,0a31.89,31.89,0,0,0,28.38-17.35c-3-1.37-7.58-3.34-11.5-5A20,20,0,0,1,125.84,174.12Z"/><path class="cls-1" d="M151.93,134.91l-8.22,10.36a19.94,19.94,0,0,1-.32,18.39c3.92,1.7,8.45,3.67,11.5,5a31.87,31.87,0,0,0-3-33.79Z"/><path class="cls-2" d="M42,127.25a1.64,1.64,0,0,0,1.13-.45l22.19-21a10.31,10.31,0,0,1,7.12-2.84H148a1.64,1.64,0,0,0,0-3.27H72.47a13.58,13.58,0,0,0-9.36,3.73l-22.2,21A1.63,1.63,0,0,0,42,127.25Z"/><path class="cls-2" d="M84.07,92.8h64a1.64,1.64,0,0,0,0-3.27h-64a1.64,1.64,0,0,0,0,3.27Z"/><path class="cls-2" d="M94.48,82.66H148a1.64,1.64,0,0,0,0-3.27H94.48a1.64,1.64,0,1,0,0,3.27Z"/><rect class="cls-1" x="665.31" y="375.06" width="5.69" height="61.5"/><path class="cls-1" d="M645.22,434h45.72a2.12,2.12,0,0,1,2.12,2.12v1.58a0,0,0,0,1,0,0H643.25a0,0,0,0,1,0,0V436a2,2,0,0,1,2-2Z"/><rect class="cls-1" x="635.92" y="360.41" width="66.56" height="18.88" rx="6.5"/><path class="cls-6" d="M636.48,425.67s-16.24,11.7-13.42,19.57c0,0,17.77-7.67,19.92-13.71s-.37-8.71-.37-8.71Z"/><path class="cls-7" d="M638.92,415.86l2.66,7.67a2.66,2.66,0,0,1-1,3.13,6.93,6.93,0,0,1-2.2.86,3.1,3.1,0,0,1-3.43-1.57l-3.18-6Z"/><path class="cls-6" d="M664.76,346.76s-33.35,5.78-47.66,19,13.13,55.38,13.13,55.38,4.5,0,9.95-4.7c0,0-16.27-31.71-2.25-41,15.76-10.39,33.93-12.74,33.93-12.74l-6.77-15Z"/><path class="cls-6" d="M625.88,440.89c3.57-1.66,13.69-8.74,15.39-9.05s4.66,1.69,4.66,1.69a4.61,4.61,0,0,1,0,3.55c-2.37,2.87-7.64,8.35-14.73,10.39-5.21,1.5-8.85.1-11.12-1.54A15,15,0,0,1,625.88,440.89Z"/><path class="cls-6" d="M631.15,447.47c7.09-2,12.36-7.52,14.73-10.39a14.32,14.32,0,0,1-4.28,5.79c-6.35,5.71-18.48,7.77-21.06,7.37-2.07-.31-1.88-2.22-.51-4.31C622.3,447.57,625.94,449,631.15,447.47Z"/><path class="cls-8" d="M649,428.54c0,1-2.05,4.36-3.23,6.25a3,3,0,0,1-2.59,1.45A7.67,7.67,0,0,1,641,436a2,2,0,0,1-1.33-2.47l2.29-7.84Z"/><path class="cls-6" d="M696.87,336.75s7.41,19.8,0,25.83-25.08,12.8-29,24.8S657.2,422.7,648.23,431c0,0-6.3-.61-8.65-3.12,0,0,5.1-34.81,8.47-43.74,2.92-7.73,7.21-18.9,15.45-25.14,2.35-1.78,1.94-4.61.85-7.36l-2-5Z"/><path class="cls-1" d="M619.61,321.22c12.42.75,8.55-19.09,8.33-19.88l18.85,13.31s-1,10.61-16.67,16.18a19.47,19.47,0,0,1-10.8.78A17.13,17.13,0,0,0,619.61,321.22Z"/><path class="cls-9" d="M595.6,315.25c4.62-3.22,9.87,0,9.87,0,6.19,4.05,10.76,5.77,14.14,6a17.13,17.13,0,0,1-.29,10.39c-6.93-1.49-11.89-6.51-14-9.08a2.24,2.24,0,0,0-3.1-.34c-1,.76-1.9,1.8-1.73,2.9.33,2.16-2.18,2.85-2.37,2.07s.86-5.44.86-5.44-5,5-7,7-4.42,0-4.42,0S591,318.47,595.6,315.25Z"/><path class="cls-1" d="M677.53,270.69s-18.07-7.23-51.7,20.53c0,0-2.81,5.81.25,11s32.27,30.39,36.28,44.38c0,0,17.4,5.65,35.38-7.76C697.74,338.83,696.16,299.91,677.53,270.69Z"/><path class="cls-10" d="M641.81,264.23,650.7,275a3.54,3.54,0,0,1,.47,3.8c-1.24,2.52-4.17,6.19-10.66,5.68a5.43,5.43,0,0,1-4.49-3.06l-6.22-12.86Z"/><path class="cls-1" d="M691.52,316.88c2.1-8.55-19.15-27.59-19.15-27.59l5.16-18.6s45.88,30.55,34.19,55.11a17.79,17.79,0,0,1-6.49,7.63C701.54,323.49,695.65,318.93,691.52,316.88Z"/><path class="cls-4" d="M691.53,315.63a.5.5,0,0,0,.49-.38c2.15-8.73-18.43-27.3-19.3-28.08a.5.5,0,0,0-.67.75c.21.18,21,18.94,19,27.09a.5.5,0,0,0,.36.61Z"/><path class="cls-11" d="M659.34,316.14s25.19,9.78,31.34,2.43a4.2,4.2,0,0,0,.84-1.69c4.13,2.05,10,6.61,13.71,16.55-13.24,8.47-35.89-4.71-42-8.59a4.56,4.56,0,0,0-3.38-.62c-2.36.49-6.44,1.21-8.64.87-3.22-.5-7.85,10.86-13.06,7.36C638.13,332.45,642.59,312.71,659.34,316.14Z"/><path class="cls-12" d="M622.45,248.39c-.09.35,2.09,23.92,2.09,23.92L638,270.79l1.26-22.65S624,242.59,622.45,248.39Z"/><path class="cls-6" d="M635.73,252.83l.27,12a1.73,1.73,0,0,1,0,.45c-.24.91-1.27,4-4.35,2.73-2.8-1.13-5.36-2.12-7.25-1.77A1.68,1.68,0,0,0,623,268a73.27,73.27,0,0,0,1.84,11.08,1.68,1.68,0,0,0,1.91,1.2,54,54,0,0,0,12.07-3.46,1.7,1.7,0,0,0,1-1.41c.2-3,.84-12.09,1.41-14.6.54-2.35,3.62-3.46,4.95-3.83a1.61,1.61,0,0,0,1-.81c.75-1.41,1.94-4.73-2.21-6.6a1.68,1.68,0,0,1-.82-2.27c.83-1.71,1.4-4.38-1.76-6.24s-5.94-.36-7.47.95a1.65,1.65,0,0,1-2.14,0,1.34,1.34,0,0,0-1.51-.11,1.65,1.65,0,0,1-2.24-1,5,5,0,0,0-5.45-3.51c-6,.36-7.37,6.8-6.24,10.78s7.6,3.23,11,1.65c2.57-1.2,5.52.68,6.79,1.65A1.65,1.65,0,0,1,635.73,252.83Z"/><path class="cls-13" d="M641.26,265.2s-1.67-7,1-8.42,6.24-.12,4.9,4.69C645.47,267.46,641.26,265.2,641.26,265.2Z"/><path class="cls-14" d="M646.43,335.43h-.12l-52.86-.06a2.37,2.37,0,0,1,0-4.73l52.85.06a2.37,2.37,0,0,1,.12,4.73Z"/><path class="cls-14" d="M545.93,287.44h44a8.38,8.38,0,0,1,7.59,4.81l20.35,43.15h-54.7a5.09,5.09,0,0,1-4.74-3.22l-15.79-39.93A3.52,3.52,0,0,1,545.93,287.44Z"/><path class="cls-2" d="M553.07,448.8a2.31,2.31,0,0,1-.88-.18A2.13,2.13,0,0,1,551,445.8L597.62,341a2.24,2.24,0,0,1,2.91-1.13,2.13,2.13,0,0,1,1.17,2.83L555.11,447.5A2.23,2.23,0,0,1,553.07,448.8Z"/><path class="cls-2" d="M605.55,448.8a2.23,2.23,0,0,1-2-1.3L556.92,342.66a2.13,2.13,0,0,1,1.17-2.83A2.25,2.25,0,0,1,561,341L607.59,445.8a2.13,2.13,0,0,1-1.16,2.82A2.31,2.31,0,0,1,605.55,448.8Z"/><path class="cls-2" d="M697.27,448.8a2.31,2.31,0,0,1-.88-.18,2.12,2.12,0,0,1-1.16-2.82L741.81,341a2.25,2.25,0,0,1,2.92-1.13,2.12,2.12,0,0,1,1.16,2.83L699.31,447.5A2.23,2.23,0,0,1,697.27,448.8Z"/><path class="cls-2" d="M749.75,448.8a2.23,2.23,0,0,1-2-1.3L701.12,342.66a2.14,2.14,0,0,1,1.16-2.83A2.24,2.24,0,0,1,705.2,341L751.79,445.8a2.12,2.12,0,0,1-1.17,2.82A2.22,2.22,0,0,1,749.75,448.8Z"/><path class="cls-2" d="M755.21,337.72a2.54,2.54,0,0,0-.44-1.94,2,2,0,0,0-1.62-.85H541.23a2.36,2.36,0,0,0-2,1.24,3,3,0,0,0-.16,2.59l2.3,5.56a3.19,3.19,0,0,0,2.92,2.09H751.7a2.51,2.51,0,0,0,2.39-2.2Z"/><g class="cls-15"><path class="cls-16" d="M214.84,464.64s-5.84-22.7-32.55-35.54c-24.78-11.92-85-38.1-102.63-60.23-.78-1-2.36.19-2.06,1.53,3.24,14.38,14,49.15,45.13,73.72C162.93,475.8,214.84,464.64,214.84,464.64Z"/><path class="cls-17" d="M93.45,390.72a53.44,53.44,0,0,0,4.36,7.46c.79,1.2,1.67,2.34,2.53,3.49s1.81,2.23,2.7,3.35a89.75,89.75,0,0,0,12.37,11.9l1.66,1.36c.56.44,1.15.84,1.73,1.27,1.16.83,2.3,1.69,3.48,2.5l3.62,2.3c1.18.8,2.44,1.49,3.69,2.19s2.48,1.42,3.74,2.09l3.86,1.87c2.54,1.29,5.23,2.41,7.85,3.6q7.94,3.47,16,6.71c5.35,2.16,10.74,4.25,16.14,6.35,2.69,1,5.4,2.09,8.08,3.19,1.35.54,2.69,1.09,4,1.66l2,.85,2,.9c2.66,1.19,5.26,2.52,7.81,4a40,40,0,0,1,7.09,5.18.37.37,0,0,1,0,.52.36.36,0,0,1-.49,0h0a45.82,45.82,0,0,0-7.23-4.6c-2.57-1.27-5.19-2.44-7.88-3.48-5.35-2.13-10.81-4-16.26-6l-8.17-3c-2.72-1-5.43-2-8.13-3.1s-5.41-2.13-8.09-3.23-5.35-2.25-8-3.42c-10.64-4.57-21.18-10.23-30-18a82.94,82.94,0,0,1-12-12.74,74.92,74.92,0,0,1-4.83-7.3,45.36,45.36,0,0,1-3.7-7.89,0,0,0,0,1,0-.06A0,0,0,0,1,93.45,390.72Z"/></g><path class="cls-2" d="M24.32,473.43h139a8,8,0,0,0,8-8V257.23a8,8,0,0,0-8-8l-140.1-.38a8,8,0,0,0-8,8.07l1.11,208.55A8,8,0,0,0,24.32,473.43Z"/><path class="cls-1" d="M31.13,259.1l124.27.77a8.15,8.15,0,0,1,8.1,8.18l-.87,186.84a8.13,8.13,0,0,1-8,8.1L33.88,465.2a8.15,8.15,0,0,1-8.29-8L22.93,267.36A8.15,8.15,0,0,1,31.13,259.1Z"/><rect class="cls-2" x="32.18" y="269.13" width="100.63" height="5.73" rx="2.44"/><path class="cls-2" d="M32,283.16h0a2.44,2.44,0,0,0,2.45,2.23l83.76-.79a2.44,2.44,0,0,0,2.41-2.51v-.2a2.42,2.42,0,0,0-2.46-2.36l-83.75,1A2.45,2.45,0,0,0,32,283.16Z"/><path class="cls-2" d="M38.32,463.12A7.26,7.26,0,0,1,31.07,456L28.35,303.19a7.27,7.27,0,0,1,7.11-7.38l117.07.8a7.27,7.27,0,0,1,7.39,7.11l-1.09,150.66a7.24,7.24,0,0,1-7.16,7.38L38.4,463.12ZM152.67,299.54h-.09l-117.07-.8a4.32,4.32,0,0,0-4.23,4.4h0L34,456a4.35,4.35,0,0,0,4.33,4.25h0l113.26-1.36a4.34,4.34,0,0,0,4.28-4.41L157,303.78a4.3,4.3,0,0,0-4.32-4.24Z"/><rect class="cls-2" x="39.69" y="386.93" width="15.37" height="55.82" rx="1.55"/><path class="cls-2" d="M95.73,380.25H83.5A1.71,1.71,0,0,0,81.93,382V440.9a1.76,1.76,0,0,0,1.57,1.84H95.73a1.93,1.93,0,0,0,1.77-1.84V382A1.88,1.88,0,0,0,95.73,380.25Z"/><rect class="cls-2" x="61.91" y="369.53" width="15.37" height="73.21" rx="1.55"/><rect class="cls-18" x="128.44" y="344.66" width="15.37" height="98.09" rx="1.55"/><rect class="cls-18" x="105.59" y="358.21" width="15.37" height="84.54" rx="1.55"/><polygon class="cls-2" points="49.85 368.1 49.56 367.57 70.01 356.39 89.03 364.75 105.36 348.73 105.39 348.71 124.56 337.4 124.87 337.92 105.73 349.22 89.16 365.47 70.04 357.07 49.85 368.1"/><path class="cls-2" d="M51.9,367.83a2.2,2.2,0,1,1-2.2-2.2A2.19,2.19,0,0,1,51.9,367.83Z"/><circle class="cls-2" cx="70.03" cy="356.73" r="2.2"/><circle class="cls-2" cx="89.09" cy="364.69" r="2.2"/><circle class="cls-2" cx="105.02" cy="348.98" r="2.2"/><path class="cls-2" d="M126.92,337.66a2.2,2.2,0,1,1-2.2-2.2A2.2,2.2,0,0,1,126.92,337.66Z"/><path class="cls-5" d="M100,408.42l1,57a8.11,8.11,0,0,0,8.11,8H220.92a8.13,8.13,0,0,0,8.12-8.12V411.93a8.12,8.12,0,0,0-7.86-8.11l-112.83-3.65A8.12,8.12,0,0,0,100,408.42Z"/><path class="cls-18" d="M109.23,414l2.43,52.42a3.72,3.72,0,0,0,3.78,3.55l101.88-1.79a3.74,3.74,0,0,0,3.66-3.73V419a3.73,3.73,0,0,0-3.54-3.72l-104.3-5.16A3.72,3.72,0,0,0,109.23,414Z"/><path class="cls-18" d="M117.36,418.89v3.77a2.38,2.38,0,0,0,2.42,2.38l87.87-1.43a2.38,2.38,0,0,0,2.34-2.38h0a2.38,2.38,0,0,0-2.32-2.38L119.8,416.5A2.38,2.38,0,0,0,117.36,418.89Z"/><path class="cls-18" d="M118.67,433.15v3.46a2.38,2.38,0,0,0,2.46,2.38l83.7-2.91a2.38,2.38,0,0,0,2.29-2.38v-1.08a2.39,2.39,0,0,0-2.39-2.39l-83.7.54A2.37,2.37,0,0,0,118.67,433.15Z"/><path class="cls-14" d="M100,401.9,7.3,453.34a7.62,7.62,0,0,0-2.66,10.87l.4.61a7.09,7.09,0,0,0,9.87,2l88.54-59.37Z"/><ellipse class="cls-19" cx="141.85" cy="373.18" rx="49.19" ry="48.3" transform="translate(-56.75 26.85) rotate(-9.02)"/><path class="cls-14" d="M133.42,320.1c-29.85,4.73-50.28,32.34-45.63,61.66s32.63,49.24,62.48,44.5,50.29-32.34,45.63-61.66S163.28,315.36,133.42,320.1ZM149,418.46c-25.47,4-49.33-12.95-53.3-38s13.46-48.57,38.93-52.61,49.33,13,53.3,38S174.5,414.42,149,418.46Z"/><path class="cls-4" d="M92.89,387.68a.38.38,0,0,1-.36-.26c-.36-1.23-.67-2.5-.94-3.75a.38.38,0,0,1,.29-.44.37.37,0,0,1,.43.29c.26,1.24.57,2.48.93,3.69a.38.38,0,0,1-.25.46Zm-2-14.9h0a.37.37,0,0,1-.36-.37A49.77,49.77,0,0,1,91.87,362h0a51.15,51.15,0,0,1,42.07-38.58,51.91,51.91,0,0,1,28.46,3.46.37.37,0,0,1-.28.68,51.05,51.05,0,0,0-28.06-3.41,50.4,50.4,0,0,0-41.48,38h0a48.9,48.9,0,0,0-1.31,10.29A.37.37,0,0,1,90.9,372.78Z"/><path class="cls-1" d="M34.83,134.2A19.87,19.87,0,0,1,47,138.32l7.12-10.07a31.74,31.74,0,0,0-18.59-6c-.91,0-1.83,0-2.75.13l1.83,11.8Z"/><path class="cls-2" d="M34.83,174.12c-11,0-22.22-8.21-22.22-19.24s11-20.53,22-20.68l-1.83-11.8C16.07,123.89,0,138.62,0,155.31c0,17.62,17.89,30.74,35.5,30.74a31.75,31.75,0,0,0,13-2.76L41.3,173A20.09,20.09,0,0,1,34.83,174.12Z"/><path class="cls-1" d="M67.39,154.16a31.85,31.85,0,0,0-13.3-25.91L47,138.32A20,20,0,0,1,41.3,173l7.17,10.25A31.88,31.88,0,0,0,67.39,154.16Z"/></g></g></svg>