<svg xmlns="http://www.w3.org/2000/svg" viewBox="0 0 841 595"><defs><style>.cls-13{opacity:.5;isolation:isolate}.cls-10,.cls-13,.cls-16,.cls-19,.cls-2,.cls-8{fill:none}.cls-13,.cls-2{stroke:#58388c}.cls-10,.cls-13,.cls-16,.cls-19,.cls-2{stroke-linecap:round;stroke-miterlimit:10}.cls-2{stroke-width:2.48px}.cls-5{fill:#a390dd}.cls-7{fill:#ffadaf}.cls-9{fill:#fc9599}.cls-10{stroke:#fc9599;stroke-width:3.12px}.cls-11{fill:#43395b}.cls-12{fill:#eae6ff}.cls-13{stroke-width:3.6px}.cls-16{stroke:#a29fdd;stroke-width:2.62px}.cls-22{fill:#fff}.cls-19{stroke:#1dc9b7;stroke-width:2.64px}</style></defs><g id="Слой_3" data-name="Слой 3"><g style="isolation:isolate" opacity=".5"><path class="cls-2" d="M344 283.09c-.66 1.21-1.3 2.43-1.93 3.65"/><path d="M338.52 294.12c-24.32 54.82-11.34 116.24 28.26 148.63 44.94 36.76 104.91 20.42 116.58 16.9 17-5.14 41.87-12.67 49.84-34.64 8.8-24.26-4.92-60.92-34.64-69.27-26.74-7.51-58.78 10.07-61.66 31.26-3 21.7 9.86 43.07 30 50 38.16 13.08 82.68.21 115.32-27.52 13.9-11.81 21.43-31.42 24.15-43.62" stroke-dasharray="8.17 8.17" stroke-width="2.5" stroke-miterlimit="10" stroke-linecap="round" stroke="#58388c" fill="none"/><path class="cls-2" d="M607.12 361.81a34 34 0 00.42-4.1"/></g><circle cx="612.2" cy="195.6" r="158.5" fill="#a29fdd"/><path class="cls-5" d="M124.75 378c13.21 0 24.12 8.85 43.46 30.74 34.52 39.47 51.61 59.24 51 74.78-1.48 35.51-45.12 73.06-86.7 68.73C79 547 50.66 473.63 64.8 431.59 68.23 421 77.19 405 93.06 392.3c8-5.98 18.13-14.2 31.69-14.3z"/><circle cx="189.6" cy="473.2" r="22.3" transform="rotate(-11.09 189.671 473.208)" style="isolation:isolate" fill="#58388c" opacity=".5"/><path class="cls-7" d="M80.19 414.63c4.19-4.85 21.24-13.33 55.34-30.29 15-7.71 17.76-8.62 21.73-12.7 15.18-16.19 6.41-32.82 10.41-63 7.94-62.47 35-72.18 45.63-94.81.81-7.13-2.17-22.32 5.75-26.81 5.24-3.23 12.57.47 13.77 1 11.77 5.77 13.27 20.88 9.33 34.5-3.22 11.64-2.89 17.08-12.54 29.61-5 6.48-6.24 26.18-1.93 25.7 68.14-53 99.05-65.65 114-66 4.38-.12 14.05.55 28.32-1.51 11.38-1.87 17.89-4.24 30.74-4.19 14.4.47 18 3.81 19.05 5.44 3 4.17 3.13 10.39 1.14 15.18-4.56 10.44-18.9 12.15-36.86 16-36.19 8.19-59 19.26-58.9 19.61l1.06-.2c10.75-3.21 28-8.79 48.05-7.59 2.26.29 1.49.08 5.23.45 21.25 1.7 26-.33 32.68 3.86 1.69 1.14 5.78 3.27 7.17 8.51.21 1.06 1.32 4.87-.1 8.82-2.71 6.77-11.62 10-18.48 10.6-6.5.54-16.09-1.62-19.69-1.28a18.14 18.14 0 01-3.25.27 5.56 5.56 0 00-2.26-.29c-30.3.8-46.7 22-47.12 21.71-.07-.35 25.1-6.75 51.31-9.69 17.59-2 23.31-.9 27.67 2.65 5.14 3.76 8.79 11.12 7.49 17.61-2.58 11.15-18.63 15.4-26.34 17.27-8 2.3-12.86 1.79-20.13 2.12-21.12.83-45.86 7.52-45.67 12.25-.16 4.8 26.78 14.93 49 6.54 7.85-3 13.87-7.85 25.24-7.88 2.61.22 13.27.33 16.78 7 2.17 3.62.82 7.92.67 9-3.58 13.54-27.76 19.38-52.65 27.2-18 5.37-35.21 13.14-52.61 19.85C278.89 423 259 435.73 222.82 459c-80.85 51.81-87.7 71.14-107 66.12C80 514.84 58.83 440.47 80.19 414.63z"/><path class="cls-8" d="M379.88 217.55a31.18 31.18 0 015.27-10.55c-5 .62-9.9 1.94-16 2.77-14.21 2.42-23.59 1.32-28.33 1.51-15 .37-45.53 13-113.31 65.88a.36.36 0 01-.29.43c-3.18.62-15.47-17.15-9.77-29.28.71-2 3.19-4.29 7.59-8.09 11.33-9.56 4.41-46.74 9-51.31-.78-.21-1.27-.85-2-1.07-.85-.56-8.53-4.19-13.77-1-7.58 4.42-4.6 19.62-5.75 26.82-10.54 23-37.34 32.27-45.63 94.81-3.94 30.49 4.41 46.84-10.42 62.95-4 4.08-7 5.41-21.72 12.7-34.11 17-51.51 25.51-55.35 30.3-21.35 25.83.12 99.79 35.32 109 19.33 5 26.25-14 107-66.12 36.18-23.23 56.07-35.94 86.41-47.76 17.47-6.36 34.66-14.13 52.62-19.85 8.27-2.72 16.62-5.09 24.18-7.68a3.89 3.89 0 00-1-1.27 87.21 87.21 0 01-2.26-19c.45-7.06 1.45-9.46 2.3-10.72a14.05 14.05 0 013-3.52c-5.51 1.81-10.47 4.62-15.91 6.79-21.79 8.67-48.8-1.82-49-6.55s24.55-11.41 45.67-12.25c7.27-.33 12.08-.17 20.13-2.11 8-2.3 24.11-6.2 26.34-17.28 1.3-6.49-2.35-13.85-7.49-17.61-4.72-3.48-10.08-4.63-27.67-2.65-24.45 2.59-47.91 8.29-51 9.27 2.13-2.25 18.3-20.83 46.77-21.64a4.55 4.55 0 002.26.29 13.75 13.75 0 003.25-.27c3.53-.69 13.55 1.75 19.69 1.27 6.93-.25 16.12-3.89 18.48-10.59 1.42-3.95.31-7.77.1-8.83a16 16 0 00-7.17-8.5c-6.69-4.19-11.43-2.16-32.68-3.87-4.17-.65-3-.5-5.23-.44-20-1.21-37.65 4.45-48 7.59l-1.06.2s22.72-11.42 58.9-19.62l1.06-.2c-6.65-3.82-6.18-16.39-4.53-22.95z"/><path class="cls-8" d="M401.46 372.57a15.52 15.52 0 002.26 2.13c5.59-3.3 9.2-7.31 10.49-12 .15-1.13 1.51-5.43-.67-9-3.37-5.94-12.68-6.69-16-6.77a29.19 29.19 0 00-1.1 9.39c-.08 3.31.24 10.58 5.02 16.25zM419.24 210.57c-1.4-1.56-4.71-5.32-19-5.44l-6.57.18c.48 2.48.4 5.79 2 10.25 4.05 11.31 11.24 14.31 9.81 20.09.07.36.14.71-.22.78 7.64-2.23 12.88-5.46 15.16-10.68a14.21 14.21 0 00-1.18-15.18z"/><path class="cls-9" d="M231.79 237c-2.07 4.44-11.29 15.42-12.08 18.88-3.72 12.84 5.14 22.47 8.25 21.5-4.24.83-3-18.87 1.93-25.7 9.66-12.53 9.32-18 12.55-29.61 3.37-12.77 2.43-26.9-7.57-33-4.61 4.6 3.18 35-3.08 47.93z"/><path class="cls-9" d="M227.89 277.06l-.28.43a.36.36 0 00.28-.43zM396.13 216.2a32.66 32.66 0 01-2-10.25 36.41 36.41 0 00-8.62 1 48.71 48.71 0 00-5.26 10.57c-1.94 7-2.41 19.55 4.78 24.38 7.7-1.88 14.41-3.19 20.35-4.72-.07-.36-.14-.71.22-.78 1.77-5.89-5.49-9.24-9.47-20.2zM382.58 362.33a57.38 57.38 0 002.25 19s.5.63 1 1.27a88.36 88.36 0 0018-7.56 6.49 6.49 0 01-2.25-2.12c-4.78-5.67-5.1-12.95-5-16.27a37.73 37.73 0 011.1-9.39c-.36.07-.43-.28-.78-.21a41.59 41.59 0 00-9 1 31.75 31.75 0 00-3 3.52c-1.23 1.37-2.16 4.12-2.32 10.76z"/><path class="cls-10" d="M197.2 380.69c36.55 6.78 71.23-12.86 82.08-43.61 8.15-24 1.61-51.69-17.31-71.47"/><path class="cls-11" d="M368.22 405.14l-106 .23a26.71 26.71 0 01-26.81-26.3l-1-244.92a26.71 26.71 0 0126.3-26.8l106-.23a26.7 26.7 0 0126.8 26.3l1 244.92a26.33 26.33 0 01-26.29 26.8z"/><path class="cls-12" d="M369 398.23l-108.19.29a17.21 17.21 0 01-17.3-17.16l-.8-249.36a17.22 17.22 0 0117.16-17.31l108.19-.29a17.2 17.2 0 0117.31 17.16l.81 249.36A17.21 17.21 0 01369 398.23z"/><path class="cls-11" d="M336.19 127.41H292.9a7.88 7.88 0 01-8.16-7.95v-7.34l59.39-.27v7.35a7.64 7.64 0 01-7.94 8.21zM346.73 391l-62.36.11a2.24 2.24 0 01-1.82-1.84 2.23 2.23 0 011.84-1.83l62.36-.12a2.25 2.25 0 011.83 1.85c.2 1.07-.79 1.63-1.85 1.83z"/><ellipse class="cls-7" cx="394.4" cy="270.5" rx="4.3" ry="15.5" transform="rotate(-.18 403.818 277.564)"/><path class="cls-7" d="M396.6 314.08c.11 9.89-.84 18.15-2.33 18.07s-3.07-8.2-3.18-18.09 1.63-17.93 3-18.21c1.91.01 2.76 8.27 2.51 18.23z"/><path class="cls-8" d="M232.9 379.2l-.4.1"/><path class="cls-10" d="M165.4 422.5l22.1-14.6M178.7 426.9l17-12.9"/><path class="cls-5" d="M211.35 482.86c-19.56-.57-41.63-8.35-47.9-12.26C129 448.36 124 398.7 128 389.11a4.79 4.79 0 00.37-3.74c-2.25-4-20.64 3.31-22.34 4C90.15 396.17 73 411.64 65.08 433c-14.2 38 6.92 72.76 11 78.57 5.75 8.78 19.51 30.3 45.55 35.84 28.79 6.46 70.44-7.57 83.39-33.23a58.41 58.41 0 006.33-31.32z"/><path class="cls-13" d="M181.3 520.3l14.7-22M174.9 514.2l10.6-15.3M89.1 415.1l15.6-10M121.7 497.1l23.9-24.1M85.5 428.6l28.3-18.7M120.4 515l34.3-36.4M126.9 480.7l12.8-13.2"/><rect class="cls-12" x="585.7" y="126.2" width="53.1" height="83.6" rx="18.6"/><circle class="cls-12" cx="612.2" cy="273.3" r="35"/><path class="cls-12" d="M557.51 179.1H667a76.16 76.16 0 0176.16 76.16H481.35a76.16 76.16 0 0176.16-76.16z"/><path stroke="#eae6ff" stroke-width="5.3" stroke-miterlimit="10" stroke-linecap="round" fill="none" d="M612.2 141.2V61.3"/><path style="isolation:isolate" stroke-width="1.5" stroke="#a29fdd" stroke-miterlimit="10" stroke-linecap="round" fill="none" opacity=".5" d="M503.3 244.2h212.6"/><path class="cls-16" d="M612.2 299.1V282M619 294.37a18.45 18.45 0 10-13.56 0"/><path d="M340.55 149.42H157.19a32.45 32.45 0 00-32.44 32.44v64.9a30 30 0 0030 30H271a8.36 8.36 0 018.37 8.36v13.09a2.69 2.69 0 004.54 2l22.5-21.21a8.39 8.39 0 015.73-2.26h27.18a29.86 29.86 0 0029.86-29.87v-68.82a28.63 28.63 0 00-28.63-28.63z" stroke="#9a8ac4" stroke-width="4" fill="#fff" stroke-miterlimit="10"/><path d="M224.85 203.35l-7.85-6.28.06-13.84c.12-.8-.37-1-1.18-1.17l-7.29.06c-.81-.12-1.18 0-1.18 1.17l-.12 6.58c-10.39-8.12-21.82-17.1-21.95-17.41-.93-.49-1.36-.68-1.85-.92-.81-.13-1.05.37-2 1s-38.33 30.15-39.26 30.83c-1.48 1.29-1.05 2.64.43 2.52l7.3-.06-.06 39.56c.12 2.65 1.11 3.45 3.46 3.51l60.22-.06c2.35 0 3.46-1.11 3.52-3.45l.06-39.56 7.3-.06c1.25.35 1.54-1.25.39-2.42z" fill="#1dc9b7"/><path class="cls-19" d="M335.5 172.2h-87M335.1 186.1h-86.2"/><path d="M313.77 248.94h-43.49a21.77 21.77 0 110-43.54h43.49a21.77 21.77 0 010 43.54z" fill="#eaa2ab"/><circle cx="313.6" cy="227.2" r="19.1" fill="#cc4a50"/><path class="cls-22" d="M270.42 227c0 4.1-2.48 6.58-6.14 6.58s-5.88-2.8-5.88-6.36c0-3.74 2.4-6.54 6.09-6.54s5.93 2.91 5.93 6.32zm-9 .17c0 2.45 1.15 4.17 3 4.17s3-1.82 3-4.25c0-2.24-1.08-4.17-3-4.17s-3.03 1.86-3.03 4.29zM272.28 220.92h7.64v2.32h-4.8v2.85h4.49v2.3h-4.49v5h-2.84zM282.05 220.92h7.65v2.32h-4.81v2.85h4.49v2.3h-4.49v5h-2.84z"/><circle class="cls-22" cx="183.4" cy="211.9" r="11.1"/><rect class="cls-22" x="178" y="217.6" width="10.8" height="10.8" rx="1.6"/><rect class="cls-22" x="179.4" y="223" width="8.1" height="10.8" rx="1.4"/></g></svg>