<svg xmlns="http://www.w3.org/2000/svg" viewBox="0 0 25.12 50.92"><defs><style>.cls-1{fill:#f7f7f7;}</style></defs><title>scroll down</title><g id="Layer_2" data-name="Layer 2"><g id="Layer_1-2" data-name="Layer 1"><path class="cls-1" d="M12.56,36.81A12.57,12.57,0,0,1,0,24.26V12.56a12.56,12.56,0,0,1,25.12,0v11.7A12.57,12.57,0,0,1,12.56,36.81Zm0-35.54A11.3,11.3,0,0,0,1.27,12.56v11.7a11.29,11.29,0,0,0,22.57,0V12.56A11.29,11.29,0,0,0,12.56,1.27Z"/><circle class="cls-1" cx="12.56" cy="9.43" r="1.86"/><path class="cls-1" d="M12.56,50.92a.65.65,0,0,1-.4-.14l-6-4.84A.64.64,0,0,1,7,45l5.59,4.52L18.15,45A.63.63,0,0,1,19,45a.65.65,0,0,1-.09.9l-6,4.84A.67.67,0,0,1,12.56,50.92Z"/><path class="cls-1" d="M12.56,50.47a.64.64,0,0,1-.64-.64V24.37a.64.64,0,0,1,.64-.64.63.63,0,0,1,.63.64V49.83A.64.64,0,0,1,12.56,50.47Z"/><path class="cls-1" d="M12.56,21.75a.65.65,0,0,1-.45-.2.61.61,0,0,1-.19-.44.64.64,0,0,1,.19-.45.65.65,0,0,1,.9,0,.67.67,0,0,1,.18.45.6.6,0,0,1-.18.44A.65.65,0,0,1,12.56,21.75Z"/><path class="cls-1" d="M12.56,18.88a.63.63,0,0,1-.45-.18.6.6,0,0,1-.14-.21.52.52,0,0,1-.05-.24A.49.49,0,0,1,12,18a.6.6,0,0,1,.14-.21.52.52,0,0,1,.21-.14.63.63,0,0,1,.36,0l.12,0a.72.72,0,0,1,.21.14.57.57,0,0,1,.13.21.64.64,0,0,1,0,.24.69.69,0,0,1,0,.24.57.57,0,0,1-.13.21.6.6,0,0,1-.21.14A.67.67,0,0,1,12.56,18.88Z"/><path class="cls-1" d="M12.56,16a.63.63,0,0,1-.45-.18.6.6,0,0,1-.14-.21.64.64,0,0,1-.05-.24.6.6,0,0,1,.05-.24.64.64,0,0,1,.35-.35.63.63,0,0,1,.36,0l.12,0a.24.24,0,0,1,.11.06.39.39,0,0,1,.1.08.57.57,0,0,1,.13.21.6.6,0,0,1,0,.24.64.64,0,0,1,0,.24.57.57,0,0,1-.13.21A.63.63,0,0,1,12.56,16Z"/></g></g></svg>