<svg width="310" height="174" viewBox="0 0 310 174" fill="none" xmlns="http://www.w3.org/2000/svg">
<path fill-rule="evenodd" clip-rule="evenodd" d="M116.011 0.458312C63.6648 3.33167 26.0332 10.3936 16.7611 19.0834C14.8891 20.8385 13.357 22.7191 13.357 23.2632C13.357 23.8073 14.5915 25.6384 16.1004 27.3316C24.1549 36.3695 62.8992 43.6973 117.356 46.4814C139.541 47.6156 191.676 47.0794 211.045 45.5177C280.308 39.9327 313.04 27.1859 288.158 15.4858C274.795 9.20292 247.571 4.36777 208.356 1.31334C192.699 0.0943943 132.76 -0.461196 116.011 0.458312ZM170.952 8.13413C172.786 9.01742 174.287 10.1374 174.287 10.6233C174.287 11.1091 172.698 12.2706 170.755 13.2042C163.558 16.6659 141.861 15.9398 137.017 12.0745C135.233 10.6524 135.206 10.4634 136.623 9.30538C141.143 5.60968 164.083 4.82708 170.952 8.13413ZM106.435 12.4243C109.942 13.4498 111.08 14.1997 111.08 15.4814C111.08 18.1622 103.598 19.8978 92.0387 19.8978C81.697 19.8978 75.0653 18.7531 73.3054 16.6641C71.8987 14.9938 73.6281 13.2775 77.9082 12.0931C83.0571 10.6674 101.15 10.8776 106.435 12.4243ZM234.355 12.8562C235.835 13.5849 237.045 14.7659 237.045 15.4814C237.045 16.1968 235.835 17.3725 234.355 18.0933C230.805 19.8245 211.882 20.4623 205.545 19.0649C197.635 17.3213 197.082 14.1502 204.321 12.0515C209.134 10.6568 231.081 11.2451 234.355 12.8562ZM168.908 28.9039C175.366 30.4938 176.267 32.2772 171.821 34.67C169.397 35.9755 166.649 36.2388 155.459 36.2388C141.785 36.2388 136.885 35.3378 135.83 32.6314C134.155 28.328 156.39 25.8221 168.908 28.9039ZM3.68591 32.9264C0.113178 41.1525 -0.247234 46.068 0.107798 81.7283C0.426968 113.74 0.560553 116.072 2.38682 121.477C12.3286 150.902 43.0604 166.053 105.701 172.412C124.219 174.291 181.404 174.574 199.838 172.876C235.724 169.572 259.079 164.049 278.286 154.327C289.021 148.893 300.421 138.03 304.659 129.197C309.842 118.395 310.219 114.555 309.928 75.6425C309.674 41.8768 309.595 40.4724 307.655 35.4067C305.133 28.8209 304.149 27.7998 304.576 32.2136C305.237 39.0485 295.598 46.0778 278.525 51.2079C250.79 59.5427 210.058 63.6297 155.011 63.6023C117.132 63.5829 103.961 62.9133 76.1152 59.5904C29.4867 54.0265 3.15336 43.442 5.62693 31.2587C6.36479 27.6205 5.76859 28.1337 3.68591 32.9264Z" fill="rgb(255,255,255,0.7)"/>
</svg>
