<svg width="450" height="255" viewBox="0 0 450 255" fill="none" xmlns="http://www.w3.org/2000/svg">
<path class="primary" fill-rule="evenodd" clip-rule="evenodd" d="M56.1316 39.0601L10.7848 65.7485L10.7687 76.62L56.1429 103.26L65.3988 97.84L65.3699 44.5113L56.1316 39.0601Z" stroke-width="1.46708"/>
<path class="secondary" fill-rule="evenodd" clip-rule="evenodd" d="M10.7672 76.6201L56.114 103.309L56.1301 114.18L10.7559 140.82L1.5 135.4L1.52896 82.0714L10.7672 76.6201Z" stroke-width="1.46708"/>
<path class="primary" fill-rule="evenodd" clip-rule="evenodd" d="M183.749 189.124L138.402 215.812L138.383 226.684L183.757 253.324L193.013 247.904L192.984 194.575L183.749 189.124Z" stroke-width="1.46708"/>
<path class="primary" fill-rule="evenodd" clip-rule="evenodd" d="M119.936 151.612L74.5891 178.301L74.573 189.172L119.947 215.812L129.203 210.392L129.174 157.063L119.936 151.612Z" stroke-width="1.46708"/>
<path class="primary" fill-rule="evenodd" clip-rule="evenodd" d="M183.868 39.0601L138.522 65.7485L138.502 76.62L183.876 103.26L193.132 97.84L193.103 44.5113L183.868 39.0601Z" stroke-width="1.46708"/>
<path class="secondary" fill-rule="evenodd" clip-rule="evenodd" d="M74.6355 114.132L119.982 140.82L119.998 151.692L74.6242 178.332L65.3683 172.911L65.3971 119.583L74.6355 114.132Z" stroke-width="1.46708"/>
<path class="secondary" fill-rule="evenodd" clip-rule="evenodd" d="M202.345 39.0601L247.692 65.7485L247.708 76.62L202.334 103.26L193.078 97.84L193.107 44.5113L202.345 39.0601Z" stroke-width="1.46708"/>
<path class="primary" fill-rule="evenodd" clip-rule="evenodd" d="M247.709 76.6201L202.363 103.309L202.347 114.18L247.721 140.82L256.977 135.4L256.948 82.0714L247.709 76.6201Z" stroke-width="1.46708"/>
<path class="secondary" fill-rule="evenodd" clip-rule="evenodd" d="M10.7672 1.49995L56.114 28.1885L56.1301 39.06L10.7559 65.7001L1.5 60.2799L1.52896 6.95126L10.7672 1.49995Z" stroke-width="1.46708"/>
<path class="secondary" fill-rule="evenodd" clip-rule="evenodd" d="M202.308 114.052L247.655 140.74L247.674 151.612L202.3 178.252L193.044 172.832L193.073 119.503L202.308 114.052Z" stroke-width="1.46708"/>
<path class="secondary" fill-rule="evenodd" clip-rule="evenodd" d="M74.6629 39.0601L120.01 65.7485L120.026 76.62L74.6515 103.26L65.3956 97.84L65.4245 44.5113L74.6629 39.0601Z" stroke-width="1.46708"/>
<path class="primary" fill-rule="evenodd" clip-rule="evenodd" d="M120 76.5715L74.6532 103.26L74.6339 114.131L120.008 140.772L129.264 135.351L129.235 82.0228L120 76.5715Z" stroke-width="1.46708"/>
<path class="secondary" fill-rule="evenodd" clip-rule="evenodd" d="M138.504 1.49995L183.851 28.1885L183.867 39.06L138.493 65.7001L129.237 60.2799L129.266 6.95126L138.504 1.49995Z" stroke-width="1.46708"/>
<path class="secondary" fill-rule="evenodd" clip-rule="evenodd" d="M138.504 76.5232L183.851 103.212L183.867 114.083L138.493 140.723L129.237 135.303L129.266 81.9745L138.504 76.5232Z" stroke-width="1.46708"/>
<path class="primary" fill-rule="evenodd" clip-rule="evenodd" d="M56.1042 114.132L10.7575 140.82L10.7382 151.692L56.1123 178.332L65.3682 172.911L65.3393 119.583L56.1042 114.132Z" stroke-width="1.46708"/>
<path class="secondary" fill-rule="evenodd" clip-rule="evenodd" d="M138.412 151.612L183.759 178.301L183.775 189.172L138.401 215.812L129.145 210.392L129.174 157.063L138.412 151.612Z" stroke-width="1.46708"/>
<path class="primary" fill-rule="evenodd" clip-rule="evenodd" d="M183.777 114.052L138.43 140.74L138.414 151.612L183.788 178.252L193.044 172.832L193.015 119.503L183.777 114.052Z" stroke-width="1.46708"/>
<path class="primary" fill-rule="evenodd" clip-rule="evenodd" d="M247.672 151.612L202.326 178.301L202.309 189.172L247.684 215.812L256.94 210.392L256.911 157.063L247.672 151.612Z" stroke-width="1.46708"/>
<path class="secondary" fill-rule="evenodd" clip-rule="evenodd" d="M266.186 76.6199L311.533 103.308L311.549 114.18L266.175 140.82L256.919 135.4L256.948 82.0711L266.186 76.6199Z" stroke-width="1.46708"/>
<path class="primary" fill-rule="evenodd" clip-rule="evenodd" d="M311.551 114.18L266.204 140.868L266.188 151.74L311.562 178.38L320.818 172.96L320.789 119.631L311.551 114.18Z" stroke-width="1.46708"/>
<path class="secondary" fill-rule="evenodd" clip-rule="evenodd" d="M266.149 151.612L311.496 178.301L311.515 189.172L266.141 215.812L256.885 210.392L256.914 157.063L266.149 151.612Z" stroke-width="1.46708"/>
<path class="primary" fill-rule="evenodd" clip-rule="evenodd" d="M311.513 189.172L266.167 215.861L266.151 226.732L311.525 253.372L320.781 247.952L320.752 194.623L311.513 189.172Z" stroke-width="1.46708"/>
<path class="secondary" fill-rule="evenodd" clip-rule="evenodd" d="M330.027 114.18L375.374 140.868L375.39 151.74L330.016 178.38L320.76 172.96L320.789 119.631L330.027 114.18Z" stroke-width="1.46708"/>
<path class="primary" fill-rule="evenodd" clip-rule="evenodd" d="M375.392 151.74L330.045 178.428L330.029 189.3L375.403 215.94L384.659 210.52L384.63 157.191L375.392 151.74Z" stroke-width="1.46708"/>
<path class="secondary" fill-rule="evenodd" clip-rule="evenodd" d="M393.868 151.74L439.215 178.428L439.231 189.3L393.856 215.94L384.601 210.52L384.629 157.191L393.868 151.74Z" stroke-width="1.46708"/>
<path class="primary" fill-rule="evenodd" clip-rule="evenodd" d="M439.233 189.3L393.886 215.988L393.87 226.86L439.244 253.5L448.5 248.08L448.471 194.751L439.233 189.3Z" stroke-width="1.46708"/>
</svg>
